SplineFontDB: 3.0
FontName: Tienne-Heavy
FullName: Tienne Heavy
FamilyName: Tienne
Weight: Black
Copyright: Copyright (c) 2011 by vernon adams. All rights reserved.
Version: 001.000
ItalicAngle: 0
UnderlinePosition: -103
UnderlineWidth: 102
Ascent: 1638
Descent: 410
sfntRevision: 0x0001076d
LayerCount: 2
Layer: 0 1 "Back"  1
Layer: 1 1 "Fore"  0
XUID: [1021 14 500265001 4633143]
FSType: 0
OS2Version: 3
OS2_WeightWidthSlopeOnly: 0
OS2_UseTypoMetrics: 1
CreationTime: 1311217380
ModificationTime: 1337811978
PfmFamily: 17
TTFWeight: 900
TTFWidth: 5
LineGap: 39
VLineGap: 0
Panose: 2 0 5 5 0 0 0 2 0 4
OS2TypoAscent: -225
OS2TypoAOffset: 1
OS2TypoDescent: -44
OS2TypoDOffset: 1
OS2TypoLinegap: 78
OS2WinAscent: -82
OS2WinAOffset: 1
OS2WinDescent: -21
OS2WinDOffset: 1
HheadAscent: -82
HheadAOffset: 1
HheadDescent: 21
HheadDOffset: 1
OS2SubXSize: 1331
OS2SubYSize: 1229
OS2SubXOff: 0
OS2SubYOff: 154
OS2SupXSize: 1331
OS2SupYSize: 1229
OS2SupXOff: 0
OS2SupYOff: 717
OS2StrikeYSize: 102
OS2StrikeYPos: 512
OS2Vendor: 'newt'
OS2CodePages: 20000001.00000000
OS2UnicodeRanges: 800000ef.4000204b.00000000.00000000
Lookup: 258 0 0 "'kern' Horizontal Kerning lookup 0"  {"'kern' Horizontal Kerning lookup 0 kerning class 0"  "'kern' Horizontal Kerning lookup 0 kerning class 1"  "'kern' Horizontal Kerning lookup 0 kerning class 2"  } ['kern' ('DFLT' <'dflt' > 'grek' <'dflt' > 'latn' <'dflt' > ) ]
MarkAttachClasses: 1
DEI: 91125
KernClass2: 2 3 "'kern' Horizontal Kerning lookup 0 kerning class 0" 
 5 V W Y
 139 c d e o q ccedilla egrave eacute ecircumflex edieresis ograve oacute ocircumflex otilde odieresis oslash oe uni0205 uni0207 uni020D uni020F
 69 a agrave aacute acircumflex atilde adieresis aring ae uni0201 uni0203
 0 {} 0 {} 0 {} 0 {} -158 {} -189 {}
KernClass2: 2 3 "'kern' Horizontal Kerning lookup 0 kerning class 1" 
 1 T

StartChar: exclam
Encoding: 33 33 23
Width: 791
GlyphClass: 2
Flags: W
LayerCount: 2
Fore
SplineSet
610 167 m 0,0,1
 610 125 610 125 596 89.5 c 128,-1,2
 582 54 582 54 555.5 29.5 c 128,-1,3
 529 5 529 5 492 -8.5 c 128,-1,4
 455 -22 455 -22 410 -22 c 128,-1,5
 365 -22 365 -22 328 -8.5 c 0,6,7
 290 6 290 6 264 30 c 0,8,9
 210 80 210 80 210 169 c 0,10,11
 210 254 210 254 267 306 c 128,-1,12
 324 358 324 358 410 357.5 c 128,-1,13
 496 357 496 357 554 303 c 0,14,15
 610 250 610 250 610 167 c 0,0,1
336 1410 m 128,-1,17
 377 1412 377 1412 412.5 1412 c 128,-1,18
 448 1412 448 1412 487 1410 c 128,-1,19
 526 1408 526 1408 555 1397 c 0,20,21
 619 1373 619 1373 619 1296 c 2,22,-1
 619 1281 l 2,23,24
 619 1273 619 1273 600 1124 c 0,25,26
 536 620 536 620 518 470 c 1,27,28
 481 448 481 448 434 448 c 128,-1,29
 387 448 387 448 358 451 c 128,-1,30
 329 454 329 454 311 464 c 0,31,32
 278 483 278 483 272 547 c 1,33,34
 248 767 248 767 217 951 c 0,35,36
 166 1254 166 1254 166 1297 c 128,-1,37
 166 1340 166 1340 193 1363.5 c 128,-1,38
 220 1387 220 1387 257.5 1397.5 c 128,-1,16
 295 1408 295 1408 336 1410 c 128,-1,17
EndSplineSet
EndChar

StartChar: quotedbl
Encoding: 34 34 24
Width: 1009
GlyphClass: 2
Flags: W
LayerCount: 2
Fore
SplineSet
110 1370 m 1,0,1
 178 1411 178 1411 292 1411 c 0,2,3
 408 1410 408 1410 440 1374 c 0,4,5
 452 1360 452 1360 452 1336 c 1,6,7
 404 908 404 908 402 891 c 1,8,9
 342 870 342 870 281 870 c 0,10,11
 169 870 169 870 154 957 c 1,12,-1
 110 1370 l 1,0,1
557 1370 m 1,13,14
 625 1411 625 1411 739 1411 c 0,15,16
 854 1410 854 1410 886 1374 c 0,17,18
 898 1360 898 1360 899 1336 c 1,19,20
 851 908 851 908 849 891 c 1,21,22
 789 870 789 870 728 870 c 0,23,24
 616 870 616 870 601 957 c 1,25,-1
 557 1370 l 1,13,14
EndSplineSet
EndChar

StartChar: numbersign
Encoding: 35 35 25
Width: 1167
GlyphClass: 2
Flags: W
LayerCount: 2
Fore
SplineSet
436 588 m 1,0,-1
 680 588 l 1,1,-1
 732 834 l 1,2,-1
 488 834 l 1,3,-1
 436 588 l 1,0,-1
1048 510 m 2,4,5
 1048 475 1048 475 1036.5 459.5 c 128,-1,6
 1025 444 1025 444 996 438 c 1,7,-1
 811 438 l 1,8,-1
 736 72 l 1,9,-1
 676 72 l 2,10,11
 631 72 631 72 610.5 84 c 128,-1,12
 590 96 590 96 590 116 c 0,13,14
 590 145 590 145 595 167 c 2,15,-1
 650 438 l 1,16,-1
 406 438 l 1,17,-1
 330 72 l 1,18,-1
 260 72 l 2,19,20
 218 72 218 72 200 80 c 128,-1,21
 182 88 182 88 182 104 c 0,22,23
 183 139 183 139 190 167 c 2,24,-1
 246 438 l 1,25,-1
 46 438 l 1,26,-1
 46 498 l 2,27,28
 46 552 46 552 58 566 c 0,29,30
 77 588 77 588 127 588 c 2,31,-1
 274 588 l 1,32,-1
 325 834 l 1,33,-1
 119 834 l 1,34,-1
 119 913 l 2,35,36
 119 957 119 957 136.5 971 c 128,-1,37
 154 985 154 985 201 985 c 2,38,-1
 357 985 l 1,39,-1
 432 1345 l 1,40,-1
 493 1345 l 2,41,42
 538 1345 538 1345 559.5 1333.5 c 128,-1,43
 581 1322 581 1322 581 1300 c 0,44,45
 581 1273 581 1273 572 1231 c 2,46,-1
 520 985 l 1,47,-1
 761 985 l 1,48,-1
 838 1345 l 1,49,-1
 897 1345 l 2,50,51
 942 1345 942 1345 963 1333.5 c 128,-1,52
 984 1322 984 1322 984 1294.5 c 128,-1,53
 984 1267 984 1267 974 1223 c 2,54,-1
 923 985 l 1,55,-1
 1120 985 l 1,56,-1
 1120 926 l 2,57,58
 1120 873 1120 873 1111 859 c 0,59,60
 1095 834 1095 834 1039 834 c 2,61,-1
 894 834 l 1,62,-1
 841 588 l 1,63,-1
 1048 588 l 1,64,-1
 1048 510 l 2,4,5
EndSplineSet
EndChar

StartChar: dollar
Encoding: 36 36 26
Width: 1336
GlyphClass: 2
Flags: W
LayerCount: 2
Fore
SplineSet
731 163 m 1,0,1
 773 182 773 182 795.5 231.5 c 128,-1,2
 818 281 818 281 818 342 c 0,3,4
 818 455 818 455 731 526 c 1,5,-1
 731 163 l 1,0,1
628 1237 m 1,6,7
 535 1214 535 1214 535 1083 c 128,-1,8
 535 952 535 952 628 891 c 1,9,-1
 628 1237 l 1,6,7
628 1534 m 1,10,11
 683 1534 683 1534 707 1518.5 c 128,-1,12
 731 1503 731 1503 731 1458 c 2,13,-1
 731 1412 l 1,14,15
 980 1412 980 1412 1121 1337 c 0,16,17
 1166 1313 1166 1313 1191 1283 c 0,18,19
 1192 1282 1192 1282 1192 1277 c 128,-1,20
 1192 1272 1192 1272 1189 1255.5 c 128,-1,21
 1186 1239 1186 1239 1179 1208 c 0,22,23
 1160 1126 1160 1126 1129 1010 c 1,24,-1
 826 1082 l 1,25,26
 760 1187 760 1187 731 1208 c 1,27,-1
 731 842 l 1,28,29
 787 819 787 819 834.5 800 c 0,30,31
 882 780 882 780 926 760 c 0,32,33
 1018 717 1018 717 1103 658 c 1,34,35
 1175 600 1175 600 1202 562 c 0,36,37
 1253 486 1253 486 1253 397 c 128,-1,38
 1253 308 1253 308 1216 234 c 128,-1,39
 1179 160 1179 160 1111 106 c 0,40,41
 970 -6 970 -6 731 -20 c 1,42,-1
 731 -186 l 1,43,44
 666 -186 666 -186 651 -172 c 0,45,46
 628 -150 628 -150 628 -86 c 2,47,-1
 628 -21 l 1,48,49
 332 -13 332 -13 126 130 c 0,50,51
 94 152 94 152 80 174 c 1,52,53
 80 211 80 211 87 240 c 1,54,-1
 175 466 l 1,55,-1
 478 346 l 1,56,57
 544 193 544 193 628 162 c 1,58,-1
 628 587 l 1,59,60
 589 608 589 608 532 632 c 0,61,62
 361 703 361 703 296.5 744 c 128,-1,63
 232 785 232 785 193 826 c 0,64,65
 106 917 106 917 106 1032 c 0,66,67
 106 1190 106 1190 248 1292 c 0,68,69
 388 1392 388 1392 628 1408 c 1,70,-1
 628 1534 l 1,10,11
EndSplineSet
EndChar

StartChar: percent
Encoding: 37 37 27
Width: 1658
GlyphClass: 2
Flags: W
LayerCount: 2
Fore
SplineSet
1278 -23 m 0,0,1
 1200 -23 1200 -23 1140 5 c 0,2,3
 1080 34 1080 34 1038 84 c 0,4,5
 954 186 954 186 955 358 c 0,6,7
 954 631 954 631 1138 713 c 0,8,9
 1198 740 1198 740 1279 740 c 128,-1,10
 1360 740 1360 740 1420.5 712.5 c 0,11,12
 1482 684 1482 684 1522 634 c 0,13,14
 1602 534 1602 534 1602 358 c 0,15,16
 1602 185 1602 185 1517 81 c 0,17,18
 1431 -23 1431 -23 1278 -23 c 0,0,1
1159 460 m 128,-1,20
 1154 413 1154 413 1154 359 c 128,-1,21
 1154 305 1154 305 1158 258.5 c 128,-1,22
 1162 212 1162 212 1176 178 c 0,23,24
 1206 103 1206 103 1287 103 c 0,25,26
 1390 102 1390 102 1404 272 c 0,27,28
 1408 316 1408 316 1407.5 364.5 c 128,-1,29
 1407 413 1407 413 1402 460 c 128,-1,30
 1397 507 1397 507 1383 541.5 c 128,-1,31
 1369 576 1369 576 1344.5 596 c 128,-1,32
 1320 616 1320 616 1280 616 c 128,-1,33
 1240 616 1240 616 1215.5 596 c 128,-1,34
 1191 576 1191 576 1177.5 541.5 c 128,-1,19
 1164 507 1164 507 1159 460 c 128,-1,20
698 1031 m 128,-1,36
 698 946 698 946 676.5 876 c 0,37,38
 654 806 654 806 614 756 c 0,39,40
 529 651 529 651 383 651 c 0,41,42
 221 652 221 652 135 762 c 0,43,44
 56 864 56 864 56 1033 c 0,45,46
 56 1306 56 1306 238 1386 c 0,47,48
 298 1412 298 1412 377 1412 c 128,-1,49
 456 1412 456 1412 516 1384.5 c 128,-1,50
 576 1357 576 1357 616.5 1307 c 128,-1,51
 657 1257 657 1257 677.5 1186.5 c 128,-1,35
 698 1116 698 1116 698 1031 c 128,-1,36
503 1031 m 0,52,53
 503 1287 503 1287 378 1287 c 0,54,55
 271 1288 271 1288 254 1132 c 0,56,57
 249 1086 249 1086 249 1031.5 c 128,-1,58
 249 977 249 977 254 930.5 c 128,-1,59
 259 884 259 884 273 850 c 0,60,61
 303 776 303 776 378 775 c 0,62,63
 481 776 481 776 498 932 c 0,64,65
 503 978 503 978 503 1031 c 0,52,53
492 -34 m 1,66,-1
 338 53 l 1,67,-1
 1186 1440 l 1,68,-1
 1340 1352 l 1,69,-1
 492 -34 l 1,66,-1
EndSplineSet
EndChar

StartChar: ampersand
Encoding: 38 38 28
Width: 1597
GlyphClass: 2
Flags: W
LayerCount: 2
Fore
SplineSet
481 374 m 0,0,1
 481 136 481 136 690 136 c 0,2,3
 835 136 835 136 842 425 c 0,4,5
 843 466 843 466 843 502 c 2,6,-1
 843 680 l 1,7,-1
 671 680 l 2,8,9
 537 680 537 680 495 507 c 0,10,11
 481 450 481 450 481 374 c 0,0,1
114 1054 m 0,12,13
 114 1412 114 1412 770 1412 c 0,14,15
 935 1412 935 1412 1184 1361 c 1,16,-1
 1184 1006 l 1,17,-1
 933 1006 l 1,18,19
 913 1123 913 1123 856.5 1187.5 c 128,-1,20
 800 1252 800 1252 709 1252 c 0,21,22
 625 1252 625 1252 567 1198 c 0,23,24
 510 1145 510 1145 510 1068 c 0,25,26
 510 950 510 950 556 893.5 c 128,-1,27
 602 837 602 837 708 837 c 2,28,-1
 1497 837 l 1,29,-1
 1497 507 l 1,30,-1
 1371 507 l 1,31,32
 1371 628 1371 628 1271 668 c 0,33,34
 1240 680 1240 680 1201 680 c 1,35,-1
 1201 491 l 2,36,37
 1201 229 1201 229 1070.5 103.5 c 128,-1,38
 940 -22 940 -22 673 -22 c 0,39,40
 391 -22 391 -22 248 60 c 0,41,42
 77 157 77 157 77 377 c 0,43,44
 77 645 77 645 373 757 c 1,45,46
 114 836 114 836 114 1054 c 0,12,13
EndSplineSet
EndChar

StartChar: quotesingle
Encoding: 39 39 29
Width: 562
GlyphClass: 2
Flags: W
LayerCount: 2
Fore
SplineSet
110 1370 m 1,0,1
 178 1411 178 1411 292 1411 c 0,2,3
 408 1410 408 1410 440 1374 c 0,4,5
 452 1360 452 1360 452 1336 c 1,6,7
 404 908 404 908 402 891 c 1,8,9
 342 870 342 870 281 870 c 0,10,11
 169 870 169 870 154 957 c 1,12,-1
 110 1370 l 1,0,1
EndSplineSet
EndChar

StartChar: parenleft
Encoding: 40 40 30
Width: 733
GlyphClass: 2
Flags: W
LayerCount: 2
Fore
SplineSet
94 638 m 128,-1,1
 94 1186 94 1186 419 1469 c 1,2,3
 588 1462 588 1462 681 1418 c 1,4,5
 491 1108 491 1108 491 638 c 128,-1,6
 491 168 491 168 681 -142 c 1,7,8
 594 -186 594 -186 419 -193 c 1,9,0
 94 90 94 90 94 638 c 128,-1,1
EndSplineSet
EndChar

StartChar: parenright
Encoding: 41 41 31
Width: 734
GlyphClass: 2
Flags: W
LayerCount: 2
Fore
SplineSet
52 1418 m 1,0,1
 142 1462 142 1462 314 1469 c 1,2,3
 639 1186 639 1186 639 638 c 0,4,5
 639 240 639 240 460 -28 c 0,6,7
 399 -120 399 -120 314 -193 c 1,8,9
 136 -185 136 -185 52 -142 c 1,10,11
 242 168 242 168 242 638 c 128,-1,12
 242 1108 242 1108 52 1418 c 1,0,1
EndSplineSet
EndChar

StartChar: asterisk
Encoding: 42 42 32
Width: 882
GlyphClass: 2
Flags: W
LayerCount: 2
Fore
SplineSet
274 703 m 1,0,-1
 378 994 l 1,1,-1
 110 859 l 1,2,-1
 58 1014 l 1,3,-1
 354 1080 l 1,4,-1
 96 1269 l 1,5,-1
 216 1382 l 1,6,-1
 414 1139 l 1,7,-1
 444 1440 l 1,8,-1
 612 1409 l 1,9,-1
 505 1126 l 1,10,-1
 775 1252 l 1,11,-1
 824 1109 l 1,12,-1
 533 1041 l 1,13,-1
 785 833 l 1,14,-1
 653 727 l 1,15,-1
 468 982 l 1,16,-1
 441 660 l 1,17,-1
 274 703 l 1,0,-1
EndSplineSet
EndChar

StartChar: plus
Encoding: 43 43 33
Width: 1195
GlyphClass: 2
Flags: W
LayerCount: 2
Fore
SplineSet
536 1068 m 2,0,1
 615 1068 615 1068 660 1051.5 c 128,-1,2
 705 1035 705 1035 719 990 c 1,3,-1
 719 671 l 1,4,-1
 1088 671 l 1,5,-1
 1088 581 l 1,6,7
 1082 524 1082 524 1062 509 c 0,8,9
 1028 483 1028 483 954 483 c 2,10,-1
 719 483 l 1,11,-1
 719 85 l 1,12,-1
 610 85 l 2,13,14
 524 85 524 85 494 111 c 0,15,16
 480 123 480 123 478 139 c 0,17,18
 474 161 474 161 474 193 c 2,19,-1
 474 483 l 1,20,-1
 107 483 l 1,21,-1
 107 573 l 2,22,23
 107 666 107 666 207 670 c 0,24,25
 237 672 237 672 272 671 c 2,26,-1
 474 671 l 1,27,-1
 474 1068 l 1,28,-1
 536 1068 l 2,0,1
EndSplineSet
EndChar

StartChar: comma
Encoding: 44 44 34
Width: 658
GlyphClass: 2
Flags: W
LayerCount: 2
Fore
SplineSet
486.5 294 m 128,-1,1
 543 230 543 230 543 137.5 c 128,-1,2
 543 45 543 45 519 -19.5 c 128,-1,3
 495 -84 495 -84 448 -144 c 0,4,5
 360 -256 360 -256 168 -376 c 1,6,-1
 74 -283 l 1,7,8
 190 -172 190 -172 245 -15 c 1,9,10
 179 -1 179 -1 139.5 47 c 128,-1,11
 100 95 100 95 100 154 c 128,-1,12
 100 213 100 213 118 248 c 0,13,14
 136 284 136 284 166 308 c 0,15,16
 229 358 229 358 329.5 358 c 128,-1,0
 430 358 430 358 486.5 294 c 128,-1,1
EndSplineSet
EndChar

StartChar: hyphen
Encoding: 45 45 35
Width: 834
GlyphClass: 2
Flags: W
LayerCount: 2
Fore
SplineSet
793 571 m 2,0,1
 793 529 793 529 773.5 500 c 128,-1,2
 754 471 754 471 717 471 c 2,3,-1
 41 471 l 1,4,-1
 41 562 l 2,5,6
 42 613 42 613 60 626 c 0,7,8
 89 646 89 646 148 646 c 2,9,-1
 793 646 l 1,10,-1
 793 571 l 2,0,1
EndSplineSet
EndChar

StartChar: period
Encoding: 46 46 36
Width: 631
GlyphClass: 2
Flags: W
LayerCount: 2
Fore
SplineSet
515 167 m 0,0,1
 515 125 515 125 501 89.5 c 128,-1,2
 487 54 487 54 460.5 29.5 c 128,-1,3
 434 5 434 5 397 -8.5 c 128,-1,4
 360 -22 360 -22 315 -22 c 128,-1,5
 270 -22 270 -22 233 -8.5 c 0,6,7
 196 6 196 6 170 30 c 0,8,9
 116 80 116 80 115 169 c 0,10,11
 115 254 115 254 172 306 c 128,-1,12
 229 358 229 358 315 357.5 c 0,13,14
 400 357 400 357 458 303 c 0,15,16
 514 250 514 250 515 167 c 0,0,1
EndSplineSet
EndChar

StartChar: slash
Encoding: 47 47 37
Width: 906
GlyphClass: 2
Flags: W
LayerCount: 2
Fore
SplineSet
625 1331 m 2,0,1
 645 1373 645 1373 658 1385 c 0,2,3
 687 1412 687 1412 733 1412 c 2,4,-1
 906 1412 l 1,5,-1
 276 48 l 2,6,7
 259 12 259 12 235.5 -5 c 128,-1,8
 212 -22 212 -22 171 -22 c 2,9,-1
 0 -22 l 1,10,-1
 625 1331 l 2,0,1
EndSplineSet
EndChar

StartChar: zero
Encoding: 48 48 38
Width: 1329
GlyphClass: 2
Flags: W
LayerCount: 2
Fore
SplineSet
662 -22 m 0,0,1
 512 -22 512 -22 397 30.5 c 128,-1,2
 282 83 282 83 206 179 c 0,3,4
 56 370 56 370 56 704 c 0,5,6
 56 1040 56 1040 210 1224 c 0,7,8
 368 1412 368 1412 664 1412 c 0,9,10
 966 1412 966 1412 1122 1221 c 0,11,12
 1274 1036 1274 1036 1273 704 c 0,13,14
 1273 366 1273 366 1117 174 c 0,15,16
 957 -22 957 -22 662 -22 c 0,0,1
837.5 486.5 m 128,-1,18
 846 585 846 585 846 701.5 c 128,-1,19
 846 818 846 818 838.5 913.5 c 0,20,21
 830 1009 830 1009 810 1078 c 0,22,23
 767 1223 767 1223 666 1223 c 128,-1,24
 565 1223 565 1223 524 1095 c 128,-1,25
 483 967 483 967 483 704 c 0,26,27
 484 300 484 300 580 202 c 0,28,29
 614 167 614 167 666 167 c 128,-1,30
 718 167 718 167 753 206.5 c 128,-1,31
 788 246 788 246 808.5 317 c 128,-1,17
 829 388 829 388 837.5 486.5 c 128,-1,18
EndSplineSet
EndChar

StartChar: one
Encoding: 49 49 39
Width: 964
GlyphClass: 2
Flags: W
LayerCount: 2
Fore
SplineSet
88 1353 m 1,0,1
 292 1399 292 1399 490 1399 c 0,2,3
 588 1400 588 1400 621 1388 c 0,4,5
 690 1364 690 1364 690 1294 c 2,6,-1
 690 259 l 2,7,8
 690 215 690 215 695 167 c 1,9,-1
 883 167 l 1,10,-1
 883 -11 l 1,11,12
 637 0 637 0 486 0 c 128,-1,13
 335 0 335 0 69 -11 c 1,14,-1
 69 167 l 1,15,-1
 255 167 l 1,16,17
 261 194 261 194 261 259 c 2,18,-1
 261 1162 l 2,19,20
 261 1209 261 1209 257 1239 c 1,21,-1
 88 1239 l 1,22,-1
 88 1353 l 1,0,1
EndSplineSet
EndChar

StartChar: two
Encoding: 50 50 40
Width: 1271
GlyphClass: 2
Flags: W
LayerCount: 2
Fore
SplineSet
905 256 m 1,0,1
 956 338 956 338 1016 477 c 1,2,-1
 1195 460 l 1,3,4
 1191 189 1191 189 1181 12 c 1,5,6
 1061 0 1061 0 827 0 c 2,7,-1
 195 0 l 2,8,9
 121 0 121 0 98 20 c 0,10,11
 62 51 62 51 62 123 c 0,12,13
 62 150 62 150 65 185 c 1,14,15
 577 654 577 654 655 746 c 0,16,17
 755 864 755 864 755 1040 c 0,18,19
 755 1133 755 1133 718.5 1189 c 128,-1,20
 682 1245 682 1245 608 1245 c 0,21,22
 489 1244 489 1244 400 1064 c 0,23,24
 372 1008 372 1008 353 939 c 1,25,-1
 70 1123 l 1,26,27
 72 1247 72 1247 231.5 1329.5 c 128,-1,28
 391 1412 391 1412 623 1412 c 0,29,30
 1005 1412 1005 1412 1116 1190 c 0,31,32
 1155 1112 1155 1112 1155 1022 c 128,-1,33
 1155 932 1155 932 1124 854 c 128,-1,34
 1093 776 1093 776 1017 686 c 0,35,36
 858 497 858 497 489 258 c 1,37,38
 668 258 668 258 772.5 258 c 128,-1,39
 877 258 877 258 905 256 c 1,0,1
EndSplineSet
EndChar

StartChar: three
Encoding: 51 51 41
Width: 1218
GlyphClass: 2
Flags: W
LayerCount: 2
Fore
SplineSet
46 1146 m 1,0,1
 166 1350 166 1350 394 1396 c 0,2,3
 474 1412 474 1412 577 1412 c 128,-1,4
 680 1412 680 1412 775.5 1391 c 0,5,6
 872 1370 872 1370 942 1326 c 0,7,8
 1094 1233 1094 1233 1093 1062 c 0,9,10
 1092 874 1092 874 902 798 c 0,11,12
 844 775 844 775 778 761 c 1,13,14
 944 739 944 739 1041 637 c 0,15,16
 1142 532 1142 532 1142 371 c 0,17,18
 1142 186 1142 186 986 76 c 0,19,20
 832 -32 832 -32 576 -32.5 c 128,-1,21
 320 -33 320 -33 85 80 c 1,22,-1
 85 430 l 1,23,-1
 294 411 l 1,24,25
 352 148 352 148 531 148 c 0,26,27
 631 148 631 148 682.5 210 c 128,-1,28
 734 272 734 272 734 381 c 0,29,30
 734 639 734 639 458 639 c 2,31,-1
 307 639 l 1,32,-1
 317 799 l 1,33,-1
 431 808 l 1,34,35
 554 816 554 816 656 896 c 0,36,37
 762 978 762 978 762 1075 c 0,38,39
 762 1144 762 1144 706 1185 c 0,40,41
 655 1223 655 1223 591.5 1223 c 128,-1,42
 528 1223 528 1223 485.5 1207.5 c 128,-1,43
 443 1192 443 1192 407 1162 c 0,44,45
 329 1096 329 1096 298 979 c 1,46,-1
 46 1146 l 1,0,1
EndSplineSet
EndChar

StartChar: four
Encoding: 52 52 42
Width: 1269
GlyphClass: 2
Flags: W
LayerCount: 2
Fore
SplineSet
1175 -11 m 1,0,1
 937 0 937 0 802.5 0 c 128,-1,2
 668 0 668 0 384 -11 c 1,3,-1
 384 167 l 1,4,-1
 570 167 l 1,5,6
 576 194 576 194 576 259 c 2,7,-1
 576 349 l 1,8,-1
 112 349 l 1,9,10
 22 501 22 501 22 597 c 1,11,-1
 562 1388 l 1,12,-1
 628 1387 l 1,13,14
 736 1387 736 1387 803.5 1387 c 128,-1,15
 871 1387 871 1387 896.5 1384 c 128,-1,16
 922 1381 922 1381 941 1371 c 0,17,18
 982 1349 982 1349 982 1289 c 2,19,-1
 982 520 l 1,20,-1
 1237 520 l 1,21,-1
 1237 434 l 2,22,23
 1237 349 1237 349 1112 349 c 2,24,-1
 982 349 l 1,25,-1
 982 259 l 2,26,27
 982 215 982 215 987 167 c 1,28,-1
 1175 167 l 1,29,-1
 1175 -11 l 1,0,1
576 520 m 1,30,-1
 576 1074 l 1,31,-1
 206 520 l 1,32,-1
 576 520 l 1,30,-1
EndSplineSet
EndChar

StartChar: five
Encoding: 53 53 43
Width: 1199
GlyphClass: 2
Flags: W
LayerCount: 2
Fore
SplineSet
562 1387 m 1,0,-1
 676 1387 l 2,1,2
 766 1387 766 1387 1008 1421 c 1,3,-1
 1016 1267 l 1,4,5
 980 1217 980 1217 930 1202 c 0,6,7
 852 1177 852 1177 728 1177 c 128,-1,8
 604 1177 604 1177 474 1190 c 1,9,-1
 474 862 l 1,10,11
 592 903 592 903 690 903 c 128,-1,12
 788 903 788 903 865.5 869.5 c 0,13,14
 944 836 944 836 998 777 c 0,15,16
 1112 654 1112 654 1111 468 c 0,17,18
 1111 224 1111 224 937 94 c 0,19,20
 780 -23 780 -23 542 -22.5 c 128,-1,21
 304 -22 304 -22 74 83 c 1,22,-1
 74 437 l 1,23,-1
 288 417 l 1,24,25
 305 302 305 302 326 204 c 1,26,27
 420 166 420 166 488 166 c 0,28,29
 698 166 698 166 698 449 c 0,30,31
 698 702 698 702 541 702 c 0,32,33
 451 702 451 702 312 621 c 1,34,35
 257 636 257 636 98 669 c 1,36,-1
 98 1310 l 1,37,38
 144 1354 144 1354 209 1371 c 128,-1,39
 274 1388 274 1388 349 1388 c 2,40,-1
 455 1388 l 1,41,-1
 562 1387 l 1,0,-1
EndSplineSet
EndChar

StartChar: six
Encoding: 54 54 44
Width: 1260
GlyphClass: 2
Flags: W
LayerCount: 2
Fore
SplineSet
674 675 m 1,0,1
 618 675 618 675 498 607 c 1,2,-1
 498 531 l 1,3,-1
 499 464 l 1,4,-1
 499 452 l 2,5,6
 498 238 498 238 586 170 c 0,7,8
 614 148 614 148 651 148 c 0,9,10
 711 148 711 148 748.5 217 c 128,-1,11
 786 286 786 286 786 421 c 0,12,13
 786 539 786 539 771 584 c 0,14,15
 743 669 743 669 674 675 c 1,0,1
715 1412 m 0,16,17
 992 1412 992 1412 1118 1335 c 1,18,-1
 1118 963 l 1,19,-1
 886 963 l 1,20,-1
 854 1209 l 1,21,22
 746 1223 746 1223 698.5 1223 c 128,-1,23
 651 1223 651 1223 618.5 1204.5 c 128,-1,24
 586 1186 586 1186 566 1155 c 0,25,26
 520 1081 520 1081 496 802 c 1,27,28
 637 866 637 866 755 866 c 128,-1,29
 873 866 873 866 953 834 c 0,30,31
 1032 802 1032 802 1088 744 c 0,32,33
 1202 625 1202 625 1202 423 c 0,34,35
 1202 226 1202 226 1047 102 c 0,36,37
 891 -22 891 -22 641 -22 c 0,38,39
 210 -22 210 -22 108 342 c 0,40,41
 74 462 74 462 74 620 c 0,42,43
 74 1006 74 1006 234.5 1209 c 128,-1,44
 395 1412 395 1412 715 1412 c 0,16,17
EndSplineSet
EndChar

StartChar: seven
Encoding: 55 55 45
Width: 1243
GlyphClass: 2
Flags: W
LayerCount: 2
Fore
SplineSet
72 1348 m 1,0,1
 262 1387 262 1387 390 1387 c 2,2,-1
 1161 1387 l 1,3,4
 1188 1367 1188 1367 1188 1296 c 2,5,-1
 1188 1209 l 1,6,-1
 765 185 l 2,7,8
 724 86 724 86 662 40 c 0,9,10
 593 -11 593 -11 499.5 -11 c 128,-1,11
 406 -11 406 -11 358 3 c 128,-1,12
 310 17 310 17 283 56 c 1,13,14
 283 58 283 58 294 80 c 2,15,-1
 835 1197 l 1,16,-1
 467 1197 l 2,17,18
 441 1197 441 1197 354 1192 c 1,19,20
 348 1144 348 1144 348 1125 c 2,21,-1
 341 930 l 1,22,-1
 127 930 l 1,23,-1
 72 1348 l 1,0,1
EndSplineSet
EndChar

StartChar: eight
Encoding: 56 56 46
Width: 1219
GlyphClass: 2
Flags: W
LayerCount: 2
Fore
SplineSet
631 807 m 1,0,1
 722 862 722 862 722 1037 c 0,2,3
 722 1168 722 1168 653 1210 c 0,4,5
 630 1224 630 1224 598.5 1224 c 128,-1,6
 567 1224 567 1224 544 1210 c 128,-1,7
 521 1196 521 1196 506 1172 c 0,8,9
 476 1123 476 1123 476 1037 c 0,10,11
 476 872 476 872 631 807 c 1,0,1
489.5 221 m 128,-1,13
 527 167 527 167 601 167 c 128,-1,14
 675 167 675 167 714.5 218 c 128,-1,15
 754 269 754 269 754 363 c 128,-1,16
 754 457 754 457 701.5 521 c 128,-1,17
 649 585 649 585 561 608 c 1,18,19
 452 532 452 532 452 362 c 0,20,12
 452 275 452 275 489.5 221 c 128,-1,13
49 333 m 0,21,22
 49 564 49 564 322 707 c 1,23,24
 205 769 205 769 158 824 c 0,25,26
 69 927 69 927 69 1048 c 0,27,28
 68 1206 68 1206 214 1308 c 0,29,30
 362 1412 362 1412 599 1412 c 0,31,32
 825 1412 825 1412 972 1315 c 0,33,34
 1124 1214 1124 1214 1124 1044 c 128,-1,35
 1124 874 1124 874 880 712 c 1,36,37
 1072 638 1072 638 1144 486 c 0,38,39
 1169 434 1169 434 1169 351.5 c 128,-1,40
 1169 269 1169 269 1124.5 194 c 128,-1,41
 1080 119 1080 119 1002 71 c 0,42,43
 852 -22 852 -22 599 -22 c 0,44,45
 360 -22 360 -22 210 68 c 0,46,47
 49 165 49 165 49 333 c 0,21,22
EndSplineSet
EndChar

StartChar: nine
Encoding: 57 57 47
Width: 1260
GlyphClass: 2
Flags: W
LayerCount: 2
Fore
SplineSet
762 753 m 1,0,1
 763 838 l 1,2,3
 763 1040 763 1040 741 1105.5 c 128,-1,4
 719 1171 719 1171 688.5 1197 c 128,-1,5
 658 1223 658 1223 603.5 1223 c 128,-1,6
 549 1223 549 1223 511.5 1159 c 128,-1,7
 474 1095 474 1095 474 969 c 0,8,9
 474 851 474 851 488 805 c 128,-1,10
 502 759 502 759 524.5 737 c 128,-1,11
 547 715 547 715 592 715 c 128,-1,12
 637 715 637 715 762 753 c 1,0,1
1033.5 181 m 128,-1,14
 881 -22 881 -22 574.5 -22 c 128,-1,15
 268 -22 268 -22 152 55 c 1,16,-1
 152 427 l 1,17,-1
 384 427 l 1,18,-1
 416 190 l 1,19,20
 505 167 505 167 567.5 167 c 128,-1,21
 630 167 630 167 668.5 206 c 128,-1,22
 707 245 707 245 725.5 306.5 c 128,-1,23
 744 368 744 368 750.5 442.5 c 128,-1,24
 757 517 757 517 764 588 c 1,25,26
 623 524 623 524 505 524 c 128,-1,27
 387 524 387 524 307 556 c 0,28,29
 228 588 228 588 172 646 c 0,30,31
 58 765 58 765 58 967 c 0,32,33
 58 1164 58 1164 213 1288 c 0,34,35
 369 1412 369 1412 619 1412 c 0,36,37
 1050 1412 1050 1412 1152 1047 c 0,38,39
 1186 927 1186 927 1186 770 c 0,40,13
 1186 384 1186 384 1033.5 181 c 128,-1,14
EndSplineSet
EndChar

StartChar: colon
Encoding: 58 58 48
Width: 636
GlyphClass: 2
Flags: W
LayerCount: 2
Fore
SplineSet
515 167 m 0,0,1
 515 125 515 125 501 89.5 c 128,-1,2
 487 54 487 54 460.5 29.5 c 128,-1,3
 434 5 434 5 397 -8.5 c 128,-1,4
 360 -22 360 -22 315 -22 c 128,-1,5
 270 -22 270 -22 233 -8.5 c 0,6,7
 196 6 196 6 170 30 c 0,8,9
 116 80 116 80 115 169 c 0,10,11
 115 254 115 254 172 306 c 128,-1,12
 229 358 229 358 315 357.5 c 0,13,14
 400 357 400 357 458 303 c 0,15,16
 514 250 514 250 515 167 c 0,0,1
520 815 m 0,17,18
 520 773 520 773 506 737.5 c 128,-1,19
 492 702 492 702 465.5 677.5 c 128,-1,20
 439 653 439 653 402 639.5 c 128,-1,21
 365 626 365 626 320 626 c 128,-1,22
 275 626 275 626 238 639.5 c 0,23,24
 200 654 200 654 174 678 c 0,25,26
 120 728 120 728 120 817 c 0,27,28
 120 902 120 902 177 954 c 128,-1,29
 234 1006 234 1006 320 1005 c 0,30,31
 405 1005 405 1005 463 951 c 0,32,33
 520 898 520 898 520 815 c 0,17,18
EndSplineSet
EndChar

StartChar: semicolon
Encoding: 59 59 49
Width: 642
GlyphClass: 2
Flags: W
LayerCount: 2
Fore
SplineSet
486.5 219 m 128,-1,1
 543 155 543 155 543 62 c 128,-1,2
 543 -31 543 -31 519 -96 c 0,3,4
 496 -161 496 -161 448 -221 c 0,5,6
 360 -333 360 -333 168 -451 c 1,7,-1
 74 -358 l 1,8,9
 190 -247 190 -247 245 -90 c 1,10,11
 179 -76 179 -76 139.5 -28 c 128,-1,12
 100 20 100 20 100 79 c 128,-1,13
 100 138 100 138 118 173 c 128,-1,14
 136 208 136 208 166 232 c 0,15,16
 229 282 229 282 329.5 282.5 c 128,-1,0
 430 283 430 283 486.5 219 c 128,-1,1
513 815 m 0,17,18
 513 773 513 773 499 737.5 c 128,-1,19
 485 702 485 702 458.5 677.5 c 128,-1,20
 432 653 432 653 395 639.5 c 128,-1,21
 358 626 358 626 313 626 c 128,-1,22
 268 626 268 626 231 639.5 c 0,23,24
 194 654 194 654 168 678 c 0,25,26
 114 728 114 728 113 817 c 0,27,28
 113 902 113 902 170 954 c 128,-1,29
 227 1006 227 1006 313 1005.5 c 0,30,31
 398 1005 398 1005 456 951 c 0,32,33
 512 898 512 898 513 815 c 0,17,18
EndSplineSet
EndChar

StartChar: less
Encoding: 60 60 50
Width: 1454
GlyphClass: 2
Flags: W
LayerCount: 2
Fore
SplineSet
518 544 m 1,0,1
 1062 293 1062 293 1346 167 c 1,2,-1
 1329 100 l 1,3,4
 1321 79 1321 79 1219 0 c 1,5,6
 1145 22 1145 22 751 201.5 c 128,-1,7
 357 381 357 381 107 495 c 1,8,-1
 107 597 l 1,9,10
 1101 1041 1101 1041 1221 1089 c 1,11,12
 1320 1012 1320 1012 1328 992 c 1,13,-1
 1347 925 l 1,14,-1
 518 544 l 1,0,1
EndSplineSet
EndChar

StartChar: equal
Encoding: 61 61 51
Width: 1361
GlyphClass: 2
Flags: W
LayerCount: 2
Fore
SplineSet
104 301 m 1,0,-1
 104 390 l 2,1,2
 104 456 104 456 144 474 c 0,3,4
 177 488 177 488 289 488 c 2,5,-1
 1257 488 l 1,6,-1
 1257 399 l 2,7,8
 1257 366 1257 366 1226.5 343.5 c 128,-1,9
 1196 321 1196 321 1130 301 c 1,10,-1
 104 301 l 1,0,-1
1257 764 m 2,11,12
 1258 710 1258 710 1182 682 c 0,13,14
 1160 674 1160 674 1134 665 c 1,15,-1
 104 665 l 1,16,-1
 104 755 l 2,17,18
 104 839 104 839 192 849 c 0,19,20
 218 852 218 852 250 852 c 2,21,-1
 1257 852 l 1,22,-1
 1257 764 l 2,11,12
EndSplineSet
EndChar

StartChar: greater
Encoding: 62 62 52
Width: 1453
GlyphClass: 2
Flags: W
LayerCount: 2
Fore
SplineSet
233 1089 m 1,0,1
 353 1041 353 1041 1347 597 c 1,2,-1
 1347 495 l 1,3,4
 326 28 326 28 235 0 c 1,5,6
 133 79 133 79 125 100 c 1,7,-1
 108 167 l 1,8,9
 190 203 190 203 240 226 c 128,-1,10
 290 249 290 249 350.5 276.5 c 128,-1,11
 411 304 411 304 494 342 c 128,-1,12
 577 380 577 380 686 429.5 c 128,-1,13
 795 479 795 479 936 544 c 1,14,-1
 107 925 l 1,15,-1
 126 992 l 1,16,17
 134 1012 134 1012 233 1089 c 1,0,1
EndSplineSet
EndChar

StartChar: question
Encoding: 63 63 53
Width: 1078
GlyphClass: 2
Flags: W
LayerCount: 2
Fore
SplineSet
448 272 m 0,0,1
 480 286 480 286 520 286 c 128,-1,2
 560 286 560 286 590.5 271.5 c 128,-1,3
 621 257 621 257 642 233 c 0,4,5
 685 184 685 184 685 118 c 0,6,7
 685 56 685 56 656 25 c 0,8,9
 604 -31 604 -31 525 -31 c 0,10,11
 441 -31 441 -31 394 18 c 0,12,13
 353 61 353 61 353 126 c 0,14,15
 354 230 354 230 448 272 c 0,0,1
614.5 576.5 m 128,-1,17
 611 552 611 552 611 480.5 c 128,-1,18
 611 409 611 409 618 360 c 1,19,-1
 456 360 l 1,20,21
 352 416 352 416 307 504 c 0,22,23
 291 536 291 536 291 570 c 128,-1,24
 291 604 291 604 303 635 c 0,25,26
 314 666 314 666 336 695 c 0,27,28
 369 739 369 739 427 792 c 128,-1,29
 485 845 485 845 510 875 c 0,30,31
 536 905 536 905 552 935 c 0,32,33
 586 996 586 996 585.5 1070 c 128,-1,34
 585 1144 585 1144 547.5 1184 c 128,-1,35
 510 1224 510 1224 446.5 1224 c 128,-1,36
 383 1224 383 1224 281 1198 c 1,37,-1
 281 1062 l 1,38,-1
 78 1062 l 1,39,-1
 78 1334 l 1,40,41
 316 1412 316 1412 446 1412 c 128,-1,42
 576 1412 576 1412 661.5 1389 c 0,43,44
 746 1366 746 1366 808 1321 c 0,45,46
 938 1226 938 1226 939 1058 c 0,47,48
 939 912 939 912 779 770 c 0,49,50
 731 728 731 728 694.5 697 c 128,-1,51
 658 666 658 666 645.5 651.5 c 128,-1,52
 633 637 633 637 625.5 619 c 128,-1,16
 618 601 618 601 614.5 576.5 c 128,-1,17
EndSplineSet
EndChar

StartChar: at
Encoding: 64 64 54
Width: 1746
GlyphClass: 2
Flags: W
LayerCount: 2
Fore
SplineSet
1102 891 m 1,0,1
 1084 973 1084 973 1001 973 c 0,2,3
 896 973 896 973 806 833 c 0,4,5
 717 696 717 696 717 531 c 0,6,7
 717 407 717 407 790 364 c 0,8,9
 814 350 814 350 850 350 c 128,-1,10
 886 350 886 350 916.5 370 c 128,-1,11
 947 390 947 390 969 421 c 0,12,13
 1022 495 1022 495 1072 727 c 0,14,15
 1090 810 1090 810 1102 891 c 1,0,1
976 1092 m 0,16,17
 1084 1092 1084 1092 1141 996 c 1,18,-1
 1206 1055 l 1,19,20
 1287 1046 1287 1046 1320 1021 c 1,21,22
 1296 946 1296 946 1267 807.5 c 0,23,24
 1238 668 1238 668 1228 626 c 0,25,26
 1200 503 1200 503 1200.5 449.5 c 128,-1,27
 1201 396 1201 396 1221.5 370.5 c 128,-1,28
 1242 345 1242 345 1287 345 c 128,-1,29
 1332 345 1332 345 1376 376 c 0,30,31
 1420 406 1420 406 1456 462 c 0,32,33
 1538 589 1538 589 1537 764 c 0,34,35
 1537 1002 1537 1002 1370 1160 c 0,36,37
 1202 1318 1202 1318 940 1319 c 0,38,39
 662 1319 662 1319 478 1126 c 0,40,41
 290 929 290 929 290 619 c 0,42,43
 290 332 290 332 475 147 c 128,-1,44
 660 -38 660 -38 932.5 -38 c 128,-1,45
 1205 -38 1205 -38 1444 108 c 1,46,-1
 1497 10 l 1,47,48
 1222 -166 1222 -166 931 -166 c 0,49,50
 688 -166 688 -166 488 -58 c 0,51,52
 300 44 300 44 192 226 c 0,53,54
 84 406 84 406 84 626 c 0,55,56
 84 986 84 986 333.5 1219 c 128,-1,57
 583 1452 583 1452 942 1452 c 0,58,59
 1272 1452 1272 1452 1478 1258 c 0,60,61
 1682 1065 1682 1065 1682 759 c 0,62,63
 1682 533 1682 533 1554 371 c 0,64,65
 1496 298 1496 298 1422 256.5 c 128,-1,66
 1348 215 1348 215 1269 215 c 0,67,68
 1108 215 1108 215 1046 368 c 1,69,70
 943 215 943 215 787 215 c 0,71,72
 656 216 656 216 581 302 c 0,73,74
 507 387 507 387 507 531 c 0,75,76
 507 785 507 785 657 945 c 0,77,78
 795 1092 795 1092 976 1092 c 0,16,17
EndSplineSet
EndChar

StartChar: A
Encoding: 65 65 55
Width: 1668
GlyphClass: 2
Flags: W
LayerCount: 2
Fore
SplineSet
932 543 m 1,0,-1
 803 1006 l 1,1,-1
 799 1006 l 1,2,-1
 668 543 l 1,3,-1
 932 543 l 1,0,-1
1668 -11 m 1,4,-1
 1317 0 l 1,5,6
 1283 0 1283 0 1233.5 -1.5 c 128,-1,7
 1184 -3 1184 -3 1117 -5 c 2,8,-1
 956 -11 l 1,9,-1
 956 113 l 1,10,11
 975 116 975 116 992 117 c 0,12,13
 1010 118 1010 118 1022 121 c 0,14,15
 1048 127 1048 127 1048 151 c 0,16,17
 1048 159 1048 159 1044 173 c 2,18,-1
 974 390 l 1,19,-1
 638 390 l 1,20,-1
 598 256 l 1,21,22
 584 214 584 214 584 186 c 128,-1,23
 584 158 584 158 592 149 c 128,-1,24
 600 140 600 140 613 134 c 0,25,26
 632 125 632 125 681 118 c 1,27,-1
 656 -11 l 1,28,29
 449 8 449 8 253.5 1 c 128,-1,30
 58 -6 58 -6 7 -11 c 1,31,-1
 44 122 l 1,32,-1
 70 126 l 2,33,34
 133 136 133 136 154 156 c 0,35,36
 180 181 180 181 207 250 c 0,37,38
 369 682 369 682 651 1387 c 1,39,-1
 834 1387 l 2,40,41
 992 1387 992 1387 1044 1346 c 0,42,43
 1066 1329 1066 1329 1076 1301 c 0,44,45
 1243 853 1243 853 1301 695 c 128,-1,46
 1359 537 1359 537 1390 453 c 128,-1,47
 1421 369 1421 369 1442 313 c 128,-1,48
 1463 257 1463 257 1475 224.5 c 128,-1,49
 1487 192 1487 192 1493 176 c 0,50,51
 1502 151 1502 151 1502 148 c 1,52,-1
 1642 128 l 1,53,-1
 1668 -11 l 1,4,-1
EndSplineSet
EndChar

StartChar: B
Encoding: 66 66 56
Width: 1493
GlyphClass: 2
Flags: W
LayerCount: 2
Fore
SplineSet
708 1211 m 1,0,-1
 688 1210 l 1,1,-1
 688 772 l 1,2,-1
 738 772 l 2,3,4
 850 772 850 772 909.5 830 c 128,-1,5
 969 888 969 888 969 998.5 c 128,-1,6
 969 1109 969 1109 918.5 1160 c 128,-1,7
 868 1211 868 1211 759 1211 c 0,8,9
 734 1211 734 1211 708 1211 c 1,0,-1
807 162 m 0,10,11
 998 162 998 162 998 375 c 0,12,13
 998 502 998 502 933 556 c 0,14,15
 870 608 870 608 729 609 c 1,16,-1
 688 608 l 1,17,-1
 688 167 l 1,18,19
 775 162 775 162 807 162 c 0,10,11
50 1364 m 1,20,21
 426 1387 426 1387 801 1387 c 0,22,23
 1401 1387 1401 1387 1401 1006 c 0,24,25
 1401 865 1401 865 1259 762 c 0,26,27
 1212 728 1212 728 1151 703 c 1,28,29
 1434 625 1434 625 1434 382 c 0,30,31
 1434 147 1434 147 1223 58 c 0,32,33
 1062 -10 1062 -10 707.5 -10 c 128,-1,34
 353 -10 353 -10 64 11 c 1,35,-1
 64 167 l 1,36,-1
 206 167 l 2,37,38
 255 167 255 167 258 236 c 0,39,40
 259 256 259 256 259 278 c 2,41,-1
 259 1092 l 2,42,43
 259 1159 259 1159 252 1197 c 1,44,-1
 50 1197 l 1,45,-1
 50 1364 l 1,20,21
EndSplineSet
EndChar

StartChar: C
Encoding: 67 67 57
Width: 1477
GlyphClass: 2
Flags: W
LayerCount: 2
Fore
SplineSet
869 158 m 0,0,1
 1069 158 1069 158 1269 251 c 0,2,3
 1327 278 1327 278 1386 308 c 1,4,-1
 1411 112 l 1,5,6
 1160 -35 1160 -35 843 -35 c 0,7,8
 487 -34 487 -34 287 148 c 0,9,10
 84 333 84 333 84 660 c 0,11,12
 84 1024 84 1024 290 1219 c 0,13,14
 494 1412 494 1412 865 1412 c 0,15,16
 1034 1412 1034 1412 1127 1390 c 0,17,18
 1285 1353 1285 1353 1395 1284 c 1,19,-1
 1331 990 l 1,20,-1
 1028 1032 l 1,21,-1
 1007 1222 l 1,22,23
 936 1240 936 1240 875 1240 c 0,24,25
 713 1240 713 1240 625 1107.5 c 128,-1,26
 537 975 537 975 537 707 c 0,27,28
 537 158 537 158 869 158 c 0,0,1
EndSplineSet
EndChar

StartChar: D
Encoding: 68 68 58
Width: 1675
GlyphClass: 2
Flags: W
LayerCount: 2
Fore
SplineSet
768 1211 m 1,0,-1
 726 1210 l 1,1,-1
 683 1210 l 1,2,-1
 683 171 l 1,3,4
 692 170 692 170 700 170 c 2,5,-1
 717 170 l 2,6,7
 1058 170 1058 170 1120 473 c 0,8,9
 1140 569 1140 569 1140 688.5 c 128,-1,10
 1140 808 1140 808 1125.5 904.5 c 128,-1,11
 1111 1001 1111 1001 1071 1069 c 0,12,13
 987 1211 987 1211 778 1211 c 2,14,-1
 768 1211 l 1,0,-1
248 151 m 1,15,16
 254 214 254 214 254 278 c 2,17,-1
 254 1093 l 2,18,19
 254 1161 254 1161 245 1206 c 1,20,-1
 50 1206 l 1,21,-1
 50 1366 l 1,22,23
 389 1387 389 1387 813 1387 c 0,24,25
 1395 1387 1395 1387 1541 999 c 0,26,27
 1591 866 1591 866 1591 683 c 128,-1,28
 1591 500 1591 500 1533 371 c 128,-1,29
 1475 242 1475 242 1369 160 c 0,30,31
 1164 0 1164 0 786 0 c 2,32,-1
 58 0 l 1,33,-1
 58 151 l 1,34,-1
 248 151 l 1,15,16
EndSplineSet
EndChar

StartChar: E
Encoding: 69 69 59
Width: 1443
GlyphClass: 2
Flags: W
LayerCount: 2
Fore
SplineSet
262 1111 m 2,0,1
 262 1161 262 1161 257 1203 c 1,2,-1
 50 1203 l 1,3,-1
 50 1363 l 1,4,5
 420 1387 420 1387 640 1387 c 0,6,7
 954 1387 954 1387 1269 1387 c 1,8,-1
 1329 1388 l 1,9,-1
 1384 1066 l 1,10,-1
 1161 1038 l 1,11,12
 1151 1120 1151 1120 1120 1185 c 1,13,14
 994 1203 994 1203 908 1203 c 2,15,-1
 691 1203 l 1,16,-1
 691 777 l 1,17,-1
 864 777 l 2,18,19
 907 777 907 777 923 869 c 0,20,21
 927 892 927 892 932 911 c 1,22,-1
 1083 911 l 1,23,-1
 1083 476 l 1,24,25
 1069 475 1069 475 1055 475 c 0,26,27
 993 475 993 475 932 475 c 1,28,29
 908 597 908 597 884 613 c 0,30,31
 876 619 876 619 864 619 c 2,32,-1
 691 619 l 1,33,-1
 691 167 l 1,34,-1
 971 167 l 2,35,36
 1053 167 1053 167 1092 180 c 1,37,38
 1103 212 1103 212 1124 361 c 1,39,40
 1188 359 1188 359 1252 359 c 2,41,-1
 1391 359 l 1,42,43
 1386 157 1386 157 1378 14 c 1,44,45
 1142 -1 1142 -1 996 -1 c 0,46,47
 702 -1 702 -1 408 -1 c 1,48,-1
 50 1 l 1,49,-1
 50 167 l 1,50,-1
 257 167 l 1,51,52
 262 209 262 209 262 245 c 2,53,-1
 262 1111 l 2,0,1
EndSplineSet
EndChar

StartChar: F
Encoding: 70 70 60
Width: 1283
GlyphClass: 2
Flags: W
LayerCount: 2
Fore
SplineSet
232 1111 m 2,0,1
 232 1165 232 1165 227 1203 c 1,2,-1
 50 1203 l 1,3,-1
 50 1365 l 1,4,5
 384 1387 384 1387 520 1387 c 0,6,7
 720 1387 720 1387 920 1387 c 2,8,-1
 1316 1386 l 1,9,-1
 1351 1046 l 1,10,-1
 1128 1028 l 1,11,12
 1116 1088 1116 1088 1091 1193 c 1,13,14
 1021 1203 1021 1203 985 1203 c 2,15,-1
 661 1203 l 1,16,-1
 661 777 l 1,17,-1
 862 777 l 2,18,19
 905 777 905 777 921 869 c 0,20,21
 925 892 925 892 930 911 c 1,22,-1
 1081 911 l 1,23,-1
 1081 476 l 1,24,-1
 1041 475 l 1,25,26
 985 475 985 475 930 475 c 1,27,28
 906 597 906 597 882 613 c 0,29,30
 874 619 874 619 862 619 c 2,31,-1
 661 619 l 1,32,-1
 661 259 l 2,33,34
 661 215 661 215 666 167 c 1,35,-1
 824 167 l 1,36,-1
 824 -11 l 1,37,38
 597 0 597 0 453.5 0 c 128,-1,39
 310 0 310 0 50 -11 c 1,40,-1
 50 167 l 1,41,-1
 226 167 l 1,42,43
 232 194 232 194 232 259 c 2,44,-1
 232 1111 l 2,0,1
EndSplineSet
EndChar

StartChar: G
Encoding: 71 71 61
Width: 1504
GlyphClass: 2
Flags: W
LayerCount: 2
Fore
SplineSet
903 1244 m 0,0,1
 543 1244 543 1244 543 682 c 0,2,3
 543 327 543 327 729 215 c 0,4,5
 792 177 792 177 881.5 177 c 128,-1,6
 971 177 971 177 1034 196 c 1,7,-1
 1034 405 l 2,8,9
 1034 472 1034 472 1027 499 c 1,10,-1
 814 499 l 1,11,-1
 814 624 l 1,12,13
 1106 661 1106 661 1414 661 c 2,14,-1
 1458 661 l 1,15,-1
 1458 136 l 1,16,17
 1210 -22 1210 -22 874 -22 c 0,18,19
 512 -22 512 -22 304 155 c 0,20,21
 91 337 91 337 91 662 c 0,22,23
 91 1038 91 1038 323 1230 c 0,24,25
 543 1412 543 1412 942 1412 c 0,26,27
 1166 1412 1166 1412 1358 1334 c 0,28,29
 1416 1310 1416 1310 1452 1283 c 1,30,-1
 1388 987 l 1,31,-1
 1083 1028 l 1,32,33
 1079 1085 1079 1085 1073.5 1135.5 c 128,-1,34
 1068 1186 1068 1186 1065 1220 c 1,35,36
 976 1244 976 1244 903 1244 c 0,0,1
EndSplineSet
EndChar

StartChar: H
Encoding: 72 72 62
Width: 1759
GlyphClass: 2
Flags: W
LayerCount: 2
Fore
SplineSet
827 -11 m 1,0,1
 600 0 600 0 456.5 0 c 128,-1,2
 313 0 313 0 53 -11 c 1,3,-1
 53 167 l 1,4,-1
 229 167 l 1,5,6
 235 194 235 194 235 259 c 2,7,-1
 235 1123 l 1,8,9
 231 1185 231 1185 227 1215 c 1,10,-1
 50 1215 l 1,11,-1
 50 1377 l 1,12,13
 260 1399 260 1399 466 1399 c 128,-1,14
 672 1399 672 1399 824 1383 c 1,15,-1
 824 1215 l 1,16,-1
 666 1215 l 1,17,18
 661 1175 661 1175 661 1139 c 2,19,-1
 661 805 l 1,20,-1
 1097 805 l 1,21,-1
 1097 1123 l 1,22,-1
 1089 1215 l 1,23,-1
 932 1215 l 1,24,-1
 932 1377 l 1,25,26
 1142 1399 1142 1399 1348 1399 c 128,-1,27
 1554 1399 1554 1399 1706 1383 c 1,28,-1
 1706 1215 l 1,29,-1
 1528 1215 l 1,30,31
 1523 1173 1523 1173 1523 1123 c 2,32,-1
 1523 259 l 1,33,34
 1527 205 1527 205 1531 167 c 1,35,-1
 1709 167 l 1,36,-1
 1709 -11 l 1,37,38
 1469 0 1469 0 1325 0 c 128,-1,39
 1181 0 1181 0 935 -11 c 1,40,-1
 935 167 l 1,41,-1
 1091 167 l 1,42,43
 1097 194 1097 194 1097 259 c 2,44,-1
 1097 623 l 1,45,-1
 664 623 l 1,46,-1
 664 259 l 2,47,48
 664 215 664 215 669 167 c 1,49,-1
 827 167 l 1,50,-1
 827 -11 l 1,0,1
EndSplineSet
EndChar

StartChar: I
Encoding: 73 73 63
Width: 906
GlyphClass: 2
Flags: W
LayerCount: 2
Fore
SplineSet
860 -11 m 1,0,1
 614 0 614 0 463 0 c 128,-1,2
 312 0 312 0 46 -11 c 1,3,-1
 46 167 l 1,4,-1
 232 167 l 1,5,6
 238 194 238 194 238 259 c 2,7,-1
 238 1123 l 2,8,9
 238 1177 238 1177 233 1215 c 1,10,-1
 46 1215 l 1,11,-1
 46 1377 l 1,12,13
 264 1399 264 1399 478 1399 c 128,-1,14
 692 1399 692 1399 860 1383 c 1,15,-1
 860 1215 l 1,16,-1
 672 1215 l 1,17,18
 667 1173 667 1173 667 1123 c 2,19,-1
 667 259 l 2,20,21
 667 215 667 215 672 167 c 1,22,-1
 860 167 l 1,23,-1
 860 -11 l 1,0,1
EndSplineSet
EndChar

StartChar: J
Encoding: 74 74 64
Width: 1015
GlyphClass: 2
Flags: W
LayerCount: 2
Fore
SplineSet
201 1378 m 1,0,1
 419 1400 419 1400 633 1400 c 128,-1,2
 847 1400 847 1400 1015 1384 c 1,3,-1
 1015 1216 l 1,4,-1
 827 1216 l 1,5,6
 823 1188 823 1188 823 1124 c 2,7,-1
 823 216 l 2,8,9
 823 -22 823 -22 701 -149 c 128,-1,10
 579 -276 579 -276 361.5 -276 c 128,-1,11
 144 -276 144 -276 16 -221 c 1,12,13
 16 -186 16 -186 30 -30 c 1,14,-1
 44 143 l 1,15,-1
 288 143 l 1,16,-1
 302 -93 l 1,17,18
 329 -105 329 -105 353 -105 c 0,19,20
 457 -105 457 -105 457 2 c 0,21,22
 457 65 457 65 438 130 c 2,23,-1
 403 250 l 2,24,25
 393 284 393 284 393 312 c 2,26,-1
 393 1124 l 2,27,28
 393 1178 393 1178 388 1216 c 1,29,-1
 201 1216 l 1,30,-1
 201 1378 l 1,0,1
EndSplineSet
EndChar

StartChar: K
Encoding: 75 75 65
Width: 1802
GlyphClass: 2
Flags: W
LayerCount: 2
Fore
SplineSet
864 -11 m 1,0,1
 618 0 618 0 467 0 c 128,-1,2
 316 0 316 0 50 -11 c 1,3,-1
 50 167 l 1,4,-1
 236 167 l 1,5,6
 242 194 242 194 242 259 c 2,7,-1
 242 1123 l 2,8,9
 242 1177 242 1177 237 1215 c 1,10,-1
 50 1215 l 1,11,-1
 50 1377 l 1,12,13
 268 1399 268 1399 482 1399 c 128,-1,14
 696 1399 696 1399 864 1383 c 1,15,-1
 864 1215 l 1,16,-1
 676 1215 l 1,17,18
 671 1173 671 1173 671 1123 c 2,19,-1
 671 259 l 2,20,21
 671 215 671 215 676 167 c 1,22,-1
 864 167 l 1,23,-1
 864 -11 l 1,0,1
1802 -11 m 1,24,25
 1589 0 1589 0 1458.5 0 c 128,-1,26
 1328 0 1328 0 998 -11 c 1,27,-1
 988 167 l 1,28,-1
 1065 167 l 1,29,30
 1060 178 1060 178 1057 187 c 128,-1,31
 1054 196 1054 196 1050 206 c 0,32,33
 1038 233 1038 233 1020 259 c 2,34,-1
 702 728 l 1,35,-1
 1082 1123 l 2,36,37
 1158 1201 1158 1201 1168 1215 c 1,38,-1
 981 1215 l 1,39,-1
 972 1377 l 1,40,41
 1208 1399 1208 1399 1360 1399 c 0,42,43
 1638 1399 1638 1399 1782 1383 c 1,44,-1
 1705 1215 l 1,45,-1
 1517 1215 l 1,46,47
 1495 1195 1495 1195 1421 1123 c 2,48,-1
 1125 832 l 1,49,-1
 1559 259 l 1,50,51
 1582 227 1582 227 1645 167 c 1,52,-1
 1753 167 l 1,53,-1
 1802 -11 l 1,24,25
EndSplineSet
EndChar

StartChar: L
Encoding: 76 76 66
Width: 1378
GlyphClass: 2
Flags: W
LayerCount: 2
Fore
SplineSet
50 1377 m 1,0,1
 268 1399 268 1399 482.5 1399 c 128,-1,2
 697 1399 697 1399 865 1383 c 1,3,-1
 865 1215 l 1,4,-1
 678 1215 l 1,5,6
 671 1186 671 1186 671 1129 c 2,7,-1
 671 167 l 1,8,-1
 900 167 l 2,9,10
 988 166 988 166 1022 258 c 0,11,12
 1030 282 1030 282 1038.5 310 c 128,-1,13
 1047 338 1047 338 1060 377.5 c 128,-1,14
 1073 417 1073 417 1089 471 c 1,15,-1
 1324 439 l 1,16,-1
 1282 0 l 1,17,-1
 861 0 l 2,18,19
 219 0 219 0 116 -12 c 1,20,-1
 116 167 l 1,21,-1
 238 167 l 1,22,23
 242 257 242 257 242 326 c 2,24,-1
 242 1129 l 2,25,26
 242 1175 242 1175 237 1215 c 1,27,-1
 50 1215 l 1,28,-1
 50 1377 l 1,0,1
EndSplineSet
EndChar

StartChar: M
Encoding: 77 77 67
Width: 2220
GlyphClass: 2
Flags: W
LayerCount: 2
Fore
SplineSet
153 1382 m 1,0,1
 410 1399 410 1399 541 1399 c 0,2,3
 737 1399 737 1399 833 1376 c 1,4,5
 892 1193 892 1193 992 903 c 128,-1,6
 1092 613 1092 613 1104 577 c 1,7,-1
 1274 1078 l 2,8,9
 1367 1351 1367 1351 1378 1376 c 1,10,11
 1470 1399 1470 1399 1635.5 1399 c 128,-1,12
 1801 1399 1801 1399 2058 1382 c 1,13,-1
 2058 1215 l 1,14,-1
 1865 1215 l 1,15,16
 1868 1178 1868 1178 1873.5 1121 c 128,-1,17
 1879 1064 1879 1064 1885.5 994 c 128,-1,18
 1892 924 1892 924 1899.5 845.5 c 128,-1,19
 1907 767 1907 767 1914.5 688.5 c 128,-1,20
 1922 610 1922 610 1929.5 536 c 128,-1,21
 1937 462 1937 462 1943 400 c 0,22,23
 1963 190 1963 190 1971 167 c 1,24,-1
 2156 167 l 1,25,-1
 2174 -16 l 1,26,27
 1833 14 1833 14 1408 -11 c 1,28,-1
 1420 167 l 1,29,-1
 1536 167 l 1,30,-1
 1483 757 l 1,31,32
 1380 394 1380 394 1263 2 c 1,33,-1
 894 2 l 1,34,35
 833 175 833 175 766.5 362 c 128,-1,36
 700 549 700 549 628 760 c 1,37,38
 616 649 616 649 605 544 c 128,-1,39
 594 439 594 439 584 347 c 128,-1,40
 574 255 574 255 566 167 c 1,41,-1
 754 167 l 1,42,-1
 736 -11 l 1,43,44
 516 0 516 0 383 0 c 128,-1,45
 250 0 250 0 50 -16 c 1,46,-1
 68 167 l 1,47,-1
 253 167 l 1,48,-1
 359 1151 l 2,49,50
 360 1156 360 1156 360 1162 c 2,51,-1
 360 1172 l 2,52,53
 360 1191 360 1191 357 1215 c 1,54,-1
 153 1215 l 1,55,-1
 153 1382 l 1,0,1
EndSplineSet
EndChar

StartChar: N
Encoding: 78 78 68
Width: 1736
GlyphClass: 2
Flags: W
LayerCount: 2
Fore
SplineSet
799 -13 m 1,0,1
 420 10 420 10 50 -13 c 1,2,-1
 50 167 l 1,3,-1
 256 167 l 1,4,5
 262 192 262 192 262 259 c 2,6,-1
 262 1123 l 2,7,8
 262 1173 262 1173 257 1215 c 1,9,-1
 50 1215 l 1,10,-1
 50 1370 l 1,11,12
 257 1399 257 1399 386 1399 c 0,13,14
 563 1399 563 1399 677 1377 c 1,15,16
 878 1069 878 1069 1202 595 c 1,17,-1
 1202 1123 l 2,18,19
 1202 1191 1202 1191 1194 1217 c 1,20,-1
 990 1217 l 1,21,-1
 990 1381 l 1,22,23
 1105 1399 1105 1399 1316.5 1399 c 128,-1,24
 1528 1399 1528 1399 1690 1386 c 1,25,-1
 1690 1217 l 1,26,-1
 1508 1217 l 1,27,28
 1503 1182 1503 1182 1503 1125 c 2,29,-1
 1503 0 l 1,30,-1
 1270 0 l 2,31,32
 1207 0 1207 0 1095 11 c 1,33,-1
 595 791 l 1,34,-1
 595 262 l 1,35,-1
 601 167 l 1,36,-1
 799 167 l 1,37,-1
 799 -13 l 1,0,1
EndSplineSet
EndChar

StartChar: O
Encoding: 79 79 69
Width: 1623
GlyphClass: 2
Flags: W
LayerCount: 2
Fore
SplineSet
1542 688 m 0,0,1
 1542 520 1542 520 1491 388 c 128,-1,2
 1440 256 1440 256 1345 165 c 0,3,4
 1150 -22 1150 -22 812 -22 c 0,5,6
 470 -22 470 -22 275 169 c 0,7,8
 81 359 81 359 81 689 c 0,9,10
 80 1030 80 1030 276 1222 c 0,11,12
 470 1412 470 1412 812 1412 c 0,13,14
 1154 1412 1154 1412 1349 1218 c 0,15,16
 1542 1026 1542 1026 1542 688 c 0,0,1
533 686 m 0,17,18
 533 167 533 167 812 167 c 0,19,20
 945 167 945 167 1018 295.5 c 128,-1,21
 1091 424 1091 424 1091 689.5 c 128,-1,22
 1091 955 1091 955 1019 1089 c 128,-1,23
 947 1223 947 1223 813.5 1223 c 128,-1,24
 680 1223 680 1223 606.5 1090 c 128,-1,25
 533 957 533 957 533 686 c 0,17,18
EndSplineSet
EndChar

StartChar: P
Encoding: 80 80 70
Width: 1426
GlyphClass: 2
Flags: W
LayerCount: 2
Fore
SplineSet
706 1215 m 2,0,-1
 693 1215 l 1,1,-1
 693 720 l 1,2,-1
 716 720 l 2,3,4
 835 720 835 720 887.5 781.5 c 128,-1,5
 940 843 940 843 940 970.5 c 128,-1,6
 940 1098 940 1098 885.5 1156.5 c 128,-1,7
 831 1215 831 1215 706 1215 c 2,0,-1
53 1379 m 1,8,9
 353 1399 353 1399 617.5 1399 c 128,-1,10
 882 1399 882 1399 997 1381 c 128,-1,11
 1112 1363 1112 1363 1196 1316 c 0,12,13
 1376 1216 1376 1216 1376 974 c 0,14,15
 1376 772 1376 772 1225.5 660.5 c 128,-1,16
 1075 549 1075 549 773 549 c 2,17,-1
 695 549 l 1,18,-1
 695 343 l 1,19,-1
 694 265 l 1,20,-1
 694 250 l 1,21,-1
 700 167 l 1,22,-1
 898 167 l 1,23,-1
 898 -13 l 1,24,25
 471 10 471 10 50 -13 c 1,26,-1
 50 167 l 1,27,-1
 256 167 l 1,28,29
 263 205 263 205 263 259 c 2,30,-1
 263 1128 l 2,31,32
 263 1180 263 1180 258 1215 c 1,33,-1
 53 1215 l 1,34,-1
 53 1379 l 1,8,9
EndSplineSet
EndChar

StartChar: Q
Encoding: 81 81 71
Width: 1702
GlyphClass: 2
Flags: W
LayerCount: 2
Fore
SplineSet
543 686 m 0,0,1
 543 167 543 167 822 167 c 0,2,3
 955 167 955 167 1028 295.5 c 128,-1,4
 1101 424 1101 424 1101 689.5 c 128,-1,5
 1101 955 1101 955 1029 1089 c 128,-1,6
 957 1223 957 1223 823.5 1223 c 128,-1,7
 690 1223 690 1223 616.5 1090 c 128,-1,8
 543 957 543 957 543 686 c 0,0,1
1611 -155 m 1,9,10
 1347 -248 1347 -248 1126 -248 c 0,11,12
 862 -248 862 -248 688 -102 c 0,13,14
 632 -54 632 -54 581 7 c 1,15,16
 348 68 348 68 221 242 c 0,17,18
 91 420 91 420 91 689 c 0,19,20
 90 1030 90 1030 286 1222 c 0,21,22
 480 1412 480 1412 822 1412 c 0,23,24
 1164 1412 1164 1412 1359 1218 c 0,25,26
 1552 1026 1552 1026 1552 689 c 0,27,28
 1552 290 1552 290 1279 104 c 0,29,30
 1192 44 1192 44 1082 12 c 1,31,32
 1146 -39 1146 -39 1238 -39 c 0,33,34
 1406 -39 1406 -39 1563 4 c 1,35,-1
 1611 -155 l 1,9,10
EndSplineSet
EndChar

StartChar: R
Encoding: 82 82 72
Width: 1571
GlyphClass: 2
Flags: W
LayerCount: 2
Fore
SplineSet
743 739 m 2,0,1
 954 739 954 739 954 983 c 0,2,3
 954 1108 954 1108 900 1162 c 128,-1,4
 846 1216 846 1216 721 1215 c 2,5,-1
 692 1215 l 1,6,-1
 692 739 l 1,7,-1
 743 739 l 2,0,1
835 -11 m 1,8,9
 622 0 622 0 483.5 0 c 128,-1,10
 345 0 345 0 88 -11 c 1,11,-1
 88 167 l 1,12,-1
 254 167 l 1,13,14
 260 194 260 194 260 259 c 2,15,-1
 260 1127 l 2,16,17
 260 1180 260 1180 255 1215 c 1,18,-1
 50 1215 l 1,19,-1
 50 1382 l 1,20,21
 411 1399 411 1399 609.5 1399 c 128,-1,22
 808 1399 808 1399 890.5 1393.5 c 128,-1,23
 973 1388 973 1388 1047 1372 c 128,-1,24
 1121 1356 1121 1356 1184 1327.5 c 0,25,26
 1246 1299 1246 1299 1292 1254 c 0,27,28
 1390 1158 1390 1158 1390 991 c 0,29,30
 1390 765 1390 765 1064 651 c 1,31,32
 1218 582 1218 582 1288 474 c 0,33,34
 1337 398 1337 398 1395 193 c 1,35,-1
 1563 193 l 1,36,-1
 1563 -1 l 1,37,38
 1501 -6 1501 -6 1438.5 -13 c 128,-1,39
 1376 -20 1376 -20 1300 -20 c 128,-1,40
 1224 -20 1224 -20 1163 5.5 c 128,-1,41
 1102 31 1102 31 1059.5 72.5 c 128,-1,42
 1017 114 1017 114 989 167 c 128,-1,43
 961 220 961 220 941.5 275.5 c 128,-1,44
 922 331 922 331 907 384.5 c 128,-1,45
 892 438 892 438 874 480 c 0,46,47
 835 573 835 573 777 572 c 2,48,-1
 692 572 l 1,49,-1
 692 259 l 2,50,51
 692 215 692 215 697 167 c 1,52,-1
 835 167 l 1,53,-1
 835 -11 l 1,8,9
EndSplineSet
EndChar

StartChar: S
Encoding: 83 83 73
Width: 1304
GlyphClass: 2
Flags: W
LayerCount: 2
Fore
SplineSet
668 1241 m 0,0,1
 504 1241 504 1241 504 1109 c 0,2,3
 504 1020 504 1020 559 966 c 0,4,5
 607 919 607 919 692 882 c 128,-1,6
 777 845 777 845 834.5 819.5 c 128,-1,7
 892 794 892 794 947 762.5 c 128,-1,8
 1002 731 1002 731 1052 694 c 0,9,10
 1102 656 1102 656 1140 612 c 0,11,12
 1222 516 1222 516 1222 410.5 c 128,-1,13
 1222 305 1222 305 1181.5 227.5 c 128,-1,14
 1141 150 1141 150 1065 94 c 0,15,16
 905 -23 905 -23 640 -22 c 0,17,18
 390 -22 390 -22 167 75 c 0,19,20
 105 102 105 102 64 130 c 1,21,-1
 144 436 l 1,22,-1
 420 383 l 1,23,24
 428 271 428 271 440 185 c 1,25,26
 540 162 540 162 610 162 c 0,27,28
 787 162 787 162 787 312 c 0,29,30
 787 413 787 413 715 471 c 0,31,32
 666 510 666 510 474 591 c 128,-1,33
 282 672 282 672 178.5 784 c 128,-1,34
 75 896 75 896 75 1032 c 0,35,36
 75 1206 75 1206 236 1308 c 0,37,38
 399 1412 399 1412 679 1412 c 0,39,40
 979 1412 979 1412 1160 1283 c 1,41,-1
 1098 990 l 1,42,-1
 795 1032 l 1,43,44
 791 1061 791 1061 787 1095.5 c 128,-1,45
 783 1130 783 1130 778 1162 c 128,-1,46
 773 1194 773 1194 768 1229 c 1,47,48
 708 1241 708 1241 668 1241 c 0,0,1
EndSplineSet
EndChar

StartChar: T
Encoding: 84 84 74
Width: 1438
GlyphClass: 2
Flags: W
LayerCount: 2
Fore
SplineSet
1128 -11 m 1,0,1
 882 0 882 0 729.5 0 c 128,-1,2
 577 0 577 0 311 -11 c 1,3,-1
 311 167 l 1,4,-1
 497 167 l 1,5,6
 503 194 503 194 503 259 c 2,7,-1
 503 1203 l 1,8,-1
 248 1203 l 1,9,10
 230 1071 230 1071 227 1011 c 1,11,-1
 25 1011 l 1,12,13
 16 1369 l 1,14,15
 68 1388 68 1388 294 1388 c 2,16,-1
 1144 1388 l 2,17,18
 1370 1388 1370 1388 1422 1369 c 1,19,-1
 1413 1011 l 1,20,-1
 1211 1011 l 1,21,22
 1209 1027 1209 1027 1207.5 1041.5 c 128,-1,23
 1206 1056 1206 1056 1204.5 1073.5 c 128,-1,24
 1203 1091 1203 1091 1201 1109 c 2,25,-1
 1191 1205 l 1,26,-1
 935 1205 l 1,27,-1
 935 259 l 2,28,29
 935 215 935 215 940 167 c 1,30,-1
 1128 167 l 1,31,-1
 1128 -11 l 1,0,1
EndSplineSet
EndChar

StartChar: U
Encoding: 85 85 75
Width: 1705
GlyphClass: 2
Flags: W
LayerCount: 2
Fore
SplineSet
947 1387 m 1,0,1
 1118 1399 1118 1399 1340 1399 c 128,-1,2
 1562 1399 1562 1399 1678 1387 c 1,3,-1
 1678 1215 l 1,4,-1
 1490 1215 l 1,5,6
 1485 1173 1485 1173 1485 1123 c 2,7,-1
 1485 514 l 2,8,9
 1485 244 1485 244 1294 103 c 0,10,11
 1125 -22 1125 -22 828 -22 c 0,12,13
 219 -22 219 -22 219 578 c 2,14,-1
 219 1123 l 2,15,16
 219 1177 219 1177 214 1215 c 1,17,-1
 27 1215 l 1,18,-1
 27 1387 l 1,19,20
 256 1399 256 1399 479 1399 c 128,-1,21
 702 1399 702 1399 814 1387 c 1,22,-1
 814 1215 l 1,23,-1
 656 1215 l 1,24,25
 649 1171 649 1171 649 1123 c 2,26,-1
 649 510 l 2,27,28
 649 264 649 264 776 191 c 0,29,30
 818 167 818 167 879.5 167 c 128,-1,31
 941 167 941 167 985 199.5 c 0,32,33
 1028 232 1028 232 1054 288 c 0,34,35
 1098 385 1098 385 1099 577 c 2,36,-1
 1099 1123 l 2,37,38
 1099 1177 1099 1177 1094 1215 c 1,39,-1
 947 1215 l 1,40,-1
 947 1387 l 1,0,1
EndSplineSet
EndChar

StartChar: V
Encoding: 86 86 76
Width: 1746
GlyphClass: 2
Flags: W
LayerCount: 2
Fore
SplineSet
0 1387 m 1,0,1
 184 1399 184 1399 394.5 1399 c 128,-1,2
 605 1399 605 1399 736 1387 c 1,3,-1
 781 1215 l 1,4,-1
 653 1215 l 1,5,6
 670 1166 670 1166 685 1128 c 1,7,-1
 923 452 l 1,8,-1
 1129 1123 l 2,9,10
 1142 1164 1142 1164 1153 1215 c 1,11,-1
 1025 1215 l 1,12,-1
 1070 1387 l 1,13,14
 1182 1399 1182 1399 1371 1399 c 128,-1,15
 1560 1399 1560 1399 1746 1387 c 1,16,-1
 1722 1215 l 1,17,-1
 1545 1215 l 1,18,19
 1531 1193 1531 1193 1467.5 993 c 128,-1,20
 1404 793 1404 793 1293.5 509.5 c 128,-1,21
 1183 226 1183 226 1064 -11 c 1,22,-1
 872 -11 l 2,23,24
 778 -11 778 -11 723 5.5 c 128,-1,25
 668 22 668 22 649 74 c 2,26,-1
 247 1123 l 2,27,28
 221 1189 221 1189 201 1215 c 1,29,-1
 24 1215 l 1,30,-1
 0 1387 l 1,0,1
EndSplineSet
EndChar

StartChar: W
Encoding: 87 87 77
Width: 2458
GlyphClass: 2
Flags: W
LayerCount: 2
Fore
SplineSet
1215 696 m 1,0,1
 1115 283 1115 283 1024 -11 c 1,2,-1
 752 -11 l 2,3,4
 688 -11 688 -11 654 7.5 c 128,-1,5
 620 26 620 26 609 74 c 1,6,-1
 247 1123 l 1,7,8
 227 1185 227 1185 201 1215 c 1,9,-1
 24 1215 l 1,10,-1
 0 1387 l 1,11,12
 172 1399 172 1399 340 1399 c 0,13,14
 596 1399 596 1399 736 1387 c 1,15,-1
 781 1215 l 1,16,-1
 653 1215 l 1,17,-1
 685 1128 l 1,18,-1
 883 452 l 1,19,-1
 1048 1111 l 2,20,21
 1063 1166 1063 1166 1071 1244 c 2,22,-1
 1078 1317 l 2,23,24
 1082 1363 1082 1363 1086 1387 c 1,25,-1
 1291 1387 l 2,26,27
 1389 1387 1389 1387 1434 1296 c 0,28,29
 1448 1268 1448 1268 1458 1235 c 2,30,-1
 1695 452 l 1,31,32
 1852 1056 1852 1056 1885 1215 c 1,33,-1
 1737 1215 l 1,34,-1
 1782 1387 l 1,35,36
 1894 1399 1894 1399 2086 1399 c 128,-1,37
 2278 1399 2278 1399 2458 1387 c 1,38,-1
 2434 1215 l 1,39,-1
 2255 1215 l 1,40,-1
 2241 1169 l 1,41,42
 2010 391 2010 391 1836 -11 c 1,43,-1
 1554 -11 l 2,44,45
 1493 -11 1493 -11 1462 7.5 c 128,-1,46
 1431 26 1431 26 1421 74 c 1,47,-1
 1215 696 l 1,0,1
EndSplineSet
EndChar

StartChar: X
Encoding: 88 88 78
Width: 1728
GlyphClass: 2
Flags: W
LayerCount: 2
Fore
SplineSet
16 1387 m 1,0,1
 188 1399 188 1399 350 1399 c 128,-1,2
 512 1399 512 1399 563.5 1398 c 0,3,4
 616 1398 616 1398 658 1396 c 0,5,6
 744 1393 744 1393 802 1387 c 1,7,-1
 827 1215 l 1,8,-1
 749 1215 l 2,9,10
 728 1215 728 1215 728 1198 c 0,11,12
 728 1174 728 1174 761 1128 c 2,13,-1
 959 842 l 1,14,-1
 1125 1123 l 2,15,16
 1149 1164 1149 1164 1149 1189.5 c 128,-1,17
 1149 1215 1149 1215 1119 1215 c 2,18,-1
 991 1215 l 1,19,-1
 1036 1387 l 1,20,21
 1156 1399 1156 1399 1281.5 1399 c 128,-1,22
 1407 1399 1407 1399 1452 1398 c 0,23,24
 1497 1398 1497 1398 1539 1396 c 0,25,26
 1630 1393 1630 1393 1702 1387 c 1,27,-1
 1678 1215 l 1,28,-1
 1545 1215 l 1,29,30
 1494 1199 1494 1199 1430 1110 c 2,31,-1
 1126 687 l 1,32,-1
 1468 307 l 2,33,34
 1489 284 1489 284 1508 259 c 128,-1,35
 1527 234 1527 234 1546 214 c 0,36,37
 1589 168 1589 168 1631 167 c 2,38,-1
 1688 167 l 1,39,-1
 1712 -11 l 1,40,41
 1466 0 1466 0 1346 0 c 128,-1,42
 1226 0 1226 0 936 -11 c 1,43,-1
 901 167 l 1,44,-1
 1009 167 l 2,45,46
 1030 167 1030 167 1030 184 c 0,47,48
 1030 206 1030 206 997 248 c 2,49,-1
 779 525 l 1,50,-1
 603 253 l 2,51,52
 578 215 578 215 578 191 c 128,-1,53
 578 167 578 167 609 167 c 2,54,-1
 737 167 l 1,55,-1
 692 -11 l 1,56,57
 402 4 402 4 262 -1 c 128,-1,58
 122 -6 122 -6 16 -11 c 1,59,-1
 40 167 l 1,60,-1
 153 167 l 1,61,62
 179 169 179 169 205.5 195 c 128,-1,63
 232 221 232 221 268 266 c 2,64,-1
 601 680 l 1,65,-1
 238 1139 l 2,66,67
 178 1215 178 1215 117 1215 c 2,68,-1
 40 1215 l 1,69,-1
 16 1387 l 1,0,1
EndSplineSet
EndChar

StartChar: Y
Encoding: 89 89 79
Width: 1576
GlyphClass: 2
Flags: W
LayerCount: 2
Fore
SplineSet
1220 -11 m 1,0,1
 974 0 974 0 821.5 0 c 128,-1,2
 669 0 669 0 403 -11 c 1,3,-1
 403 147 l 1,4,-1
 589 147 l 1,5,6
 594 182 594 182 594 217 c 2,7,-1
 594 492 l 1,8,-1
 217 1123 l 2,9,10
 203 1146 203 1146 194.5 1163.5 c 0,11,12
 186 1180 186 1180 180 1192 c 0,13,14
 167 1214 167 1214 151 1215 c 2,15,-1
 24 1215 l 1,16,-1
 0 1387 l 1,17,18
 196 1399 196 1399 366 1399 c 2,19,-1
 470 1399 l 2,20,21
 633 1399 633 1399 756 1387 c 1,22,-1
 771 1215 l 1,23,-1
 643 1215 l 1,24,25
 670 1138 670 1138 675 1128 c 2,26,-1
 883 752 l 1,27,-1
 1059 1123 l 2,28,29
 1070 1147 1070 1147 1081 1215 c 1,30,-1
 925 1215 l 1,31,-1
 960 1387 l 1,32,33
 1084 1399 1084 1399 1247 1399 c 2,34,-1
 1321 1399 l 2,35,36
 1439 1399 1439 1399 1576 1387 c 1,37,-1
 1552 1215 l 1,38,-1
 1405 1215 l 1,39,40
 1398 1206 1398 1206 1387.5 1183.5 c 128,-1,41
 1377 1161 1377 1161 1367 1140.5 c 128,-1,42
 1357 1120 1357 1120 1351 1109 c 128,-1,43
 1345 1098 1345 1098 1331.5 1073 c 128,-1,44
 1318 1048 1318 1048 1294.5 1005.5 c 128,-1,45
 1271 963 1271 963 1235 896 c 128,-1,46
 1199 829 1199 829 1147.5 735 c 128,-1,47
 1096 641 1096 641 1027 513 c 1,48,-1
 1027 239 l 2,49,50
 1027 195 1027 195 1032 147 c 1,51,-1
 1220 147 l 1,52,-1
 1220 -11 l 1,0,1
EndSplineSet
EndChar

StartChar: Z
Encoding: 90 90 80
Width: 1382
GlyphClass: 2
Flags: W
LayerCount: 2
Fore
SplineSet
170 1 m 2,0,1
 94 1 94 1 94 103 c 2,2,-1
 94 219 l 1,3,-1
 826 1197 l 1,4,-1
 637 1197 l 2,5,6
 563 1197 563 1197 419 1172 c 1,7,8
 416 1161 416 1161 412 1082 c 1,9,-1
 412 968 l 1,10,-1
 109 968 l 1,11,-1
 69 1373 l 1,12,13
 493 1387 493 1387 661 1387 c 2,14,-1
 1197 1387 l 2,15,16
 1249 1387 1249 1387 1277 1364.5 c 128,-1,17
 1305 1342 1305 1342 1305 1313 c 2,18,-1
 1305 1186 l 1,19,-1
 558 180 l 1,20,-1
 806 180 l 2,21,22
 899 180 899 180 997 195 c 1,23,24
 1036 363 1036 363 1036 493 c 1,25,26
 1131 490 1131 490 1190.5 485.5 c 128,-1,27
 1250 481 1250 481 1299 478 c 1,28,29
 1301 401 1301 401 1303 352 c 128,-1,30
 1305 303 1305 303 1306 273 c 128,-1,31
 1307 243 1307 243 1308 216 c 0,32,33
 1310 162 1310 162 1310 145 c 0,34,35
 1310 121 1310 121 1300 1 c 1,36,37
 1068 0 1068 0 897 0 c 0,38,39
 650 0 650 0 402 0 c 1,40,-1
 204 1 l 1,41,-1
 170 1 l 2,0,1
EndSplineSet
EndChar

StartChar: bracketleft
Encoding: 91 91 81
Width: 786
GlyphClass: 2
Flags: W
LayerCount: 2
Fore
SplineSet
725 -126 m 2,0,1
 725 -208 725 -208 598 -208 c 2,2,-1
 164 -208 l 1,3,-1
 164 1475 l 1,4,-1
 522 1475 l 2,5,6
 628 1475 628 1475 660 1466 c 0,7,8
 725 1446 725 1446 725 1384 c 2,9,-1
 725 1325 l 1,10,-1
 536 1325 l 1,11,-1
 536 -57 l 1,12,-1
 725 -57 l 1,13,-1
 725 -126 l 2,0,1
EndSplineSet
EndChar

StartChar: backslash
Encoding: 92 92 82
Width: 1036
GlyphClass: 2
Flags: W
LayerCount: 2
Fore
SplineSet
1036 -22 m 1,0,-1
 775 -22 l 2,1,2
 654 -22 654 -22 630 48 c 1,3,-1
 0 1412 l 1,4,-1
 263 1412 l 2,5,6
 328 1412 328 1412 362 1393 c 128,-1,7
 396 1374 396 1374 413 1326 c 1,8,-1
 1036 -22 l 1,0,-1
EndSplineSet
EndChar

StartChar: bracketright
Encoding: 93 93 83
Width: 786
GlyphClass: 2
Flags: W
LayerCount: 2
Fore
SplineSet
250 -57 m 1,0,-1
 250 1325 l 1,1,-1
 61 1325 l 1,2,-1
 61 1476 l 1,3,-1
 622 1476 l 1,4,-1
 622 -208 l 1,5,-1
 61 -208 l 1,6,-1
 61 -57 l 1,7,-1
 250 -57 l 1,0,-1
EndSplineSet
EndChar

StartChar: asciicircum
Encoding: 94 94 84
Width: 1241
GlyphClass: 2
Flags: W
LayerCount: 2
Fore
SplineSet
763 1389 m 1,0,-1
 1131 736 l 2,1,2
 1164 677 1164 677 1164 652.5 c 128,-1,3
 1164 628 1164 628 1141 613 c 128,-1,4
 1118 598 1118 598 1091 594 c 1,5,-1
 872 544 l 1,6,-1
 620 1029 l 1,7,-1
 368 544 l 1,8,-1
 165 591 l 2,9,10
 100 605 100 605 88 620.5 c 128,-1,11
 76 636 76 636 76 656.5 c 128,-1,12
 76 677 76 677 109 736 c 2,13,-1
 477 1389 l 1,14,-1
 763 1389 l 1,0,-1
EndSplineSet
EndChar

StartChar: underscore
Encoding: 95 95 85
Width: 1095
GlyphClass: 2
Flags: W
LayerCount: 2
Fore
SplineSet
1107 -216 m 2,0,1
 1106 -270 1106 -270 1024 -294 c 0,2,3
 1000 -301 1000 -301 972 -307 c 1,4,-1
 -12 -307 l 1,5,-1
 -12 -224 l 2,6,7
 -12 -148 -12 -148 86 -138 c 0,8,9
 112 -136 112 -136 137 -135 c 2,10,-1
 1107 -135 l 1,11,-1
 1107 -216 l 2,0,1
EndSplineSet
EndChar

StartChar: grave
Encoding: 96 96 86
Width: 1051
GlyphClass: 2
Flags: W
LayerCount: 2
Fore
SplineSet
552 1112 m 1,0,-1
 266 1482 l 1,1,-1
 637 1482 l 1,2,-1
 787 1112 l 1,3,-1
 552 1112 l 1,0,-1
EndSplineSet
EndChar

StartChar: a
Encoding: 97 97 87
Width: 1281
GlyphClass: 2
Flags: W
LayerCount: 2
Fore
SplineSet
1106 601 m 1,0,-1
 1105 451 l 1,1,-1
 1105 274 l 2,2,3
 1105 183 1105 183 1110 148 c 1,4,5
 1142 146 1142 146 1177 146 c 2,6,-1
 1261 146 l 1,7,-1
 1261 33 l 1,8,9
 1070 -10 1070 -10 844 -10 c 1,10,11
 771 40 771 40 724 102 c 1,12,13
 606 -22 606 -22 439 -22 c 0,14,15
 186 -22 186 -22 107 146 c 0,16,17
 81 202 81 202 81 274 c 0,18,19
 81 583 81 583 667 583 c 2,20,-1
 687 583 l 1,21,-1
 687 617 l 2,22,23
 687 742 687 742 675.5 798.5 c 128,-1,24
 664 855 664 855 635 855 c 0,25,26
 521 855 521 855 348 631 c 1,27,-1
 107 785 l 1,28,29
 106 879 106 879 266 945 c 0,30,31
 412 1005 412 1005 565 1005 c 128,-1,32
 718 1005 718 1005 813 985 c 0,33,34
 908 966 908 966 973 918 c 0,35,36
 1106 820 1106 820 1106 601 c 1,0,-1
657 464 m 2,37,38
 579 464 579 464 535.5 414 c 128,-1,39
 492 364 492 364 492 283.5 c 128,-1,40
 492 203 492 203 516.5 170.5 c 128,-1,41
 541 138 541 138 583 138 c 128,-1,42
 625 138 625 138 687 191 c 1,43,-1
 687 464 l 1,44,-1
 657 464 l 2,37,38
EndSplineSet
EndChar

StartChar: b
Encoding: 98 98 88
Width: 1407
GlyphClass: 2
Flags: W
LayerCount: 2
Fore
SplineSet
620 937 m 1,0,1
 761 1005 761 1005 881.5 1005 c 128,-1,2
 1002 1005 1002 1005 1084.5 962.5 c 0,3,4
 1168 920 1168 920 1222 850 c 0,5,6
 1330 712 1330 712 1330 509 c 0,7,8
 1330 258 1330 258 1156 116 c 0,9,10
 999 -12 999 -12 772 -11.5 c 128,-1,11
 545 -11 545 -11 166 19 c 1,12,-1
 166 79 l 1,13,14
 201 152 201 152 201 330 c 2,15,-1
 201 1251 l 1,16,-1
 28 1251 l 1,17,-1
 28 1364 l 1,18,19
 224 1412 224 1412 428 1412 c 2,20,-1
 488 1412 l 2,21,22
 570 1412 570 1412 590 1395.5 c 128,-1,23
 610 1379 610 1379 615 1356.5 c 128,-1,24
 620 1334 620 1334 620 1298 c 2,25,-1
 620 937 l 1,0,1
786 836 m 0,26,27
 723 836 723 836 620 789 c 1,28,-1
 620 140 l 1,29,30
 634 138 634 138 647 138 c 2,31,-1
 745 138 l 2,32,33
 817 138 817 138 858 229.5 c 128,-1,34
 899 321 899 321 899 504 c 0,35,36
 899 836 899 836 786 836 c 0,26,27
EndSplineSet
EndChar

StartChar: c
Encoding: 99 99 89
Width: 1158
GlyphClass: 2
Flags: W
LayerCount: 2
Fore
SplineSet
497 516 m 0,0,1
 497 147 497 147 692 147 c 0,2,3
 850 147 850 147 984 213 c 0,4,5
 1028 235 1028 235 1076 265 c 1,6,-1
 1093 105 l 1,7,8
 921 -22 921 -22 669 -22 c 0,9,10
 396 -22 396 -22 236 111 c 0,11,12
 72 247 72 247 71 486 c 0,13,14
 71 743 71 743 259 882 c 0,15,16
 425 1005 425 1005 686 1005 c 128,-1,17
 947 1005 947 1005 1101 872 c 1,18,-1
 1084 674 l 1,19,-1
 813 674 l 1,20,21
 732 836 732 836 665 836 c 0,22,23
 592 836 592 836 546 755 c 0,24,25
 498 669 498 669 497 516 c 0,0,1
EndSplineSet
EndChar

StartChar: d
Encoding: 100 100 90
Width: 1391
GlyphClass: 2
Flags: W
LayerCount: 2
Fore
SplineSet
659 836 m 0,0,1
 513 836 513 836 513 491.5 c 128,-1,2
 513 147 513 147 655 147 c 0,3,4
 739 147 739 147 797 226 c 1,5,-1
 797 802 l 1,6,7
 710 836 710 836 659 836 c 0,0,1
620 1364 m 1,8,9
 816 1412 816 1412 1020 1412 c 2,10,-1
 1080 1412 l 2,11,12
 1162 1412 1162 1412 1182 1395.5 c 128,-1,13
 1202 1379 1202 1379 1207 1356.5 c 128,-1,14
 1212 1334 1212 1334 1212 1298 c 2,15,-1
 1212 244 l 2,16,17
 1212 175 1212 175 1218 147 c 1,18,-1
 1384 147 l 1,19,-1
 1384 35 l 1,20,21
 1199 -11 1199 -11 1037 -11 c 0,22,23
 940 -11 940 -11 905.5 7.5 c 128,-1,24
 871 26 871 26 854.5 48 c 128,-1,25
 838 70 838 70 826 105 c 1,26,27
 720 -22 720 -22 537 -22 c 0,28,29
 335 -22 335 -22 205 124 c 0,30,31
 79 266 79 266 79 474 c 0,32,33
 80 716 80 716 204 860 c 0,34,35
 330 1004 330 1004 547 1005 c 0,36,37
 664 1005 664 1005 793 959 c 1,38,-1
 793 1251 l 1,39,-1
 620 1251 l 1,40,-1
 620 1364 l 1,8,9
EndSplineSet
EndChar

StartChar: e
Encoding: 101 101 91
Width: 1207
GlyphClass: 2
Flags: W
LayerCount: 2
Fore
SplineSet
597 242.5 m 128,-1,1
 670 169 670 169 796 169 c 128,-1,2
 922 169 922 169 1077 245 c 1,3,-1
 1095 95 l 1,4,5
 931 -22 931 -22 671 -22 c 0,6,7
 393 -22 393 -22 234 114 c 0,8,9
 72 252 72 252 72 499 c 0,10,11
 72 723 72 723 237 863 c 0,12,13
 404 1005 404 1005 675 1005 c 0,14,15
 882 1005 882 1005 1012 901 c 0,16,17
 1144 795 1144 795 1145 615 c 0,18,19
 1145 510 1145 510 1092 474 c 0,20,21
 1045 442 1045 442 914 442 c 2,22,-1
 501 442 l 1,23,0
 524 316 524 316 597 242.5 c 128,-1,1
754 590 m 1,24,-1
 754 608 l 2,25,26
 754 772 754 772 686 827 c 0,27,28
 664 845 664 845 635 845 c 0,29,30
 524 845 524 845 500 590 c 1,31,-1
 754 590 l 1,24,-1
EndSplineSet
EndChar

StartChar: f
Encoding: 102 102 92
Width: 926
GlyphClass: 2
Flags: W
LayerCount: 2
Fore
SplineSet
904 910 m 2,0,1
 904 824 904 824 768 824 c 2,2,-1
 646 824 l 1,3,-1
 646 259 l 2,4,5
 646 176 646 176 665 158.5 c 128,-1,6
 684 141 684 141 713 134 c 128,-1,7
 742 127 742 127 792 120 c 1,8,-1
 803 -11 l 1,9,-1
 640 -5 l 2,10,11
 568 -3 568 -3 516 -2 c 128,-1,12
 464 -1 464 -1 383.5 -0.5 c 128,-1,13
 303 0 303 0 90 -11 c 1,14,-1
 96 121 l 1,15,-1
 120 124 l 2,16,17
 189 132 189 132 205 146 c 0,18,19
 227 166 227 166 227 224 c 2,20,-1
 227 824 l 1,21,-1
 22 824 l 1,22,-1
 22 898 l 2,23,24
 22 983 22 983 169 983 c 2,25,-1
 227 983 l 1,26,-1
 227 1047 l 2,27,28
 227 1412 227 1412 729 1412 c 0,29,30
 889 1412 889 1412 1040 1349 c 1,31,-1
 1040 1125 l 1,32,-1
 806 1125 l 1,33,34
 801 1143 801 1143 796 1158 c 2,35,-1
 774 1224 l 2,36,37
 765 1251 765 1251 765 1254 c 1,38,39
 706 1254 706 1254 687 1240 c 0,40,41
 652 1213 652 1213 649 1140 c 1,42,-1
 649 983 l 1,43,-1
 904 983 l 1,44,-1
 904 910 l 2,0,1
EndSplineSet
EndChar

StartChar: g
Encoding: 103 103 93
Width: 1149
GlyphClass: 2
Flags: W
LayerCount: 2
Fore
SplineSet
442 626 m 0,0,1
 442 436 442 436 544 436 c 0,2,3
 653 436 653 436 653 626 c 0,4,5
 653 857 653 857 544 857 c 0,6,7
 442 857 442 857 442 626 c 0,0,1
367 -174 m 0,8,9
 367 -271 367 -271 542 -271 c 0,10,11
 754 -270 754 -270 790 -194 c 0,12,13
 802 -170 802 -170 802 -136 c 0,14,15
 802 -78 802 -78 705 -78 c 2,16,-1
 412 -78 l 1,17,18
 367 -137 367 -137 367 -174 c 0,8,9
752 316 m 0,19,20
 662 292 662 292 568 292 c 128,-1,21
 474 292 474 292 402 298 c 1,22,23
 387 278 387 278 387 241 c 128,-1,24
 387 204 387 204 407.5 190.5 c 128,-1,25
 428 177 428 177 470 177 c 2,26,-1
 813 177 l 2,27,28
 1025 177 1025 177 1091 31 c 0,29,30
 1113 -18 1113 -18 1113 -90.5 c 128,-1,31
 1113 -163 1113 -163 1089 -221.5 c 128,-1,32
 1065 -280 1065 -280 1023 -321 c 128,-1,33
 981 -362 981 -362 923 -388 c 0,34,35
 866 -414 866 -414 798 -428 c 0,36,37
 679 -454 679 -454 483 -454 c 0,38,39
 79 -454 79 -454 79 -217 c 0,40,41
 79 -156 79 -156 124.5 -111.5 c 128,-1,42
 170 -67 170 -67 274 -32 c 1,43,44
 217 -9 217 -9 180.5 37.5 c 128,-1,45
 144 84 144 84 144 155 c 0,46,47
 144 275 144 275 250 332 c 1,48,49
 162 366 162 366 113 442 c 128,-1,50
 64 518 64 518 64 622.5 c 128,-1,51
 64 727 64 727 99.5 797.5 c 0,52,53
 134 868 134 868 198 914 c 0,54,55
 324 1005 324 1005 549 1005 c 0,56,57
 680 1005 680 1005 778 968 c 1,58,-1
 1136 988 l 1,59,-1
 1136 825 l 1,60,-1
 935 825 l 1,61,62
 1021 766 1021 766 1021 635 c 0,63,64
 1021 388 1021 388 752 316 c 0,19,20
EndSplineSet
EndChar

StartChar: h
Encoding: 104 104 94
Width: 1421
GlyphClass: 2
Flags: W
LayerCount: 2
Fore
SplineSet
822 85 m 1,0,-1
 828 274 l 1,1,-1
 828 623 l 2,2,3
 828 752 828 752 794 790 c 0,4,5
 778 808 778 808 750 808 c 0,6,7
 687 808 687 808 605 739 c 1,8,-1
 605 233 l 2,9,10
 605 180 605 180 620 163 c 0,11,12
 642 139 642 139 698 127 c 1,13,-1
 709 -11 l 1,14,15
 405 0 405 0 322.5 0 c 128,-1,16
 240 0 240 0 68 -11 c 1,17,-1
 73 126 l 1,18,19
 143 137 143 137 159 154 c 0,20,21
 185 182 185 182 185 265 c 2,22,-1
 185 1187 l 2,23,24
 185 1227 185 1227 182 1251 c 1,25,-1
 13 1251 l 1,26,-1
 13 1364 l 1,27,28
 209 1412 209 1412 413 1412 c 2,29,-1
 473 1412 l 2,30,31
 555 1412 555 1412 575 1395.5 c 128,-1,32
 595 1379 595 1379 600 1356.5 c 128,-1,33
 605 1334 605 1334 605 1298 c 2,34,-1
 605 882 l 1,35,36
 783 1005 783 1005 961 1005 c 0,37,38
 1247 1005 1247 1005 1247 644 c 2,39,-1
 1247 248 l 2,40,41
 1247 183 1247 183 1256 147 c 1,42,-1
 1389 147 l 1,43,-1
 1402 23 l 1,44,45
 1211 -22 1211 -22 1048 -22 c 0,46,47
 822 -22 822 -22 822 85 c 1,0,-1
EndSplineSet
EndChar

StartChar: i
Encoding: 105 105 95
Width: 799
GlyphClass: 2
Flags: W
LayerCount: 2
Fore
SplineSet
197 95 m 1,0,-1
 203 284 l 1,1,-1
 203 824 l 1,2,-1
 31 824 l 1,3,-1
 31 950 l 1,4,5
 233 994 233 994 398 994 c 0,6,7
 622 994 622 994 622 899 c 2,8,-1
 622 239 l 2,9,10
 622 184 622 184 631 147 c 1,11,-1
 764 147 l 1,12,-1
 777 33 l 1,13,14
 584 -11 584 -11 423 -11 c 0,15,16
 197 -11 197 -11 197 95 c 1,0,-1
193 1190.5 m 128,-1,18
 174 1219 174 1219 174 1258 c 128,-1,19
 174 1297 174 1297 193.5 1326.5 c 128,-1,20
 213 1356 213 1356 246 1375 c 0,21,22
 310 1412 310 1412 385 1412 c 128,-1,23
 460 1412 460 1412 503.5 1402 c 0,24,25
 548 1392 548 1392 580 1372 c 0,26,27
 650 1329 650 1329 649 1256 c 0,28,29
 648 1142 648 1142 496 1112 c 0,30,31
 454 1104 454 1104 408.5 1103.5 c 128,-1,32
 363 1103 363 1103 319.5 1113 c 128,-1,33
 276 1123 276 1123 244 1142.5 c 128,-1,17
 212 1162 212 1162 193 1190.5 c 128,-1,18
EndSplineSet
EndChar

StartChar: j
Encoding: 106 106 96
Width: 807
GlyphClass: 2
Flags: W
LayerCount: 2
Fore
SplineSet
232.5 1221.5 m 128,-1,1
 214 1250 214 1250 214 1289 c 128,-1,2
 214 1328 214 1328 233.5 1357.5 c 128,-1,3
 253 1387 253 1387 286 1406 c 0,4,5
 350 1443 350 1443 426 1443 c 128,-1,6
 502 1443 502 1443 545.5 1432.5 c 128,-1,7
 589 1422 589 1422 621 1402 c 0,8,9
 689 1361 689 1361 689 1287 c 0,10,11
 688 1172 688 1172 536 1142 c 0,12,13
 494 1134 494 1134 448 1134 c 128,-1,14
 402 1134 402 1134 359 1144 c 128,-1,15
 316 1154 316 1154 283.5 1173.5 c 128,-1,0
 251 1193 251 1193 232.5 1221.5 c 128,-1,1
662 -12 m 2,16,17
 662 -454 662 -454 219 -454 c 0,18,19
 19 -454 19 -454 -64 -377 c 1,20,-1
 -47 -76 l 1,21,-1
 158 -105 l 1,22,-1
 177 -278 l 1,23,24
 195 -287 195 -287 208 -287 c 0,25,26
 303 -287 303 -287 303 -160 c 0,27,28
 303 -153 303 -153 293.5 -120.5 c 128,-1,29
 284 -88 284 -88 273 -43 c 0,30,31
 243 80 243 80 243 147 c 2,32,-1
 243 824 l 1,33,-1
 70 824 l 1,34,-1
 70 950 l 1,35,36
 268 994 268 994 428 994 c 0,37,38
 596 994 596 994 646 940 c 0,39,40
 662 922 662 922 662 899 c 2,41,-1
 662 -12 l 2,16,17
EndSplineSet
EndChar

StartChar: k
Encoding: 107 107 97
Width: 1419
GlyphClass: 2
Flags: W
LayerCount: 2
Fore
SplineSet
719 -11 m 1,0,1
 400 0 400 0 319.5 0 c 128,-1,2
 239 0 239 0 67 -11 c 1,3,-1
 73 119 l 1,4,5
 100 124 100 124 121 127 c 128,-1,6
 142 130 142 130 156 139 c 0,7,8
 184 157 184 157 185 225 c 2,9,-1
 185 1187 l 2,10,11
 185 1227 185 1227 182 1251 c 1,12,-1
 13 1251 l 1,13,-1
 13 1364 l 1,14,15
 209 1412 209 1412 413 1412 c 2,16,-1
 445 1412 l 1,17,-1
 485 1413 l 1,18,19
 593 1413 593 1413 601 1358 c 0,20,21
 604 1335 604 1335 604 1298 c 2,22,-1
 604 629 l 1,23,-1
 821 777 l 1,24,25
 839 792 839 792 839 804 c 0,26,27
 839 835 839 835 749 835 c 1,28,-1
 749 983 l 1,29,-1
 1382 983 l 1,30,-1
 1382 824 l 1,31,32
 1288 824 1288 824 1238 803 c 0,33,34
 1176 777 1176 777 1084 711 c 1,35,-1
 937 603 l 1,36,-1
 1207 189 l 1,37,-1
 1233 163 l 1,38,-1
 1256 144 l 1,39,40
 1288 122 1288 122 1319.5 121 c 128,-1,41
 1351 120 1351 120 1372 120 c 2,42,-1
 1404 120 l 1,43,-1
 1429 -11 l 1,44,45
 1288 0 1288 0 1094 0 c 2,46,-1
 1034 0 l 2,47,48
 902 0 902 0 777 -11 c 1,49,-1
 772 120 l 1,50,-1
 829 120 l 1,51,-1
 636 453 l 1,52,-1
 604 433 l 1,53,-1
 604 212 l 1,54,55
 610 161 610 161 625 148 c 0,56,57
 646 130 646 130 713 117 c 1,58,-1
 719 -11 l 1,0,1
EndSplineSet
EndChar

StartChar: l
Encoding: 108 108 98
Width: 790
GlyphClass: 2
Flags: W
LayerCount: 2
Fore
SplineSet
186 1175 m 2,0,1
 186 1222 186 1222 182 1252 c 1,2,-1
 13 1252 l 1,3,-1
 13 1366 l 1,4,5
 207 1412 207 1412 394 1412 c 0,6,7
 524 1412 524 1412 568 1381 c 0,8,9
 586 1368 586 1368 604 1347 c 1,10,-1
 604 227 l 2,11,12
 604 166 604 166 610 145 c 1,13,-1
 769 145 l 1,14,-1
 769 34 l 1,15,16
 587 -9 587 -9 416 -9 c 128,-1,17
 245 -9 245 -9 181 82 c 1,18,-1
 181 108 l 1,19,20
 186 208 186 208 186 283 c 2,21,-1
 186 1175 l 2,0,1
EndSplineSet
EndChar

StartChar: m
Encoding: 109 109 99
Width: 2063
GlyphClass: 2
Flags: W
LayerCount: 2
Fore
SplineSet
692 -11 m 1,0,1
 380 7 380 7 93 -11 c 1,2,-1
 93 114 l 1,3,4
 159 114 159 114 177 134 c 0,5,6
 205 164 205 164 205 223 c 2,7,-1
 205 824 l 1,8,-1
 33 824 l 1,9,-1
 33 946 l 1,10,11
 216 994 216 994 449 994 c 0,12,13
 495 994 495 994 609 978 c 1,14,15
 611 912 611 912 611 869 c 1,16,17
 747 962 747 962 906 994 c 0,18,19
 959 1004 959 1004 1011 1005 c 0,20,21
 1174 1005 1174 1005 1239 891 c 1,22,23
 1429 1006 1429 1006 1585 1006 c 128,-1,24
 1741 1006 1741 1006 1815 921 c 128,-1,25
 1889 836 1889 836 1889 686 c 2,26,-1
 1889 248 l 2,27,28
 1889 183 1889 183 1898 147 c 1,29,-1
 2031 147 l 1,30,-1
 2044 23 l 1,31,32
 1853 -22 1853 -22 1690 -22 c 0,33,34
 1464 -22 1464 -22 1464 85 c 1,35,-1
 1470 274 l 1,36,-1
 1470 603 l 2,37,38
 1470 770 1470 770 1450 796 c 0,39,40
 1442 806 1442 806 1426 807 c 0,41,42
 1340 807 1340 807 1260 733 c 1,43,-1
 1260 207 l 1,44,45
 1266 156 1266 156 1283 143 c 0,46,47
 1306 125 1306 125 1378 113 c 1,48,-1
 1378 -11 l 1,49,-1
 1228 -5 l 2,50,51
 1162 -3 1162 -3 1113.5 -1.5 c 128,-1,52
 1065 0 1065 0 982.5 0 c 128,-1,53
 900 0 900 0 775 -11 c 1,54,-1
 775 126 l 1,55,56
 818 138 818 138 827 151 c 0,57,58
 841 170 841 170 841 220 c 2,59,-1
 841 603 l 2,60,61
 841 771 841 771 830.5 789 c 128,-1,62
 820 807 820 807 810 807 c 0,63,64
 757 807 757 807 706.5 785 c 128,-1,65
 656 763 656 763 624 731 c 1,66,-1
 624 254 l 2,67,68
 624 188 624 188 632 169 c 0,69,70
 646 137 646 137 692 126 c 1,71,-1
 692 -11 l 1,0,1
EndSplineSet
EndChar

StartChar: n
Encoding: 110 110 100
Width: 1456
GlyphClass: 2
Flags: W
LayerCount: 2
Fore
SplineSet
728 -11 m 1,0,1
 424 0 424 0 341.5 0 c 128,-1,2
 259 0 259 0 87 -11 c 1,3,-1
 93 126 l 1,4,5
 163 137 163 137 179 154 c 0,6,7
 205 182 205 182 205 265 c 2,8,-1
 205 824 l 1,9,-1
 33 824 l 1,10,-1
 33 950 l 1,11,12
 244 994 244 994 423 994 c 0,13,14
 472 994 472 994 604 978 c 1,15,-1
 609 870 l 1,16,17
 815 1006 815 1006 995 1006 c 0,18,19
 1210 1006 1210 1006 1264 808 c 0,20,21
 1282 744 1282 744 1282 664 c 2,22,-1
 1282 248 l 2,23,24
 1282 183 1282 183 1291 147 c 1,25,-1
 1424 147 l 1,26,-1
 1437 23 l 1,27,28
 1246 -22 1246 -22 1083 -22 c 0,29,30
 857 -22 857 -22 857 85 c 1,31,-1
 863 274 l 1,32,-1
 863 649 l 2,33,34
 863 808 863 808 776 808 c 0,35,36
 708 808 708 808 624 739 c 1,37,-1
 624 233 l 2,38,39
 624 180 624 180 639 163 c 0,40,41
 661 139 661 139 717 127 c 1,42,-1
 728 -11 l 1,0,1
EndSplineSet
EndChar

StartChar: o
Encoding: 111 111 101
Width: 1324
GlyphClass: 2
Flags: W
LayerCount: 2
Fore
SplineSet
540 751 m 128,-1,1
 503 666 503 666 503 490.5 c 128,-1,2
 503 315 503 315 541.5 231 c 128,-1,3
 580 147 580 147 664 147 c 128,-1,4
 748 147 748 147 784.5 234.5 c 128,-1,5
 821 322 821 322 821 494 c 0,6,7
 821 836 821 836 662 836 c 0,8,0
 577 836 577 836 540 751 c 128,-1,1
1255 480 m 0,9,10
 1255 354 1255 354 1204.5 258 c 128,-1,11
 1154 162 1154 162 1072 100 c 0,12,13
 912 -22 912 -22 663 -22 c 0,14,15
 396 -22 396 -22 234 115 c 0,16,17
 68 254 68 254 69 488 c 0,18,19
 70 742 70 742 254 882 c 0,20,21
 416 1006 416 1006 663 1005 c 0,22,23
 929 1006 929 1006 1090 866 c 0,24,25
 1255 722 1255 722 1255 480 c 0,9,10
EndSplineSet
EndChar

StartChar: p
Encoding: 112 112 102
Width: 1379
GlyphClass: 2
Flags: W
LayerCount: 2
Fore
SplineSet
583 966 m 1,0,-1
 584 929 l 1,1,-1
 584 916 l 1,2,3
 703 1005 703 1005 832.5 1005 c 128,-1,4
 962 1005 962 1005 1048 969.5 c 128,-1,5
 1134 934 1134 934 1192 868 c 0,6,7
 1312 733 1312 733 1312 499 c 0,8,9
 1312 258 1312 258 1178 118 c 0,10,11
 1045 -22 1045 -22 814 -22 c 0,12,13
 683 -22 683 -22 602 35 c 1,14,-1
 602 -181 l 2,15,16
 602 -265 602 -265 615 -281.5 c 128,-1,17
 628 -298 628 -298 650 -305.5 c 128,-1,18
 672 -313 672 -313 711 -323 c 1,19,-1
 722 -454 l 1,20,-1
 607 -443 l 2,21,22
 517 -434 517 -434 376 -429 c 1,23,24
 275 -429 275 -429 65 -454 c 1,25,-1
 71 -321 l 1,26,-1
 103 -316 l 2,27,28
 150 -310 150 -310 163 -296 c 0,29,30
 183 -273 183 -273 183 -215 c 2,31,-1
 183 824 l 1,32,-1
 9 824 l 1,33,-1
 9 947 l 1,34,35
 197 994 197 994 429 994 c 0,36,37
 495 994 495 994 583 979 c 1,38,-1
 583 966 l 1,0,-1
880 486 m 128,-1,40
 880 825 880 825 782 825 c 128,-1,41
 684 825 684 825 602 770 c 1,42,-1
 602 411 l 2,43,44
 602 147 602 147 735 147 c 0,45,39
 880 147 880 147 880 486 c 128,-1,40
EndSplineSet
EndChar

StartChar: q
Encoding: 113 113 103
Width: 1327
GlyphClass: 2
Flags: W
LayerCount: 2
Fore
SplineSet
673 1005 m 0,0,1
 830 1005 830 1005 1240 973 c 1,2,-1
 1240 913 l 1,3,4
 1205 837 1205 837 1205 662 c 2,5,-1
 1205 -213 l 2,6,7
 1204 -304 1204 -304 1272 -314 c 0,8,9
 1292 -317 1292 -317 1314 -323 c 1,10,-1
 1325 -454 l 1,11,-1
 1210 -443 l 2,12,13
 1066 -429 1066 -429 972 -429 c 128,-1,14
 878 -429 878 -429 668 -454 c 1,15,-1
 674 -321 l 1,16,-1
 706 -316 l 2,17,18
 753 -310 753 -310 766 -296 c 0,19,20
 786 -273 786 -273 786 -215 c 2,21,-1
 786 34 l 1,22,23
 650 -22 650 -22 530.5 -22 c 128,-1,24
 411 -22 411 -22 329.5 18 c 128,-1,25
 248 58 248 58 192 127 c 0,26,27
 76 268 76 268 76 483 c 0,28,29
 76 712 76 712 230 856 c 0,30,31
 390 1004 390 1004 673 1005 c 0,0,1
786 466 m 1,32,-1
 785 682 l 1,33,-1
 785 823 l 1,34,-1
 691 825 l 1,35,-1
 661 825 l 2,36,37
 589 825 589 825 548 742 c 128,-1,38
 507 659 507 659 507 492 c 0,39,40
 507 147 507 147 620 147 c 0,41,42
 687 147 687 147 784 184 c 1,43,44
 786 233 786 233 786 280 c 2,45,-1
 786 466 l 1,32,-1
EndSplineSet
EndChar

StartChar: r
Encoding: 114 114 104
Width: 1119
GlyphClass: 2
Flags: W
LayerCount: 2
Fore
SplineSet
458 994 m 0,0,1
 502 994 502 994 598 978 c 1,2,-1
 598 850 l 1,3,4
 736 1005 736 1005 947 1005 c 0,5,6
 1032 1005 1032 1005 1100 984 c 1,7,-1
 1080 665 l 1,8,-1
 873 665 l 1,9,-1
 848 816 l 1,10,11
 770 816 770 816 718 784 c 0,12,13
 624 728 624 728 624 676 c 2,14,-1
 624 258 l 2,15,16
 624 176 624 176 640 157 c 0,17,18
 664 129 664 129 753 116 c 1,19,-1
 764 -11 l 1,20,21
 425 0 425 0 342 0 c 128,-1,22
 259 0 259 0 87 -11 c 1,23,-1
 93 116 l 1,24,25
 172 128 172 128 185 141 c 0,26,27
 205 159 205 159 205 224 c 2,28,-1
 205 824 l 1,29,-1
 33 824 l 1,30,-1
 33 947 l 1,31,32
 243 994 243 994 458 994 c 0,0,1
EndSplineSet
EndChar

StartChar: s
Encoding: 115 115 105
Width: 1071
GlyphClass: 2
Flags: W
LayerCount: 2
Fore
SplineSet
685 832 m 1,0,1
 639 845 639 845 587 845 c 0,2,3
 476 845 476 845 476 761 c 0,4,5
 476 720 476 720 504.5 700 c 128,-1,6
 533 680 533 680 584 664 c 0,7,8
 811 592 811 592 922.5 502 c 128,-1,9
 1034 412 1034 412 1034 309.5 c 128,-1,10
 1034 207 1034 207 996 146 c 0,11,12
 958 86 958 86 894 48 c 0,13,14
 775 -22 775 -22 565 -22 c 128,-1,15
 355 -22 355 -22 159 52 c 0,16,17
 101 74 101 74 76 93 c 1,18,-1
 125 351 l 1,19,-1
 402 291 l 1,20,-1
 414 166 l 1,21,22
 452 146 452 146 498 146 c 128,-1,23
 544 146 544 146 574.5 170.5 c 128,-1,24
 605 195 605 195 605 232.5 c 128,-1,25
 605 270 605 270 584 292 c 128,-1,26
 563 314 563 314 527 332 c 128,-1,27
 491 350 491 350 444 366.5 c 128,-1,28
 397 383 397 383 340.5 407 c 128,-1,29
 284 431 284 431 234 462 c 128,-1,30
 184 493 184 493 149 530 c 0,31,32
 77 606 77 606 77 709 c 0,33,34
 77 853 77 853 197.5 929 c 128,-1,35
 318 1005 318 1005 578 1005 c 128,-1,36
 838 1005 838 1005 984 897 c 1,37,-1
 929 662 l 1,38,-1
 698 698 l 1,39,-1
 685 832 l 1,0,1
EndSplineSet
EndChar

StartChar: t
Encoding: 116 116 106
Width: 1045
GlyphClass: 2
Flags: W
LayerCount: 2
Fore
SplineSet
589 -22 m 0,0,1
 166 -22 166 -22 166 311 c 2,2,-1
 166 839 l 1,3,-1
 -16 839 l 1,4,-1
 -16 911 l 2,5,6
 -16 976 -16 976 116 980 c 0,7,8
 150 981 150 981 180 983 c 1,9,-1
 203 1137 l 2,10,11
 209 1176 209 1176 220 1200 c 2,12,-1
 257 1286 l 1,13,-1
 587 1286 l 1,14,-1
 587 983 l 1,15,-1
 879 983 l 1,16,-1
 879 929 l 2,17,18
 878 846 878 846 784 840 c 0,19,20
 758 838 758 838 730 839 c 2,21,-1
 587 839 l 1,22,-1
 587 256 l 2,23,24
 587 158 587 158 651 158 c 0,25,26
 733 158 733 158 765 286 c 2,27,-1
 777 333 l 1,28,-1
 1012 333 l 1,29,-1
 1012 94 l 1,30,31
 845 -22 845 -22 589 -22 c 0,0,1
EndSplineSet
EndChar

StartChar: u
Encoding: 117 117 107
Width: 1429
GlyphClass: 2
Flags: W
LayerCount: 2
Fore
SplineSet
820 530 m 1,0,-1
 821 824 l 1,1,-1
 688 824 l 1,2,-1
 677 950 l 1,3,4
 870 994 870 994 1032 994 c 0,5,6
 1176 994 1176 994 1224 942 c 0,7,8
 1240 924 1240 924 1241 899 c 2,9,-1
 1241 272 l 2,10,11
 1241 181 1241 181 1249 147 c 1,12,-1
 1401 147 l 1,13,-1
 1401 35 l 1,14,15
 1199 -11 1199 -11 1028 -11 c 0,16,17
 922 -12 922 -12 889 4 c 0,18,19
 829 32 829 32 825 109 c 1,20,21
 655 -22 655 -22 490 -22 c 0,22,23
 342 -22 342 -22 255 63 c 128,-1,24
 168 148 168 148 168 296 c 2,25,-1
 168 824 l 1,26,-1
 26 824 l 1,27,-1
 13 950 l 1,28,29
 212 994 212 994 373 994 c 0,30,31
 587 994 587 994 587 899 c 2,32,-1
 587 278 l 1,33,34
 591 189 591 189 609 169.5 c 128,-1,35
 627 150 627 150 648 150 c 128,-1,36
 669 150 669 150 693 156.5 c 128,-1,37
 717 163 717 163 740 174 c 0,38,39
 788 197 788 197 817 226 c 1,40,41
 820 256 820 256 820 300 c 2,42,-1
 820 530 l 1,0,-1
EndSplineSet
EndChar

StartChar: v
Encoding: 118 118 108
Width: 1257
GlyphClass: 2
Flags: W
LayerCount: 2
Fore
SplineSet
704 972 m 1,0,1
 874 994 874 994 974 994 c 128,-1,2
 1074 994 1074 994 1237 972 c 1,3,-1
 1237 824 l 1,4,-1
 1105 824 l 1,5,6
 980 423 980 423 806 0 c 1,7,8
 720 -10 720 -10 650 -10 c 0,9,10
 544 -10 544 -10 435 0 c 1,11,-1
 89 824 l 1,12,-1
 -17 824 l 1,13,-1
 -38 972 l 1,14,15
 124 994 124 994 246 994 c 0,16,17
 402 994 402 994 571 972 c 1,18,19
 586 920 586 920 595 824 c 1,20,-1
 519 824 l 1,21,22
 627 508 627 508 662 410 c 1,23,24
 725 607 725 607 786 824 c 1,25,-1
 684 824 l 1,26,-1
 704 972 l 1,0,1
EndSplineSet
EndChar

StartChar: w
Encoding: 119 119 109
Width: 1835
GlyphClass: 2
Flags: W
LayerCount: 2
Fore
SplineSet
1317 972 m 1,0,1
 1473 994 1473 994 1570 994 c 128,-1,2
 1667 994 1667 994 1830 972 c 1,3,-1
 1830 824 l 1,4,-1
 1700 824 l 1,5,6
 1588 392 1588 392 1459 0 c 1,7,8
 1374 -10 1374 -10 1306 -10 c 0,9,10
 1206 -10 1206 -10 1098 0 c 1,11,-1
 933 509 l 1,12,13
 841 191 841 191 777 0 c 1,14,15
 692 -10 692 -10 624 -10 c 0,16,17
 524 -10 524 -10 416 0 c 1,18,-1
 99 824 l 1,19,-1
 -27 824 l 1,20,-1
 -27 972 l 1,21,22
 135 994 135 994 256 994 c 0,23,24
 410 994 410 994 572 972 c 1,25,26
 587 920 587 920 596 824 c 1,27,-1
 520 824 l 1,28,29
 526 809 526 809 633 410 c 1,30,-1
 789 910 l 2,31,32
 803 953 803 953 843.5 968 c 128,-1,33
 884 983 884 983 943 983 c 128,-1,34
 1002 983 1002 983 1035 979.5 c 128,-1,35
 1068 976 1068 976 1091 966 c 0,36,37
 1132 947 1132 947 1154 882 c 2,38,-1
 1305 410 l 1,39,-1
 1398 824 l 1,40,-1
 1297 824 l 1,41,42
 1298 828 1298 828 1300.5 849 c 128,-1,43
 1303 870 1303 870 1306 895 c 0,44,45
 1314 958 1314 958 1317 972 c 1,0,1
EndSplineSet
EndChar

StartChar: x
Encoding: 120 120 110
Width: 1386
GlyphClass: 2
Flags: W
LayerCount: 2
Fore
SplineSet
29 972 m 1,0,1
 190 994 190 994 314 994 c 0,2,3
 476 994 476 994 658 972 c 1,4,5
 673 920 673 920 682 824 c 1,6,-1
 616 824 l 1,7,-1
 749 630 l 1,8,-1
 892 824 l 1,9,-1
 801 824 l 1,10,-1
 821 972 l 1,11,12
 983 994 983 994 1082 994 c 128,-1,13
 1181 994 1181 994 1344 972 c 1,14,-1
 1344 824 l 1,15,-1
 1202 824 l 1,16,-1
 961 517 l 1,17,-1
 1251 147 l 1,18,-1
 1374 147 l 1,19,-1
 1374 -11 l 1,20,21
 1065 10 1065 10 715 -11 c 1,22,23
 711 7 711 7 708 18.5 c 128,-1,24
 705 30 705 30 703 45 c 0,25,26
 695 102 695 102 691 147 c 1,27,-1
 770 147 l 1,28,-1
 614 363 l 1,29,-1
 458 147 l 1,30,-1
 562 147 l 1,31,32
 557 125 557 125 550 61 c 2,33,-1
 542 -11 l 1,34,35
 377 0 377 0 295 0 c 128,-1,36
 213 0 213 0 19 -11 c 1,37,-1
 19 147 l 1,38,-1
 146 147 l 1,39,-1
 411 472 l 1,40,-1
 167 824 l 1,41,-1
 29 824 l 1,42,-1
 29 972 l 1,0,1
EndSplineSet
EndChar

StartChar: y
Encoding: 121 121 111
Width: 1271
GlyphClass: 2
Flags: W
LayerCount: 2
Fore
SplineSet
-19 972 m 1,0,1
 142 994 142 994 264 994 c 0,2,3
 420 994 420 994 590 972 c 1,4,5
 605 920 605 920 614 824 c 1,6,-1
 538 824 l 1,7,-1
 682 393 l 1,8,9
 758 647 758 647 804 824 c 1,10,-1
 702 824 l 1,11,-1
 723 972 l 1,12,13
 893 994 893 994 993 994 c 128,-1,14
 1093 994 1093 994 1256 972 c 1,15,-1
 1256 824 l 1,16,-1
 1125 824 l 1,17,-1
 836 11 l 2,18,19
 763 -192 763 -192 661 -276 c 0,20,21
 537 -377 537 -377 289 -377 c 0,22,23
 146 -377 146 -377 45 -340 c 1,24,-1
 91 -169 l 1,25,26
 218 -217 218 -217 319 -217 c 0,27,28
 424 -218 424 -218 456 -76 c 0,29,30
 464 -38 464 -38 470 1 c 1,31,-1
 109 824 l 1,32,-1
 -19 824 l 1,33,-1
 -19 972 l 1,0,1
EndSplineSet
EndChar

StartChar: z
Encoding: 122 122 112
Width: 1063
GlyphClass: 2
Flags: W
LayerCount: 2
Fore
SplineSet
246 0 m 1,0,1
 146 2 146 2 121 9 c 0,2,3
 54 28 54 28 54 99 c 2,4,-1
 54 202 l 1,5,-1
 619 824 l 1,6,-1
 324 824 l 2,7,8
 283 824 283 824 270 808 c 0,9,10
 245 776 245 776 243 646 c 1,11,-1
 70 636 l 1,12,-1
 70 984 l 1,13,-1
 904 984 l 2,14,15
 1002 984 1002 984 1012 928 c 0,16,17
 1015 910 1015 910 1015 889 c 2,18,-1
 1015 753 l 1,19,-1
 490 164 l 1,20,-1
 762 164 l 2,21,22
 814 164 814 164 848 268 c 0,23,24
 860 306 860 306 877 360 c 1,25,-1
 1019 368 l 1,26,-1
 1019 0 l 1,27,-1
 246 0 l 1,0,1
EndSplineSet
EndChar

StartChar: braceleft
Encoding: 123 123 113
Width: 772
GlyphClass: 2
Flags: W
LayerCount: 2
Fore
SplineSet
401 631 m 1,0,1
 536 559 536 559 536 412 c 2,2,-1
 536 42 l 2,3,4
 536 -73 536 -73 541 -73 c 1,5,6
 586 -86 586 -86 723 -100 c 1,7,-1
 723 -133 l 2,8,9
 723 -211 723 -211 520 -211 c 0,10,11
 344 -212 344 -212 264 -162 c 0,12,13
 166 -102 166 -102 166 43 c 2,14,-1
 166 405 l 2,15,16
 166 484 166 484 149 514 c 0,17,18
 119 567 119 567 53 582 c 1,19,-1
 53 688 l 1,20,21
 156 698 156 698 164 831 c 0,22,23
 166 866 166 866 166 896 c 2,24,-1
 166 1231 l 2,25,26
 166 1433 166 1433 379 1465 c 0,27,28
 446 1475 446 1475 507 1475 c 128,-1,29
 568 1475 568 1475 602.5 1473 c 0,30,31
 636 1471 636 1471 662 1463 c 0,32,33
 717 1446 717 1446 723 1398 c 1,34,-1
 723 1361 l 1,35,36
 615 1354 615 1354 587 1337 c 0,37,38
 536 1306 536 1306 536 1222 c 2,39,-1
 536 853 l 2,40,41
 536 701 536 701 401 631 c 1,0,1
EndSplineSet
EndChar

StartChar: bar
Encoding: 124 124 114
Width: 1107
GlyphClass: 2
Flags: W
LayerCount: 2
Fore
SplineSet
525 1412 m 2,0,1
 611 1412 611 1412 659 1382.5 c 128,-1,2
 707 1353 707 1353 707 1282 c 2,3,-1
 707 -225 l 1,4,-1
 580 -225 l 2,5,6
 474 -226 474 -226 436 -184 c 0,7,8
 398 -143 398 -143 399 -31 c 2,9,-1
 399 1412 l 1,10,-1
 525 1412 l 2,0,1
EndSplineSet
EndChar

StartChar: braceright
Encoding: 125 125 115
Width: 767
GlyphClass: 2
Flags: W
LayerCount: 2
Fore
SplineSet
235 412 m 2,0,1
 235 559 235 559 370 631 c 1,2,3
 235 701 235 701 235 853 c 2,4,-1
 235 1222 l 2,5,6
 235 1306 235 1306 189 1334 c 0,7,8
 156 1354 156 1354 48 1361 c 1,9,-1
 48 1398 l 1,10,11
 56 1466 56 1466 168 1473 c 0,12,13
 202 1475 202 1475 263.5 1475 c 128,-1,14
 325 1475 325 1475 392 1465 c 0,15,16
 458 1455 458 1455 506 1428 c 0,17,18
 604 1372 604 1372 605 1231 c 2,19,-1
 605 896 l 2,20,21
 606 808 606 808 618 771 c 0,22,23
 644 695 644 695 718 688 c 1,24,-1
 718 582 l 1,25,26
 624 560 624 560 610 471 c 0,27,28
 606 442 606 442 605 405 c 2,29,-1
 605 43 l 2,30,31
 605 -166 605 -166 396 -200 c 0,32,33
 331 -210 331 -210 284 -210.5 c 128,-1,34
 237 -211 237 -211 203.5 -209 c 0,35,36
 170 -208 170 -208 136 -200 c 0,37,38
 48 -181 48 -181 48 -133 c 2,39,-1
 48 -100 l 1,40,41
 185 -86 185 -86 230 -73 c 1,42,43
 235 -73 235 -73 235 42 c 2,44,-1
 235 412 l 2,0,1
EndSplineSet
EndChar

StartChar: asciitilde
Encoding: 126 126 116
Width: 1159
GlyphClass: 2
Flags: W
LayerCount: 2
Fore
SplineSet
1004 645 m 1,0,1
 1054 580 1054 580 1068 543 c 1,2,3
 1036 438 1036 438 910 404 c 0,4,5
 870 394 870 394 832 394 c 128,-1,6
 794 394 794 394 767.5 397 c 128,-1,7
 741 400 741 400 714 407 c 0,8,9
 661 421 661 421 597 449 c 128,-1,10
 533 477 533 477 495 492.5 c 128,-1,11
 457 508 457 508 430 516 c 0,12,13
 383 530 383 530 352 530 c 0,14,15
 248 530 248 530 167 398 c 1,16,17
 107 458 107 458 91 495 c 1,18,19
 109 565 109 565 187.5 618 c 128,-1,20
 266 671 266 671 332 671 c 0,21,22
 447 671 447 671 527.5 635 c 128,-1,23
 608 599 608 599 649.5 581.5 c 0,24,25
 690 564 690 564 718 554 c 0,26,27
 762 538 762 538 816 538 c 128,-1,28
 870 538 870 538 923 567.5 c 128,-1,29
 976 597 976 597 1004 645 c 1,0,1
EndSplineSet
EndChar

StartChar: cent
Encoding: 162 162 119
Width: 1192
GlyphClass: 2
Flags: W
LayerCount: 2
Fore
SplineSet
622 815 m 1,0,1
 520 744 520 744 520 502.5 c 128,-1,2
 520 261 520 261 622 179 c 1,3,-1
 622 815 l 1,0,1
759 1003 m 1,4,5
 993 986 993 986 1124 872 c 1,6,-1
 1107 674 l 1,7,-1
 836 674 l 1,8,9
 792 760 792 760 759 797 c 1,10,-1
 759 148 l 1,11,12
 914 151 914 151 1099 265 c 1,13,-1
 1116 105 l 1,14,15
 970 -2 970 -2 759 -19 c 1,16,-1
 759 -290 l 1,17,-1
 736 -290 l 2,18,19
 665 -290 665 -290 647 -276 c 0,20,21
 622 -255 622 -255 622 -190 c 2,22,-1
 622 -19 l 1,23,24
 382 -4 382 -4 240 128 c 0,25,26
 94 263 94 263 94 486 c 0,27,28
 94 722 94 722 256 860 c 0,29,30
 398 981 398 981 622 1001 c 1,31,-1
 622 1278 l 1,32,-1
 644 1278 l 2,33,34
 710 1278 710 1278 728 1266 c 0,35,36
 758 1244 758 1244 759 1183 c 2,37,-1
 759 1003 l 1,4,5
EndSplineSet
EndChar

StartChar: sterling
Encoding: 163 163 120
Width: 1255
GlyphClass: 2
Flags: W
LayerCount: 2
Fore
SplineSet
641 632 m 1,0,1
 646 527 646 527 646 492 c 128,-1,2
 646 457 646 457 639.5 414.5 c 128,-1,3
 633 372 633 372 620 332 c 0,4,5
 596 257 596 257 545 167 c 1,6,-1
 681 167 l 2,7,8
 832 167 832 167 900 234 c 0,9,10
 955 288 955 288 1000 441 c 1,11,-1
 1207 419 l 1,12,13
 1207 265 1207 265 1178 21 c 1,14,15
 951 0 951 0 667 0 c 2,16,-1
 78 0 l 1,17,18
 41 64 41 64 41 144 c 1,19,20
 142 173 142 173 177 208 c 0,21,22
 243 272 243 272 243 369.5 c 128,-1,23
 243 467 243 467 232 632 c 1,24,-1
 40 632 l 1,25,-1
 40 705 l 2,26,27
 40 776 40 776 111 783 c 0,28,29
 132 785 132 785 155 785 c 2,30,-1
 212 785 l 1,31,32
 187 960 187 960 187 1054 c 128,-1,33
 187 1148 187 1148 229 1218.5 c 128,-1,34
 271 1289 271 1289 343 1332 c 0,35,36
 477 1412 477 1412 713 1412 c 0,37,38
 1022 1412 1022 1412 1198 1287 c 1,39,-1
 1198 973 l 1,40,-1
 952 948 l 1,41,42
 900 1100 900 1100 846 1170.5 c 128,-1,43
 792 1241 792 1241 724 1241 c 0,44,45
 605 1241 605 1241 605 1031 c 0,46,47
 605 974 605 974 623 785 c 1,48,-1
 933 785 l 1,49,-1
 933 712 l 2,50,51
 933 632 933 632 841 632 c 2,52,-1
 641 632 l 1,0,1
EndSplineSet
EndChar

StartChar: currency
Encoding: 164 164 121
Width: 1288
GlyphClass: 2
Flags: W
LayerCount: 2
Fore
SplineSet
282 730 m 0,0,1
 282 660 282 660 307 601 c 128,-1,2
 332 542 332 542 376 499 c 0,3,4
 468 408 468 408 601 408 c 0,5,6
 737 408 737 408 829 502 c 0,7,8
 921 595 921 595 921 731 c 0,9,10
 921 868 921 868 829 962 c 128,-1,11
 737 1056 737 1056 601 1055.5 c 0,12,13
 465 1054 465 1054 374 962 c 0,14,15
 282 868 282 868 282 730 c 0,0,1
330 1093 m 1,16,17
 452 1184 452 1184 598 1184 c 128,-1,18
 744 1184 744 1184 869 1092 c 1,19,-1
 1001 1224 l 1,20,21
 1039 1186 1039 1186 1055 1166.5 c 128,-1,22
 1071 1147 1071 1147 1071 1128.5 c 128,-1,23
 1071 1110 1071 1110 1070 1108 c 2,24,-1
 963 1002 l 1,25,26
 1053 885 1053 885 1053 729.5 c 128,-1,27
 1053 574 1053 574 962 462 c 1,28,-1
 1092 330 l 1,29,30
 1026 264 1026 264 998 252 c 1,31,32
 969 263 969 263 927.5 308.5 c 128,-1,33
 886 354 886 354 871 369 c 1,34,35
 747 279 747 279 598.5 279 c 128,-1,36
 450 279 450 279 331 369 c 1,37,-1
 200 240 l 1,38,39
 133 304 133 304 120 328 c 1,40,41
 133 356 133 356 158 381 c 2,42,-1
 240 462 l 1,43,44
 150 576 150 576 150 731 c 128,-1,45
 150 886 150 886 240 1000 c 1,46,-1
 107 1131 l 1,47,48
 130 1152 130 1152 153.5 1176 c 128,-1,49
 177 1200 177 1200 200 1210 c 1,50,51
 231 1192 231 1192 250 1173 c 2,52,-1
 330 1093 l 1,16,17
EndSplineSet
EndChar

StartChar: yen
Encoding: 165 165 122
Width: 1567
GlyphClass: 2
Flags: W
LayerCount: 2
Fore
SplineSet
1213 -11 m 1,0,1
 967 0 967 0 814.5 0 c 128,-1,2
 662 0 662 0 396 -11 c 1,3,-1
 396 147 l 1,4,-1
 582 147 l 1,5,6
 587 182 587 182 587 217 c 2,7,-1
 587 266 l 1,8,-1
 236 266 l 1,9,-1
 236 341 l 1,10,11
 270 381 270 381 316.5 397 c 128,-1,12
 363 413 363 413 440 413 c 2,13,-1
 585 413 l 1,14,-1
 585 514 l 1,15,-1
 236 514 l 1,16,-1
 236 590 l 1,17,18
 300 662 300 662 437 662 c 2,19,-1
 496 662 l 1,20,21
 390 837 390 837 317 954.5 c 128,-1,22
 244 1072 244 1072 206 1140 c 2,23,-1
 164 1215 l 1,24,-1
 17 1215 l 1,25,-1
 -7 1387 l 1,26,27
 197 1399 197 1399 411.5 1399 c 128,-1,28
 626 1399 626 1399 749 1387 c 1,29,-1
 764 1215 l 1,30,-1
 636 1215 l 1,31,32
 663 1138 663 1138 668 1128 c 2,33,-1
 876 752 l 1,34,-1
 1052 1123 l 2,35,36
 1063 1147 1063 1147 1074 1215 c 1,37,-1
 918 1215 l 1,38,-1
 953 1387 l 1,39,40
 1077 1399 1077 1399 1240 1399 c 2,41,-1
 1314 1399 l 2,42,43
 1432 1399 1432 1399 1569 1387 c 1,44,-1
 1545 1215 l 1,45,-1
 1398 1215 l 1,46,47
 1385 1199 1385 1199 1352 1123 c 1,48,49
 1301 1032 1301 1032 1213 869 c 2,50,-1
 1101 662 l 1,51,-1
 1361 662 l 1,52,-1
 1361 596 l 2,53,54
 1362 530 1362 530 1296 519 c 0,55,56
 1278 516 1278 516 1258 514 c 1,57,-1
 1020 514 l 1,58,-1
 1020 413 l 1,59,-1
 1361 413 l 1,60,-1
 1361 348 l 2,61,62
 1361 301 1361 301 1334.5 284.5 c 128,-1,63
 1308 268 1308 268 1265 266 c 1,64,-1
 1020 266 l 1,65,-1
 1020 239 l 2,66,67
 1020 195 1020 195 1025 147 c 1,68,-1
 1213 147 l 1,69,-1
 1213 -11 l 1,0,1
EndSplineSet
EndChar

StartChar: brokenbar
Encoding: 166 166 123
Width: 1150
GlyphClass: 2
Flags: W
LayerCount: 2
Fore
SplineSet
566 378 m 2,0,1
 646 378 646 378 690 361.5 c 128,-1,2
 734 345 734 345 750 298 c 1,3,-1
 750 -405 l 1,4,-1
 542 -405 l 2,5,6
 452 -404 452 -404 422 -376 c 0,7,8
 405 -360 405 -360 403.5 -333 c 128,-1,9
 402 -306 402 -306 402 -292 c 2,10,-1
 402 378 l 1,11,-1
 566 378 l 2,0,1
566 1448 m 2,12,13
 645 1448 645 1448 689.5 1431 c 128,-1,14
 734 1414 734 1414 750 1367 c 1,15,-1
 750 664 l 1,16,-1
 584 664 l 2,17,18
 458 664 458 664 424 692 c 0,19,20
 404 708 404 708 403 736 c 128,-1,21
 402 764 402 764 402 778 c 2,22,-1
 402 1448 l 1,23,-1
 566 1448 l 2,12,13
EndSplineSet
EndChar

StartChar: section
Encoding: 167 167 124
Width: 975
GlyphClass: 2
Flags: W
LayerCount: 2
Fore
SplineSet
398 876 m 1,0,1
 350 848 350 848 324 816 c 128,-1,2
 298 784 298 784 298 746.5 c 128,-1,3
 298 709 298 709 306 689.5 c 128,-1,4
 314 670 314 670 330 654 c 0,5,6
 357 627 357 627 432 588 c 2,7,-1
 508 548 l 2,8,9
 555 522 555 522 613 499 c 1,10,11
 721 557 721 557 721 643 c 0,12,13
 721 723 721 723 535 809 c 1,14,15
 428 856 428 856 398 876 c 1,0,1
111 -15 m 1,16,17
 111 152 111 152 105 228 c 1,18,-1
 234 228 l 1,19,20
 270 117 270 117 328 68 c 0,21,22
 393 14 393 14 509 14 c 0,23,24
 640 14 640 14 682 92 c 0,25,26
 696 118 696 118 696 146 c 128,-1,27
 696 174 696 174 687 192.5 c 128,-1,28
 678 211 678 211 654 230 c 0,29,30
 610 266 610 266 490 323 c 2,31,-1
 351 389 l 2,32,33
 242 441 242 441 198 485 c 0,34,35
 107 579 107 579 107 709 c 0,36,37
 107 803 107 803 144 861 c 128,-1,38
 181 919 181 919 253 957 c 1,39,40
 194 1004 194 1004 174 1044 c 0,41,42
 140 1112 140 1112 140 1193.5 c 128,-1,43
 140 1275 140 1275 172 1333.5 c 128,-1,44
 204 1392 204 1392 258 1430 c 0,45,46
 362 1502 362 1502 545 1501 c 0,47,48
 698 1502 698 1502 806 1442 c 0,49,50
 832 1428 832 1428 844 1418 c 1,51,-1
 823 1212 l 1,52,-1
 709 1212 l 1,53,54
 678 1292 678 1292 647 1316 c 0,55,56
 594 1356 594 1356 501 1356 c 0,57,58
 334 1356 334 1356 334 1227 c 0,59,60
 334 1138 334 1138 449 1080 c 0,61,62
 486 1062 486 1062 565.5 1026 c 128,-1,63
 645 990 645 990 718.5 950.5 c 128,-1,64
 792 911 792 911 835 872 c 0,65,66
 912 802 912 802 912 682 c 0,67,68
 912 500 912 500 773 420 c 1,69,70
 894 332 894 332 894 186 c 0,71,72
 894 25 894 25 778 -58 c 0,73,74
 673 -133 673 -133 490 -133 c 0,75,76
 332 -133 332 -133 184 -65 c 0,77,78
 136 -43 136 -43 111 -15 c 1,16,17
EndSplineSet
EndChar

StartChar: dieresis
Encoding: 168 168 125
Width: 1240
GlyphClass: 2
Flags: W
LayerCount: 2
Fore
SplineSet
987 1142 m 128,-1,1
 942 1100 942 1100 867 1100 c 128,-1,2
 792 1100 792 1100 747 1142 c 128,-1,3
 702 1184 702 1184 702 1257 c 0,4,5
 702 1362 702 1362 802 1400 c 0,6,7
 832 1412 832 1412 867.5 1412 c 128,-1,8
 903 1412 903 1412 933.5 1400.5 c 128,-1,9
 964 1389 964 1389 986 1369 c 0,10,11
 1032 1326 1032 1326 1032 1255 c 128,-1,0
 1032 1184 1032 1184 987 1142 c 128,-1,1
492 1142.5 m 128,-1,13
 447 1100 447 1100 372 1100 c 128,-1,14
 297 1100 297 1100 252 1142 c 128,-1,15
 207 1184 207 1184 207 1257 c 0,16,17
 206 1362 206 1362 306 1400 c 0,18,19
 336 1412 336 1412 372 1412 c 128,-1,20
 408 1412 408 1412 438.5 1400.5 c 0,21,22
 468 1389 468 1389 490 1369 c 0,23,24
 536 1326 536 1326 536.5 1255.5 c 128,-1,12
 537 1185 537 1185 492 1142.5 c 128,-1,13
EndSplineSet
EndChar

StartChar: copyright
Encoding: 169 169 126
Width: 1625
GlyphClass: 2
Flags: W
LayerCount: 2
Fore
SplineSet
726 722 m 0,0,1
 726 464 726 464 863 464 c 0,2,3
 995 464 995 464 1132 546 c 1,4,-1
 1143 434 l 1,5,6
 1024 346 1024 346 847 346 c 0,7,8
 656 346 656 346 544 438 c 0,9,10
 428 534 428 534 428 701 c 0,11,12
 428 880 428 880 561 978 c 0,13,14
 676 1064 676 1064 859.5 1064 c 128,-1,15
 1043 1064 1043 1064 1149 971 c 1,16,-1
 1137 832 l 1,17,-1
 947 832 l 1,18,19
 893 945 893 945 844 945 c 0,20,21
 726 945 726 945 726 722 c 0,0,1
1534 698 m 128,-1,23
 1534 402 1534 402 1354 200 c 0,24,25
 1156 -22 1156 -22 821.5 -22 c 128,-1,26
 487 -22 487 -22 289 179.5 c 128,-1,27
 91 381 91 381 91 686 c 128,-1,28
 91 991 91 991 285.5 1201.5 c 128,-1,29
 480 1412 480 1412 812.5 1412 c 128,-1,30
 1145 1412 1145 1412 1339.5 1203 c 128,-1,22
 1534 994 1534 994 1534 698 c 128,-1,23
810 1244 m 0,31,32
 692 1244 692 1244 594.5 1201 c 0,33,34
 498 1158 498 1158 430 1084 c 0,35,36
 290 930 290 930 290 692 c 0,37,38
 290 452 290 452 434 300 c 0,39,40
 580 146 580 146 813 146 c 0,41,42
 1068 146 1068 146 1213 314 c 0,43,44
 1345 467 1345 467 1345 692 c 0,45,46
 1345 936 1345 936 1194 1090 c 0,47,48
 1044 1244 1044 1244 810 1244 c 0,31,32
EndSplineSet
EndChar

StartChar: ordfeminine
Encoding: 170 170 127
Width: 950
GlyphClass: 2
Flags: W
LayerCount: 2
Fore
SplineSet
801 1113 m 1,0,-1
 800 1003 l 1,1,-1
 800 873 l 2,2,3
 800 801 800 801 804 781 c 1,4,5
 826 779 826 779 853 779 c 2,6,-1
 915 779 l 1,7,-1
 915 696 l 1,8,9
 766 665 766 665 609 665 c 1,10,11
 556 702 556 702 520 747 c 1,12,13
 433 656 433 656 311 656 c 0,14,15
 126 656 126 656 68 778 c 0,16,17
 48 819 48 819 48 873 c 0,18,19
 48 1100 48 1100 479 1100 c 2,20,-1
 493 1100 l 1,21,-1
 493 1125 l 2,22,23
 492 1277 492 1277 472 1293 c 0,24,25
 464 1299 464 1299 455 1300 c 1,26,27
 374 1300 374 1300 244 1135 c 1,28,-1
 67 1248 l 1,29,30
 67 1312 67 1312 176 1362 c 0,31,32
 284 1410 284 1410 399.5 1410 c 128,-1,33
 515 1410 515 1410 585 1395 c 128,-1,34
 655 1380 655 1380 703 1346 c 0,35,36
 801 1276 801 1276 801 1113 c 1,0,-1
471 1013 m 2,37,38
 414 1013 414 1013 382 976 c 128,-1,39
 350 939 350 939 350 879 c 0,40,41
 350 773 350 773 412 773 c 0,42,43
 446 773 446 773 493 812 c 1,44,-1
 493 1013 l 1,45,-1
 471 1013 l 2,37,38
EndSplineSet
EndChar

StartChar: guillemotleft
Encoding: 171 171 128
Width: 1047
GlyphClass: 2
Flags: W
LayerCount: 2
Fore
SplineSet
358 539 m 1,0,1
 506 224 506 224 549 129 c 1,2,3
 507 93 507 93 440 66 c 1,4,-1
 107 469 l 1,5,-1
 107 583 l 1,6,-1
 446 1017 l 1,7,8
 539 983 539 983 565 964 c 1,9,10
 532 871 532 871 358 539 c 1,0,1
732 539 m 1,11,12
 880 224 880 224 923 129 c 1,13,14
 881 93 881 93 814 66 c 1,15,-1
 481 469 l 1,16,-1
 481 583 l 1,17,-1
 820 1017 l 1,18,19
 913 983 913 983 939 964 c 1,20,21
 906 871 906 871 732 539 c 1,11,12
EndSplineSet
EndChar

StartChar: logicalnot
Encoding: 172 172 129
Width: 1289
GlyphClass: 2
Flags: W
LayerCount: 2
Fore
SplineSet
1057 231 m 2,0,1
 995 231 995 231 960 247 c 128,-1,2
 925 263 925 263 925 307 c 2,3,-1
 925 631 l 1,4,-1
 107 631 l 1,5,-1
 107 710 l 2,6,7
 108 774 108 774 126 788 c 0,8,9
 152 808 152 808 222 808 c 2,10,-1
 1182 808 l 1,11,-1
 1182 231 l 1,12,-1
 1057 231 l 2,0,1
EndSplineSet
EndChar

StartChar: uni00AD
Encoding: 173 173 130
Width: 596
GlyphClass: 2
Flags: W
LayerCount: 2
Fore
SplineSet
41 544 m 2,0,1
 41 620 41 620 171 620 c 1,2,3
 178 621 178 621 189 621 c 2,4,-1
 774 621 l 1,5,-1
 774 515 l 2,6,7
 774 462 774 462 690 440 c 0,8,9
 665 434 665 434 636 429 c 1,10,-1
 41 429 l 1,11,-1
 41 544 l 2,0,1
EndSplineSet
EndChar

StartChar: registered
Encoding: 174 174 131
Width: 1625
GlyphClass: 2
Flags: W
LayerCount: 2
Fore
SplineSet
898 844 m 0,0,1
 898 906 898 906 873 931 c 128,-1,2
 848 956 848 956 786 956 c 2,3,-1
 771 956 l 1,4,-1
 771 726 l 1,5,-1
 796 726 l 2,6,7
 898 726 898 726 898 844 c 0,0,1
1534 698 m 128,-1,9
 1534 402 1534 402 1354 200 c 0,10,11
 1156 -22 1156 -22 821.5 -22 c 128,-1,12
 487 -22 487 -22 289 179.5 c 128,-1,13
 91 381 91 381 91 686 c 128,-1,14
 91 991 91 991 285.5 1201.5 c 128,-1,15
 480 1412 480 1412 812.5 1412 c 128,-1,16
 1145 1412 1145 1412 1339.5 1203 c 128,-1,8
 1534 994 1534 994 1534 698 c 128,-1,9
810 1244 m 0,17,18
 692 1244 692 1244 594.5 1201 c 0,19,20
 498 1158 498 1158 430 1084 c 0,21,22
 290 930 290 930 290 692 c 0,23,24
 290 452 290 452 434 300 c 0,25,26
 580 146 580 146 813 146 c 0,27,28
 1068 146 1068 146 1213 314 c 0,29,30
 1345 467 1345 467 1345 692 c 0,31,32
 1345 936 1345 936 1194 1090 c 0,33,34
 1044 1244 1044 1244 810 1244 c 0,17,18
461 1037 m 1,35,36
 617 1045 617 1045 734.5 1045 c 128,-1,37
 852 1045 852 1045 910.5 1037.5 c 128,-1,38
 969 1030 969 1030 1013 1008 c 0,39,40
 1109 961 1109 961 1109 848 c 0,41,42
 1110 746 1110 746 1004 696 c 0,43,44
 972 681 972 681 936 674 c 1,45,46
 1011 647 1011 647 1056 599.5 c 128,-1,47
 1101 552 1101 552 1123 471 c 1,48,-1
 1197 478 l 1,49,-1
 1204 402 l 1,50,51
 1152 354 1152 354 1056.5 354 c 128,-1,52
 961 354 961 354 936 429 c 1,53,54
 886 568 886 568 823 656 c 1,55,-1
 771 656 l 1,56,-1
 771 494 l 2,57,58
 771 463 771 463 774 450 c 1,59,-1
 841 450 l 1,60,-1
 841 364 l 1,61,-1
 750 368 l 2,62,63
 730 369 730 369 711 369 c 128,-1,64
 692 369 692 369 673 369 c 2,65,-1
 479 364 l 1,66,-1
 479 450 l 1,67,-1
 560 450 l 1,68,69
 563 462 563 462 563 494 c 2,70,-1
 563 914 l 2,71,72
 563 944 563 944 560 956 c 1,73,-1
 461 956 l 1,74,-1
 461 1037 l 1,35,36
EndSplineSet
EndChar

StartChar: macron
Encoding: 175 175 132
Width: 1102
GlyphClass: 2
Flags: W
LayerCount: 2
Fore
SplineSet
172 1345 m 1,0,-1
 930 1345 l 1,1,-1
 930 1176 l 1,2,-1
 172 1176 l 1,3,-1
 172 1345 l 1,0,-1
EndSplineSet
EndChar

StartChar: degree
Encoding: 176 176 133
Width: 567
GlyphClass: 2
Flags: W
LayerCount: 2
Fore
SplineSet
283 1037 m 128,-1,1
 238 1037 238 1037 200.5 1050 c 0,2,3
 163 1064 163 1064 136 1088 c 0,4,5
 79 1140 79 1140 79 1226 c 0,6,7
 79 1309 79 1309 137 1361 c 0,8,9
 193 1411 193 1411 283 1411 c 0,10,11
 422 1411 422 1411 472 1303 c 0,12,13
 488 1269 488 1269 487.5 1226 c 128,-1,14
 487 1183 487 1183 472 1148 c 128,-1,15
 457 1113 457 1113 430 1088.5 c 128,-1,16
 403 1064 403 1064 365.5 1050.5 c 128,-1,0
 328 1037 328 1037 283 1037 c 128,-1,1
196.5 1308 m 128,-1,18
 164 1277 164 1277 164 1224.5 c 128,-1,19
 164 1172 164 1172 196.5 1141 c 128,-1,20
 229 1110 229 1110 283 1110 c 128,-1,21
 337 1110 337 1110 369.5 1141 c 128,-1,22
 402 1172 402 1172 402 1224.5 c 128,-1,23
 402 1277 402 1277 369.5 1308 c 128,-1,24
 337 1339 337 1339 283 1339 c 128,-1,17
 229 1339 229 1339 196.5 1308 c 128,-1,18
EndSplineSet
EndChar

StartChar: plusminus
Encoding: 177 177 134
Width: 1139
GlyphClass: 2
Flags: W
LayerCount: 2
Fore
SplineSet
477 1153 m 2,0,1
 556 1153 556 1153 601 1136.5 c 128,-1,2
 646 1120 646 1120 660 1075 c 1,3,-1
 660 857 l 1,4,-1
 929 857 l 1,5,-1
 929 767 l 1,6,7
 923 710 923 710 903 695 c 0,8,9
 869 669 869 669 795 669 c 2,10,-1
 660 669 l 1,11,-1
 660 371 l 1,12,-1
 545 371 l 1,13,14
 459 375 459 375 439 392.5 c 128,-1,15
 419 410 419 410 417 430.5 c 128,-1,16
 415 451 415 451 415 479 c 2,17,-1
 415 669 l 1,18,-1
 148 669 l 1,19,-1
 148 759 l 2,20,21
 148 852 148 852 248 856 c 0,22,23
 278 858 278 858 313 857 c 2,24,-1
 415 857 l 1,25,-1
 415 1153 l 1,26,-1
 477 1153 l 2,0,1
1032 130 m 2,27,28
 1032 82 1032 82 996 57 c 128,-1,29
 960 32 960 32 905 32 c 2,30,-1
 107 32 l 1,31,-1
 107 121 l 2,32,33
 107 186 107 186 149 205 c 0,34,35
 180 219 180 219 292 219 c 2,36,-1
 1032 219 l 1,37,-1
 1032 130 l 2,27,28
EndSplineSet
EndChar

StartChar: twosuperior
Encoding: 178 178 135
Width: 846
GlyphClass: 2
Flags: W
LayerCount: 2
Fore
SplineSet
778 530 m 1,0,1
 694 522 694 522 546 522 c 2,2,-1
 148 522 l 2,3,4
 99 522 99 522 81.5 539 c 128,-1,5
 64 556 64 556 64 582 c 0,6,7
 64 616 64 616 66 639 c 1,8,9
 437 971 437 971 475 1051 c 0,10,11
 499 1101 499 1101 501 1178 c 1,12,13
 501 1307 501 1307 408 1307 c 0,14,15
 302 1307 302 1307 247 1114 c 1,16,-1
 69 1230 l 1,17,18
 69 1308 69 1308 169 1360 c 0,19,20
 270 1412 270 1412 417 1412 c 0,21,22
 753 1412 753 1412 753 1154 c 0,23,24
 754 979 754 979 488 789 c 0,25,26
 412 735 412 735 333 685 c 1,27,-1
 521 685 l 2,28,29
 547 685 547 685 595 694 c 1,30,31
 639 767 639 767 665 823 c 1,32,-1
 778 812 l 1,33,-1
 778 530 l 1,0,1
EndSplineSet
EndChar

StartChar: threesuperior
Encoding: 179 179 136
Width: 823
GlyphClass: 2
Flags: W
LayerCount: 2
Fore
SplineSet
64 1245 m 1,0,1
 114 1330 114 1330 192 1371 c 128,-1,2
 270 1412 270 1412 364.5 1412 c 128,-1,3
 459 1412 459 1412 518.5 1399 c 128,-1,4
 578 1386 578 1386 623 1361 c 0,5,6
 722 1306 722 1306 722 1213 c 0,7,8
 722 1042 722 1042 524 1002 c 1,9,10
 690 977 690 977 738 852 c 0,11,12
 754 810 754 810 754 747 c 128,-1,13
 754 684 754 684 721 635 c 128,-1,14
 688 586 688 586 636 556 c 0,15,16
 540 502 540 502 389.5 502 c 128,-1,17
 239 502 239 502 88 573 c 1,18,-1
 88 794 l 1,19,-1
 220 782 l 1,20,21
 238 704 238 704 271.5 660 c 128,-1,22
 305 616 305 616 368.5 616 c 128,-1,23
 432 616 432 616 464.5 656 c 128,-1,24
 497 696 497 696 497 763 c 0,25,26
 497 925 497 925 323 925 c 2,27,-1
 228 925 l 1,28,-1
 228 1030 l 1,29,-1
 306 1030 l 2,30,31
 458 1030 458 1030 502 1126 c 0,32,33
 514 1153 514 1153 514 1193.5 c 128,-1,34
 514 1234 514 1234 480 1263.5 c 128,-1,35
 446 1293 446 1293 407 1293 c 128,-1,36
 368 1293 368 1293 341.5 1283.5 c 0,37,38
 316 1274 316 1274 292 1255 c 0,39,40
 242 1215 242 1215 222 1140 c 1,41,-1
 64 1245 l 1,0,1
EndSplineSet
EndChar

StartChar: acute
Encoding: 180 180 137
Width: 1075
GlyphClass: 2
Flags: W
LayerCount: 2
Fore
SplineSet
264 1113 m 1,0,-1
 414 1482 l 1,1,-1
 809 1482 l 1,2,-1
 499 1113 l 1,3,-1
 264 1113 l 1,0,-1
EndSplineSet
EndChar

StartChar: mu
Encoding: 181 181 138
Width: 1564
GlyphClass: 2
Flags: W
LayerCount: 2
Fore
SplineSet
493 994 m 0,0,1
 707 994 707 994 707 899 c 2,2,-1
 707 278 l 1,3,4
 711 189 711 189 729 169.5 c 128,-1,5
 747 150 747 150 768 150 c 128,-1,6
 789 150 789 150 812.5 157 c 128,-1,7
 836 164 836 164 860 174 c 0,8,9
 907 195 907 195 937 226 c 1,10,11
 941 278 941 278 941 374 c 2,12,-1
 941 824 l 1,13,-1
 808 824 l 1,14,-1
 797 950 l 1,15,16
 990 994 990 994 1152 994 c 0,17,18
 1296 994 1296 994 1344 942 c 0,19,20
 1360 924 1360 924 1361 899 c 2,21,-1
 1361 272 l 2,22,23
 1361 181 1361 181 1369 147 c 1,24,-1
 1521 147 l 1,25,-1
 1521 35 l 1,26,27
 1319 -11 1319 -11 1148 -11 c 0,28,29
 1042 -12 1042 -12 1009 4 c 0,30,31
 949 32 949 32 945 109 c 1,32,33
 798 -6 798 -6 646 -20 c 1,34,-1
 646 -72 l 2,35,36
 646 -167 646 -167 691 -217.5 c 128,-1,37
 736 -268 736 -268 822 -294 c 1,38,39
 824 -324 824 -324 825.5 -340 c 128,-1,40
 827 -356 827 -356 827 -358 c 2,41,-1
 827 -367 l 1,42,43
 704 -454 704 -454 564 -454 c 128,-1,44
 424 -454 424 -454 356 -409.5 c 128,-1,45
 288 -365 288 -365 288 -261 c 2,46,-1
 288 824 l 1,47,-1
 146 824 l 1,48,-1
 133 950 l 1,49,50
 332 994 332 994 493 994 c 0,0,1
EndSplineSet
EndChar

StartChar: paragraph
Encoding: 182 182 139
Width: 1174
GlyphClass: 2
Flags: W
LayerCount: 2
Fore
SplineSet
464 595 m 1,0,1
 66 595 66 595 66 1004 c 0,2,3
 66 1228 66 1228 236 1316 c 0,4,5
 374 1387 374 1387 639 1387 c 2,6,-1
 781 1387 l 2,7,8
 1022 1387 1022 1387 1108 1372 c 1,9,-1
 1108 1272 l 1,10,-1
 1016 1272 l 2,11,12
 944 1272 944 1272 913 1261 c 1,13,14
 898 1217 898 1217 898 1141 c 2,15,-1
 898 64 l 2,16,17
 898 -13 898 -13 914 -57 c 1,18,19
 942 -66 942 -66 1017 -66 c 2,20,-1
 1106 -66 l 1,21,-1
 1106 -202 l 1,22,23
 922 -183 922 -183 758 -183 c 1,24,-1
 758 1311 l 1,25,-1
 604 1311 l 1,26,-1
 604 -183 l 1,27,28
 440 -183 440 -183 256 -202 c 1,29,-1
 256 -66 l 1,30,-1
 345 -66 l 2,31,32
 419 -66 419 -66 448 -57 c 1,33,34
 464 -13 464 -13 464 64 c 2,35,-1
 464 595 l 1,0,1
EndSplineSet
EndChar

StartChar: periodcentered
Encoding: 183 183 140
Width: 631
GlyphClass: 2
Flags: W
LayerCount: 2
Fore
SplineSet
515 576 m 0,0,1
 515 535 515 535 501 499.5 c 128,-1,2
 487 464 487 464 460.5 439.5 c 128,-1,3
 434 415 434 415 397 401.5 c 128,-1,4
 360 388 360 388 315 388 c 128,-1,5
 270 388 270 388 233 401.5 c 0,6,7
 196 416 196 416 170 440 c 0,8,9
 116 490 116 490 115 579 c 0,10,11
 115 664 115 664 172 716 c 128,-1,12
 229 768 229 768 315 767 c 0,13,14
 408 767 408 767 462 711 c 0,15,16
 516 656 516 656 515 576 c 0,0,1
EndSplineSet
EndChar

StartChar: cedilla
Encoding: 184 184 141
Width: 611
GlyphClass: 2
Flags: W
LayerCount: 2
Fore
SplineSet
218 -186 m 1,0,1
 214 -183 214 -183 167 -163 c 1,2,-1
 252 11 l 1,3,-1
 353 11 l 1,4,-1
 297 -96 l 1,5,6
 466 -106 466 -106 507 -194 c 0,7,8
 522 -226 522 -226 522 -272 c 0,9,10
 522 -384 522 -384 453.5 -441 c 128,-1,11
 385 -498 385 -498 268.5 -498 c 128,-1,12
 152 -498 152 -498 87 -457 c 1,13,-1
 87 -366 l 1,14,15
 166 -390 166 -390 223.5 -390 c 128,-1,16
 281 -390 281 -390 318 -365 c 128,-1,17
 355 -340 355 -340 355 -291 c 0,18,19
 355 -194 355 -194 255 -178 c 0,20,21
 250 -178 250 -178 218 -186 c 1,0,1
EndSplineSet
EndChar

StartChar: onesuperior
Encoding: 185 185 142
Width: 675
GlyphClass: 2
Flags: W
LayerCount: 2
Fore
SplineSet
585 517 m 1,0,1
 468 524 468 524 335.5 524 c 128,-1,2
 203 524 203 524 77 517 c 1,3,-1
 77 629 l 1,4,-1
 193 629 l 1,5,6
 196 641 196 641 196 686 c 2,7,-1
 196 1288 l 2,8,9
 196 1294 196 1294 195 1299 c 1,10,-1
 88 1299 l 1,11,-1
 88 1371 l 1,12,13
 222 1399 222 1399 300 1399 c 128,-1,14
 378 1399 378 1399 404 1396 c 0,15,16
 430 1394 430 1394 444 1386 c 0,17,18
 466 1374 466 1374 466 1333 c 2,19,-1
 466 652 l 2,20,21
 466 639 466 639 468 629 c 1,22,-1
 585 629 l 1,23,-1
 585 517 l 1,0,1
EndSplineSet
EndChar

StartChar: ordmasculine
Encoding: 186 186 143
Width: 989
GlyphClass: 2
Flags: W
LayerCount: 2
Fore
SplineSet
553.5 1266.5 m 128,-1,1
 531 1287 531 1287 493.5 1287 c 128,-1,2
 456 1287 456 1287 433 1266.5 c 128,-1,3
 410 1246 410 1246 398 1212 c 0,4,5
 378 1155 378 1155 377.5 1068.5 c 128,-1,6
 377 982 377 982 381 936.5 c 128,-1,7
 385 891 385 891 398 856 c 128,-1,8
 411 821 411 821 433.5 800.5 c 128,-1,9
 456 780 456 780 494 780 c 128,-1,10
 532 780 532 780 555 800.5 c 128,-1,11
 578 821 578 821 590 856 c 0,12,13
 610 913 610 913 610.5 998.5 c 128,-1,14
 611 1084 611 1084 606.5 1130 c 128,-1,15
 602 1176 602 1176 589 1211 c 128,-1,0
 576 1246 576 1246 553.5 1266.5 c 128,-1,1
931 1026 m 0,16,17
 931 933 931 933 894 862.5 c 0,18,19
 856 792 856 792 796 746 c 0,20,21
 678 656 678 656 495 656 c 0,22,23
 298 656 298 656 180 757 c 0,24,25
 58 861 58 861 58 1031 c 0,26,27
 58 1208 58 1208 182 1312 c 0,28,29
 301 1412 301 1412 495 1412 c 0,30,31
 688 1412 688 1412 808 1310 c 0,32,33
 931 1206 931 1206 931 1026 c 0,16,17
EndSplineSet
EndChar

StartChar: guillemotright
Encoding: 187 187 144
Width: 1046
GlyphClass: 2
Flags: W
LayerCount: 2
Fore
SplineSet
688 539 m 1,0,1
 506 882 506 882 481 964 c 1,2,3
 507 983 507 983 600 1017 c 1,4,-1
 938 583 l 1,5,-1
 938 469 l 1,6,-1
 606 66 l 1,7,8
 542 90 542 90 497 129 c 1,9,10
 540 224 540 224 688 539 c 1,0,1
314 539 m 1,11,12
 132 882 132 882 107 964 c 1,13,14
 133 983 133 983 226 1017 c 1,15,-1
 564 583 l 1,16,-1
 564 469 l 1,17,-1
 232 66 l 1,18,19
 168 90 168 90 123 129 c 1,20,21
 166 224 166 224 314 539 c 1,11,12
EndSplineSet
EndChar

StartChar: onequarter
Encoding: 188 188 145
Width: 2056
GlyphClass: 2
Flags: W
LayerCount: 2
Fore
SplineSet
517 517 m 1,0,1
 400 524 400 524 267.5 524 c 128,-1,2
 135 524 135 524 9 517 c 1,3,-1
 9 629 l 1,4,-1
 125 629 l 1,5,6
 128 641 128 641 128 686 c 2,7,-1
 128 1288 l 2,8,9
 128 1294 128 1294 127 1299 c 1,10,-1
 20 1299 l 1,11,-1
 20 1371 l 1,12,13
 154 1399 154 1399 232 1399 c 128,-1,14
 310 1399 310 1399 336 1396 c 0,15,16
 362 1394 362 1394 376 1386 c 0,17,18
 398 1374 398 1374 398 1333 c 2,19,-1
 398 652 l 2,20,21
 398 639 398 639 400 629 c 1,22,-1
 517 629 l 1,23,-1
 517 517 l 1,0,1
1980 -8 m 1,24,25
 1728 4 1728 4 1426 -8 c 1,26,-1
 1426 117 l 1,27,-1
 1571 117 l 1,28,29
 1575 137 1575 137 1575 181 c 2,30,-1
 1575 244 l 1,31,-1
 1236 244 l 1,32,-1
 1203 300 l 1,33,34
 1173 360 1173 360 1173 418 c 1,35,-1
 1551 972 l 1,36,-1
 1726 972 l 2,37,38
 1785 972 1785 972 1804 964 c 0,39,40
 1845 948 1845 948 1845 903 c 2,41,-1
 1845 364 l 1,42,-1
 2024 364 l 1,43,-1
 2024 311 l 2,44,45
 2024 248 2024 248 1957 245 c 0,46,47
 1937 244 1937 244 1915 244 c 2,48,-1
 1845 244 l 1,49,-1
 1845 181 l 2,50,51
 1845 137 1845 137 1849 117 c 1,52,-1
 1980 117 l 1,53,-1
 1980 -8 l 1,24,25
1575 364 m 1,54,-1
 1575 689 l 1,55,-1
 1372 364 l 1,56,-1
 1575 364 l 1,54,-1
1094 1331 m 2,57,58
 1114 1373 1114 1373 1127 1385 c 0,59,60
 1156 1412 1156 1412 1202 1412 c 2,61,-1
 1375 1412 l 1,62,-1
 745 48 l 2,63,64
 728 12 728 12 704.5 -5 c 128,-1,65
 681 -22 681 -22 640 -22 c 2,66,-1
 469 -22 l 1,67,-1
 1094 1331 l 2,57,58
EndSplineSet
EndChar

StartChar: onehalf
Encoding: 189 189 146
Width: 2021
GlyphClass: 2
Flags: W
LayerCount: 2
Fore
SplineSet
517 517 m 1,0,1
 400 524 400 524 267.5 524 c 128,-1,2
 135 524 135 524 9 517 c 1,3,-1
 9 629 l 1,4,-1
 125 629 l 1,5,6
 128 641 128 641 128 686 c 2,7,-1
 128 1288 l 2,8,9
 128 1294 128 1294 127 1299 c 1,10,-1
 20 1299 l 1,11,-1
 20 1371 l 1,12,13
 154 1399 154 1399 232 1399 c 128,-1,14
 310 1399 310 1399 336 1396 c 0,15,16
 362 1394 362 1394 376 1386 c 0,17,18
 398 1374 398 1374 398 1333 c 2,19,-1
 398 652 l 2,20,21
 398 639 398 639 400 629 c 1,22,-1
 517 629 l 1,23,-1
 517 517 l 1,0,1
1977 8 m 1,24,25
 1893 0 1893 0 1745 0 c 2,26,-1
 1347 0 l 2,27,28
 1300 0 1300 0 1281.5 16 c 128,-1,29
 1263 32 1263 32 1263 60 c 0,30,31
 1263 96 1263 96 1265 117 c 1,32,33
 1636 449 1636 449 1674 529 c 0,34,35
 1698 579 1698 579 1700 656 c 1,36,37
 1700 785 1700 785 1607 785 c 0,38,39
 1501 785 1501 785 1446 592 c 1,40,-1
 1268 708 l 1,41,42
 1268 786 1268 786 1368 838 c 0,43,44
 1469 890 1469 890 1616 890 c 0,45,46
 1952 890 1952 890 1952 632 c 0,47,48
 1952 457 1952 457 1686 267 c 0,49,50
 1610 213 1610 213 1532 163 c 1,51,-1
 1720 163 l 2,52,53
 1746 163 1746 163 1794 172 c 1,54,55
 1838 245 1838 245 1864 301 c 1,56,-1
 1977 290 l 1,57,-1
 1977 8 l 1,24,25
1094 1331 m 2,58,59
 1114 1373 1114 1373 1127 1385 c 0,60,61
 1156 1412 1156 1412 1202 1412 c 2,62,-1
 1375 1412 l 1,63,-1
 745 48 l 2,64,65
 728 12 728 12 704.5 -5 c 128,-1,66
 681 -22 681 -22 640 -22 c 2,67,-1
 469 -22 l 1,68,-1
 1094 1331 l 2,58,59
EndSplineSet
EndChar

StartChar: threequarters
Encoding: 190 190 147
Width: 2174
GlyphClass: 2
Flags: W
LayerCount: 2
Fore
SplineSet
2098 -8 m 1,0,1
 1846 4 1846 4 1544 -8 c 1,2,-1
 1544 117 l 1,3,-1
 1675 117 l 1,4,5
 1679 137 1679 137 1679 181 c 2,6,-1
 1679 244 l 1,7,-1
 1354 244 l 1,8,-1
 1321 300 l 1,9,10
 1291 360 1291 360 1291 418 c 1,11,-1
 1669 972 l 1,12,-1
 1844 972 l 2,13,14
 1903 972 1903 972 1922 964 c 0,15,16
 1963 948 1963 948 1963 903 c 2,17,-1
 1963 364 l 1,18,-1
 2142 364 l 1,19,-1
 2142 311 l 2,20,21
 2142 248 2142 248 2075 245 c 0,22,23
 2055 244 2055 244 2033 244 c 2,24,-1
 1963 244 l 1,25,-1
 1963 181 l 2,26,27
 1963 137 1963 137 1967 117 c 1,28,-1
 2098 117 l 1,29,-1
 2098 -8 l 1,0,1
1679 364 m 1,30,-1
 1679 619 l 1,31,-1
 1511 364 l 1,32,-1
 1679 364 l 1,30,-1
496 1141 m 128,-1,34
 514 1169 514 1169 514 1207 c 128,-1,35
 514 1245 514 1245 480 1269 c 128,-1,36
 446 1293 446 1293 407 1293 c 128,-1,37
 368 1293 368 1293 341.5 1283.5 c 0,38,39
 316 1274 316 1274 292 1255 c 0,40,41
 242 1215 242 1215 222 1140 c 1,42,-1
 64 1245 l 1,43,44
 114 1330 114 1330 192 1371 c 128,-1,45
 270 1412 270 1412 364.5 1412 c 128,-1,46
 459 1412 459 1412 518.5 1399 c 128,-1,47
 578 1386 578 1386 623 1361 c 0,48,49
 722 1306 722 1306 722 1213 c 0,50,51
 722 1042 722 1042 524 1002 c 1,52,53
 690 977 690 977 738 852 c 0,54,55
 754 810 754 810 754 747 c 128,-1,56
 754 684 754 684 721 635 c 128,-1,57
 688 586 688 586 636 556 c 0,58,59
 540 502 540 502 389.5 502 c 128,-1,60
 239 502 239 502 88 573 c 1,61,-1
 88 794 l 1,62,-1
 220 782 l 1,63,64
 238 704 238 704 271.5 660 c 128,-1,65
 305 616 305 616 368.5 616 c 128,-1,66
 432 616 432 616 464.5 656 c 128,-1,67
 497 696 497 696 497 763 c 0,68,69
 497 925 497 925 323 925 c 2,70,-1
 228 925 l 1,71,-1
 234 1014 l 1,72,-1
 306 1032 l 1,73,74
 388 1045 388 1045 433 1079 c 128,-1,33
 478 1113 478 1113 496 1141 c 128,-1,34
1247 1331 m 2,75,76
 1267 1373 1267 1373 1280 1385 c 0,77,78
 1309 1412 1309 1412 1355 1412 c 2,79,-1
 1528 1412 l 1,80,-1
 898 48 l 2,81,82
 881 12 881 12 857.5 -5 c 128,-1,83
 834 -22 834 -22 793 -22 c 2,84,-1
 622 -22 l 1,85,-1
 1247 1331 l 2,75,76
EndSplineSet
EndChar

StartChar: AE
Encoding: 198 198 155
Width: 2161
GlyphClass: 2
Flags: W
LayerCount: 2
Fore
SplineSet
661 543 m 1,0,-1
 924 543 l 1,1,-1
 776 949 l 1,2,-1
 661 543 l 1,0,-1
649 -11 m 1,3,4
 442 8 442 8 246.5 1 c 128,-1,5
 51 -6 51 -6 0 -11 c 1,6,-1
 37 122 l 1,7,-1
 63 126 l 2,8,9
 112 133 112 133 138 149 c 128,-1,10
 164 165 164 165 179 201 c 2,11,-1
 201 255 l 2,12,13
 268 421 268 421 376.5 705 c 128,-1,14
 485 989 485 989 644 1387 c 1,15,-1
 1683 1387 l 1,16,-1
 1855 1066 l 1,17,-1
 1643 1038 l 1,18,19
 1603 1117 1603 1117 1548 1185 c 1,20,21
 1411 1203 1411 1203 1329 1203 c 2,22,-1
 1112 1203 l 1,23,-1
 1268 777 l 1,24,-1
 1441 777 l 2,25,26
 1458 777 1458 777 1463.5 787.5 c 128,-1,27
 1469 798 1469 798 1469 826.5 c 128,-1,28
 1469 855 1469 855 1460 911 c 1,29,-1
 1611 911 l 1,30,-1
 1770 476 l 1,31,32
 1756 475 1756 475 1742 475 c 0,33,34
 1680 475 1680 475 1619 475 c 1,35,36
 1577 548 1577 548 1551 583.5 c 128,-1,37
 1525 619 1525 619 1498 619 c 2,38,-1
 1325 619 l 1,39,-1
 1490 167 l 1,40,-1
 1770 167 l 2,41,42
 1852 167 1852 167 1887 180 c 1,43,44
 1886 221 1886 221 1864 314 c 2,45,-1
 1853 361 l 1,46,47
 1922 359 1922 359 1988 359 c 128,-1,48
 2054 359 2054 359 2120 359 c 1,49,50
 2171 216 2171 216 2233 14 c 1,51,52
 2003 -1 2003 -1 1835 -1 c 2,53,-1
 1310 0 l 2,54,55
 1276 0 1276 0 1226.5 -1.5 c 128,-1,56
 1177 -3 1177 -3 1110 -5 c 2,57,-1
 949 -11 l 1,58,-1
 949 113 l 1,59,-1
 1017 122 l 2,60,61
 1043 125 1043 125 1043 146 c 0,62,63
 1043 152 1043 152 1037 173 c 2,64,-1
 967 390 l 1,65,-1
 631 390 l 1,66,-1
 591 256 l 2,67,68
 577 209 577 209 577 184 c 128,-1,69
 577 159 577 159 586 148 c 0,70,71
 596 137 596 137 610 131 c 0,72,73
 627 124 627 124 674 118 c 1,74,-1
 649 -11 l 1,3,4
EndSplineSet
EndChar

StartChar: Eth
Encoding: 208 208 165
Width: 1678
GlyphClass: 2
Flags: W
LayerCount: 2
Fore
SplineSet
764 1211 m 1,0,-1
 722 1210 l 1,1,-1
 679 1210 l 1,2,-1
 679 787 l 1,3,-1
 923 787 l 1,4,-1
 923 708 l 2,5,6
 922 652 922 652 860 630 c 0,7,8
 836 622 836 622 803 622 c 2,9,-1
 679 622 l 1,10,-1
 679 171 l 1,11,12
 688 170 688 170 696 170 c 2,13,-1
 713 170 l 2,14,15
 1054 170 1054 170 1116 473 c 0,16,17
 1136 569 1136 569 1136 688.5 c 128,-1,18
 1136 808 1136 808 1121.5 904.5 c 128,-1,19
 1107 1001 1107 1001 1067 1069 c 0,20,21
 983 1211 983 1211 774 1211 c 2,22,-1
 764 1211 l 1,0,-1
47 701 m 2,23,24
 47 787 47 787 162 787 c 2,25,-1
 250 787 l 1,26,-1
 250 1093 l 2,27,28
 250 1161 250 1161 241 1206 c 1,29,-1
 46 1206 l 1,30,-1
 46 1366 l 1,31,32
 385 1387 385 1387 809 1387 c 0,33,34
 1391 1387 1391 1387 1537 999 c 0,35,36
 1587 866 1587 866 1587 683 c 128,-1,37
 1587 500 1587 500 1529 371 c 128,-1,38
 1471 242 1471 242 1365 160 c 0,39,40
 1160 0 1160 0 782 0 c 2,41,-1
 54 0 l 1,42,-1
 54 151 l 1,43,-1
 244 151 l 1,44,45
 250 214 250 214 250 278 c 2,46,-1
 250 622 l 1,47,-1
 47 622 l 1,48,-1
 47 701 l 2,23,24
EndSplineSet
EndChar

StartChar: multiply
Encoding: 215 215 172
Width: 1292
GlyphClass: 2
Flags: W
LayerCount: 2
Fore
SplineSet
315 1143 m 1,0,-1
 645 810 l 1,1,-1
 975 1143 l 1,2,-1
 1157 957 l 1,3,-1
 827 627 l 1,4,-1
 1157 295 l 1,5,-1
 973 115 l 1,6,-1
 645 444 l 1,7,-1
 317 115 l 1,8,-1
 133 295 l 1,9,-1
 462 627 l 1,10,-1
 133 957 l 1,11,-1
 315 1143 l 1,0,-1
EndSplineSet
EndChar

StartChar: Oslash
Encoding: 216 216 173
Width: 1643
GlyphClass: 2
Flags: W
LayerCount: 2
Fore
SplineSet
1359 1218 m 0,0,1
 1552 1026 1552 1026 1552 688 c 0,2,3
 1552 353 1552 353 1355 165 c 0,4,5
 1160 -22 1160 -22 822 -22 c 0,6,7
 712 -22 712 -22 618 -2 c 1,8,-1
 596 -55 l 2,9,10
 581 -91 581 -91 521 -91 c 2,11,-1
 447 -91 l 1,12,-1
 498 34 l 1,13,14
 239 136 239 136 141 392 c 0,15,16
 91 524 91 524 91 692.5 c 128,-1,17
 91 861 91 861 141.5 995.5 c 128,-1,18
 192 1130 192 1130 286 1222 c 0,19,20
 480 1412 480 1412 822 1412 c 0,21,22
 944 1412 944 1412 1048 1387 c 1,23,-1
 1068 1437 l 1,24,25
 1082 1482 1082 1482 1145 1482 c 2,26,-1
 1220 1482 l 1,27,-1
 1165 1348 l 1,28,29
 1278 1299 1278 1299 1359 1218 c 0,0,1
609 307 m 1,30,-1
 961 1175 l 1,31,32
 903 1223 903 1223 822 1223 c 0,33,34
 690 1223 690 1223 616.5 1090 c 128,-1,35
 543 957 543 957 543 698.5 c 128,-1,36
 543 440 543 440 609 307 c 1,30,-1
700 200 m 1,37,38
 752 167 752 167 822 167 c 0,39,40
 955 167 955 167 1028 295.5 c 128,-1,41
 1101 424 1101 424 1101 673 c 128,-1,42
 1101 922 1101 922 1046 1053 c 1,43,-1
 700 200 l 1,37,38
EndSplineSet
EndChar

StartChar: Thorn
Encoding: 222 222 179
Width: 1286
GlyphClass: 2
Flags: W
LayerCount: 2
Fore
SplineSet
668 468 m 1,0,1
 673 467 673 467 682 467 c 2,2,-1
 705 467 l 2,3,4
 816 467 816 467 864.5 531.5 c 128,-1,5
 913 596 913 596 913 717 c 0,6,7
 913 909 913 909 801 954 c 0,8,9
 761 970 761 970 704 970 c 2,10,-1
 668 970 l 1,11,-1
 668 468 l 1,0,1
46 1367 m 1,12,13
 282 1399 282 1399 490.5 1399 c 128,-1,14
 699 1399 699 1399 863 1373 c 1,15,-1
 863 1235 l 1,16,-1
 676 1235 l 1,17,18
 670 1209 670 1209 670 1144 c 1,19,-1
 745 1144 l 2,20,21
 1028 1144 1028 1144 1173 1056 c 0,22,23
 1346 951 1346 951 1350 718 c 1,24,25
 1350 291 1350 291 701 291 c 0,26,27
 681 291 681 291 669 293 c 1,28,-1
 669 194 l 2,29,30
 669 162 669 162 675 147 c 1,31,-1
 863 147 l 1,32,-1
 863 10 l 1,33,34
 681 -16 681 -16 466 -16 c 128,-1,35
 251 -16 251 -16 46 15 c 1,36,-1
 46 147 l 1,37,-1
 232 147 l 1,38,39
 238 174 238 174 238 239 c 2,40,-1
 238 1143 l 2,41,42
 238 1193 238 1193 233 1235 c 1,43,-1
 46 1235 l 1,44,-1
 46 1367 l 1,12,13
EndSplineSet
EndChar

StartChar: germandbls
Encoding: 223 223 180
Width: 1473
GlyphClass: 2
Flags: W
LayerCount: 2
Fore
SplineSet
556 0 m 2,0,1
 369 0 369 0 2 -11 c 1,2,-1
 2 167 l 1,3,-1
 188 167 l 1,4,5
 194 194 194 194 194 259 c 2,6,-1
 194 846 l 1,7,-1
 43 846 l 1,8,9
 43 906 43 906 63.5 931 c 128,-1,10
 84 956 84 956 139 956 c 2,11,-1
 194 956 l 1,12,13
 204 1177 204 1177 360 1297 c 0,14,15
 510 1412 510 1412 755 1412 c 0,16,17
 1158 1412 1158 1412 1269 1210 c 0,18,19
 1306 1142 1306 1142 1306 1052 c 0,20,21
 1306 988 1306 988 1290 954 c 0,22,23
 1267 906 1267 906 1217 844 c 1,24,25
 1158 867 1158 867 1104 867 c 0,26,27
 988 867 988 867 988 776 c 128,-1,28
 988 685 988 685 1083 650 c 0,29,30
 1117 638 1117 638 1173.5 622.5 c 128,-1,31
 1230 607 1230 607 1285.5 582 c 0,32,33
 1341 556 1341 556 1381 520 c 0,34,35
 1466 442 1466 442 1466 313 c 0,36,37
 1466 148 1466 148 1324 56 c 0,38,39
 1204 -21 1204 -21 1033 -22 c 0,40,41
 908 -22 908 -22 699 19 c 1,42,-1
 739 305 l 1,43,-1
 874 253 l 1,44,45
 883 201 883 201 915.5 168 c 128,-1,46
 948 135 948 135 999.5 135 c 128,-1,47
 1051 135 1051 135 1082 173.5 c 128,-1,48
 1113 212 1113 212 1113 252.5 c 128,-1,49
 1113 293 1113 293 1103.5 312.5 c 128,-1,50
 1094 332 1094 332 1074 352 c 0,51,52
 1045 380 1045 380 961.5 433 c 128,-1,53
 878 486 878 486 832 522.5 c 128,-1,54
 786 559 786 559 758 595 c 0,55,56
 706 662 706 662 706 740.5 c 128,-1,57
 706 819 706 819 718.5 859.5 c 128,-1,58
 731 900 731 900 755 926 c 0,59,60
 797 972 797 972 900 993 c 1,61,62
 957 1041 957 1041 957 1119 c 0,63,64
 957 1271 957 1271 794 1271 c 0,65,66
 641 1271 641 1271 620 1069 c 0,67,68
 614 1011 614 1011 614 949 c 2,69,-1
 614 0 l 1,70,-1
 556 0 l 2,0,1
EndSplineSet
EndChar

StartChar: ae
Encoding: 230 230 187
Width: 1770
GlyphClass: 2
Flags: W
LayerCount: 2
Fore
SplineSet
1362 590 m 1,0,-1
 1362 608 l 2,1,2
 1362 772 1362 772 1294 827 c 0,3,4
 1272 845 1272 845 1243 845 c 0,5,6
 1132 845 1132 845 1108 590 c 1,7,-1
 1362 590 l 1,0,-1
650 464 m 2,8,9
 572 464 572 464 528.5 414 c 128,-1,10
 485 364 485 364 485 282 c 0,11,12
 485 138 485 138 599 138 c 0,13,14
 667 138 667 138 784 173 c 1,15,16
 691 287 691 287 681 460 c 1,17,-1
 680 464 l 1,18,-1
 650 464 l 2,8,9
628 855 m 0,19,20
 514 855 514 855 341 631 c 1,21,-1
 100 785 l 1,22,23
 100 879 100 879 260 945 c 0,24,25
 406 1005 406 1005 589 1005 c 0,26,27
 822 1005 822 1005 947 900 c 1,28,29
 1089 1005 1089 1005 1283 1005 c 0,30,31
 1490 1005 1490 1005 1620 901 c 0,32,33
 1752 795 1752 795 1753 615 c 0,34,35
 1753 510 1753 510 1700 474 c 0,36,37
 1653 442 1653 442 1522 442 c 2,38,-1
 1109 442 l 1,39,40
 1132 316 1132 316 1205 242.5 c 128,-1,41
 1278 169 1278 169 1404 169 c 128,-1,42
 1530 169 1530 169 1685 245 c 1,43,-1
 1703 95 l 1,44,45
 1539 -22 1539 -22 1283.5 -22 c 128,-1,46
 1028 -22 1028 -22 867 94 c 1,47,48
 640 -22 640 -22 462 -22 c 0,49,50
 288 -22 288 -22 184 53 c 0,51,52
 74 132 74 132 74 274 c 0,53,54
 74 583 74 583 660 583 c 2,55,-1
 680 583 l 1,56,-1
 680 617 l 2,57,58
 680 742 680 742 668.5 798.5 c 128,-1,59
 657 855 657 855 628 855 c 0,19,20
EndSplineSet
EndChar

StartChar: eth
Encoding: 240 240 197
Width: 1235
GlyphClass: 2
Flags: W
LayerCount: 2
Fore
SplineSet
634 829 m 0,0,1
 495 829 495 829 495 489 c 0,2,3
 495 294 495 294 521 233 c 128,-1,4
 547 172 547 172 577.5 151.5 c 128,-1,5
 608 131 608 131 648.5 131 c 128,-1,6
 689 131 689 131 715 159 c 0,7,8
 740 187 740 187 758 239 c 0,9,10
 792 342 792 342 793 530 c 0,11,12
 793 681 793 681 781 753 c 1,13,14
 737 829 737 829 634 829 c 0,0,1
506 1268 m 1,15,16
 386 1327 386 1327 224 1351 c 1,17,-1
 299 1481 l 1,18,19
 596 1457 596 1457 731 1400 c 1,20,-1
 992 1555 l 1,21,-1
 1117 1406 l 1,22,23
 1052 1370 1052 1370 1000.5 1339.5 c 128,-1,24
 949 1309 949 1309 916 1291 c 1,25,26
 1219 1036 1219 1036 1219 600 c 0,27,28
 1219 308 1219 308 1065 142 c 0,29,30
 909 -26 909 -26 634 -26 c 0,31,32
 375 -26 375 -26 219 112 c 0,33,34
 61 252 61 252 61 487 c 0,35,36
 61 731 61 731 240 864 c 0,37,38
 399 982 399 982 634 982 c 0,39,40
 711 982 711 982 751 975 c 1,41,42
 713 1085 713 1085 666 1141 c 1,43,-1
 427 1001 l 1,44,-1
 307 1154 l 1,45,-1
 506 1268 l 1,15,16
EndSplineSet
EndChar

StartChar: divide
Encoding: 247 247 204
Width: 1006
GlyphClass: 2
Flags: W
LayerCount: 2
Fore
SplineSet
899 515 m 2,0,1
 899 473 899 473 879.5 444 c 128,-1,2
 860 415 860 415 823 415 c 2,3,-1
 107 415 l 1,4,-1
 107 506 l 2,5,6
 108 557 108 557 126 570 c 0,7,8
 155 590 155 590 214 590 c 2,9,-1
 899 590 l 1,10,-1
 899 515 l 2,0,1
615 40 m 128,-1,12
 573 0 573 0 501 0 c 128,-1,13
 429 0 429 0 387 40 c 128,-1,14
 345 80 345 80 345 149 c 0,15,16
 344 252 344 252 438 286 c 0,17,18
 466 296 466 296 500.5 296 c 128,-1,19
 535 296 535 296 563.5 285.5 c 0,20,21
 592 276 592 276 613 256 c 0,22,23
 657 215 657 215 657 147.5 c 128,-1,11
 657 80 657 80 615 40 c 128,-1,12
619 749.5 m 128,-1,25
 577 709 577 709 505 709 c 128,-1,26
 433 709 433 709 391 749.5 c 128,-1,27
 349 790 349 790 349 859 c 0,28,29
 348 962 348 962 442 996 c 0,30,31
 470 1006 470 1006 504.5 1006 c 128,-1,32
 539 1006 539 1006 567.5 995.5 c 0,33,34
 596 986 596 986 617 966 c 0,35,36
 661 925 661 925 661 857.5 c 128,-1,24
 661 790 661 790 619 749.5 c 128,-1,25
EndSplineSet
EndChar

StartChar: oslash
Encoding: 248 248 205
Width: 1340
GlyphClass: 2
Flags: W
LayerCount: 2
Fore
SplineSet
1098 866 m 0,0,1
 1263 722 1263 722 1263 480 c 0,2,3
 1264 238 1264 238 1080 100 c 0,4,5
 920 -22 920 -22 671 -22 c 0,6,7
 615 -22 615 -22 563 -16 c 1,8,-1
 533 -95 l 2,9,10
 519 -131 519 -131 458 -131 c 2,11,-1
 384 -131 l 1,12,-1
 437 11 l 1,13,14
 208 82 208 82 120 276 c 0,15,16
 76 370 76 370 76.5 496.5 c 128,-1,17
 77 623 77 623 127.5 720.5 c 128,-1,18
 178 818 178 818 262 882 c 0,19,20
 424 1006 424 1006 671 1005 c 0,21,22
 742 1005 742 1005 807 994 c 1,23,-1
 835 1070 l 2,24,25
 852 1115 852 1115 912 1115 c 2,26,-1
 987 1115 l 1,27,-1
 930 962 l 1,28,29
 1027 928 1027 928 1098 866 c 0,0,1
535 271 m 1,30,-1
 740 816 l 1,31,32
 710 836 710 836 670 836 c 0,33,34
 585 836 585 836 548 751 c 128,-1,35
 511 666 511 666 511 509 c 128,-1,36
 511 352 511 352 535 271 c 1,30,-1
626 154 m 1,37,38
 646 147 646 147 670 147 c 0,39,40
 756 147 756 147 792.5 234.5 c 128,-1,41
 829 322 829 322 829 456 c 128,-1,42
 829 590 829 590 817 661 c 1,43,-1
 626 154 l 1,37,38
EndSplineSet
EndChar

StartChar: thorn
Encoding: 254 254 211
Width: 1306
GlyphClass: 2
Flags: W
LayerCount: 2
Fore
SplineSet
760 836 m 0,0,1
 697 836 697 836 594 789 c 1,2,-1
 594 140 l 1,3,4
 608 138 608 138 621 138 c 2,5,-1
 719 138 l 2,6,7
 791 138 791 138 832 229.5 c 128,-1,8
 873 321 873 321 873 504 c 0,9,10
 873 836 873 836 760 836 c 0,0,1
57 -454 m 1,11,-1
 63 -321 l 1,12,-1
 95 -316 l 2,13,14
 142 -310 142 -310 155 -296 c 0,15,16
 175 -273 175 -273 175 -215 c 2,17,-1
 175 1251 l 1,18,-1
 2 1251 l 1,19,-1
 2 1364 l 1,20,21
 198 1412 198 1412 402 1412 c 2,22,-1
 462 1412 l 2,23,24
 544 1412 544 1412 564 1395.5 c 128,-1,25
 584 1379 584 1379 589 1356.5 c 128,-1,26
 594 1334 594 1334 594 1298 c 2,27,-1
 594 937 l 1,28,29
 735 1005 735 1005 855.5 1005 c 128,-1,30
 976 1005 976 1005 1058.5 962.5 c 0,31,32
 1142 920 1142 920 1196 850 c 0,33,34
 1304 712 1304 712 1304 509 c 0,35,36
 1304 258 1304 258 1130 116 c 0,37,38
 973 -12 973 -12 732 -11 c 0,39,40
 678 -11 678 -11 594 -7 c 1,41,-1
 594 -181 l 2,42,43
 594 -265 594 -265 607 -281.5 c 128,-1,44
 620 -298 620 -298 642 -305.5 c 128,-1,45
 664 -313 664 -313 703 -323 c 1,46,-1
 714 -454 l 1,47,-1
 599 -443 l 2,48,49
 455 -429 455 -429 361 -429 c 128,-1,50
 267 -429 267 -429 57 -454 c 1,11,-1
EndSplineSet
EndChar

StartChar: hbar
Encoding: 295 295 213
Width: 1375
GlyphClass: 2
Flags: W
LayerCount: 2
Fore
SplineSet
718 -11 m 1,0,1
 414 0 414 0 331.5 0 c 128,-1,2
 249 0 249 0 77 -11 c 1,3,-1
 82 126 l 1,4,5
 152 137 152 137 168 154 c 0,6,7
 194 182 194 182 194 265 c 2,8,-1
 194 1046 l 1,9,-1
 43 1046 l 1,10,-1
 43 1165 l 1,11,-1
 194 1165 l 1,12,-1
 194 1187 l 2,13,14
 194 1227 194 1227 191 1251 c 1,15,-1
 22 1251 l 1,16,-1
 22 1364 l 1,17,18
 218 1412 218 1412 422 1412 c 2,19,-1
 482 1412 l 2,20,21
 564 1412 564 1412 584 1395.5 c 128,-1,22
 604 1379 604 1379 609 1356.5 c 128,-1,23
 614 1334 614 1334 614 1298 c 2,24,-1
 614 1165 l 1,25,-1
 761 1165 l 1,26,-1
 761 1046 l 1,27,-1
 614 1046 l 1,28,-1
 614 882 l 1,29,30
 792 1005 792 1005 970 1005 c 0,31,32
 1256 1005 1256 1005 1256 644 c 2,33,-1
 1256 248 l 2,34,35
 1256 183 1256 183 1265 147 c 1,36,-1
 1398 147 l 1,37,-1
 1411 23 l 1,38,39
 1220 -22 1220 -22 1057 -22 c 0,40,41
 831 -22 831 -22 831 85 c 1,42,-1
 837 274 l 1,43,-1
 837 623 l 2,44,45
 837 752 837 752 803 790 c 0,46,47
 787 808 787 808 759 808 c 0,48,49
 696 808 696 808 614 739 c 1,50,-1
 614 233 l 2,51,52
 614 180 614 180 629 163 c 0,53,54
 651 139 651 139 707 127 c 1,55,-1
 718 -11 l 1,0,1
EndSplineSet
EndChar

StartChar: dotlessi
Encoding: 305 305 216
Width: 702
GlyphClass: 2
Flags: W
LayerCount: 2
Fore
SplineSet
194 95 m 1,0,-1
 200 284 l 1,1,-1
 200 824 l 1,2,-1
 28 824 l 1,3,-1
 28 950 l 1,4,5
 230 994 230 994 395 994 c 0,6,7
 619 994 619 994 619 899 c 2,8,-1
 619 239 l 2,9,10
 619 184 619 184 628 147 c 1,11,-1
 761 147 l 1,12,-1
 774 33 l 1,13,14
 581 -11 581 -11 420 -11 c 0,15,16
 194 -11 194 -11 194 95 c 1,0,-1
EndSplineSet
EndChar

StartChar: kgreenlandic
Encoding: 312 312 222
Width: 1389
GlyphClass: 2
Flags: W
LayerCount: 2
Fore
SplineSet
734 -11 m 1,0,1
 415 0 415 0 334.5 0 c 128,-1,2
 254 0 254 0 82 -11 c 1,3,-1
 88 119 l 1,4,5
 115 124 115 124 136 127 c 0,6,7
 158 130 158 130 172 139 c 0,8,9
 200 157 200 157 200 225 c 2,10,-1
 200 769 l 2,11,12
 200 809 200 809 197 833 c 1,13,-1
 28 833 l 1,14,-1
 28 946 l 1,15,16
 228 995 228 995 484 995 c 0,17,18
 575 995 575 995 602 970 c 0,19,20
 619 954 619 954 619 880 c 2,21,-1
 619 629 l 1,22,-1
 836 777 l 1,23,24
 854 792 854 792 854 804 c 0,25,26
 854 835 854 835 764 835 c 1,27,-1
 764 983 l 1,28,-1
 1397 983 l 1,29,-1
 1397 824 l 1,30,31
 1303 824 1303 824 1253 803 c 0,32,33
 1191 777 1191 777 1099 711 c 1,34,-1
 952 603 l 1,35,-1
 1222 189 l 2,36,37
 1268 118 1268 118 1334 118 c 1,38,-1
 1419 120 l 1,39,-1
 1444 -11 l 1,40,41
 1303 0 1303 0 1099 0 c 128,-1,42
 895 0 895 0 792 -11 c 1,43,-1
 787 120 l 1,44,-1
 844 120 l 1,45,-1
 651 453 l 1,46,-1
 619 433 l 1,47,-1
 619 212 l 1,48,49
 625 161 625 161 640 148 c 0,50,51
 661 130 661 130 728 117 c 1,52,-1
 734 -11 l 1,0,1
EndSplineSet
EndChar

StartChar: Lslash
Encoding: 321 321 225
Width: 1374
GlyphClass: 2
Flags: W
LayerCount: 2
Fore
SplineSet
46 1377 m 1,0,1
 264 1399 264 1399 478.5 1399 c 128,-1,2
 693 1399 693 1399 861 1383 c 1,3,-1
 861 1215 l 1,4,-1
 674 1215 l 1,5,6
 667 1186 667 1186 667 1129 c 2,7,-1
 667 892 l 1,8,-1
 1051 1084 l 1,9,-1
 1051 860 l 1,10,-1
 667 669 l 1,11,-1
 667 167 l 1,12,-1
 896 167 l 2,13,14
 984 166 984 166 1018 258 c 0,15,16
 1026 282 1026 282 1034.5 310 c 128,-1,17
 1043 338 1043 338 1056 377.5 c 128,-1,18
 1069 417 1069 417 1085 471 c 1,19,-1
 1320 439 l 1,20,-1
 1278 0 l 1,21,-1
 857 0 l 2,22,23
 215 0 215 0 112 -12 c 1,24,-1
 112 167 l 1,25,-1
 234 167 l 1,26,27
 238 257 238 257 238 326 c 2,28,-1
 238 455 l 1,29,-1
 84 378 l 1,30,-1
 84 601 l 1,31,-1
 238 678 l 1,32,-1
 238 1129 l 2,33,34
 238 1175 238 1175 233 1215 c 1,35,-1
 46 1215 l 1,36,-1
 46 1377 l 1,0,1
EndSplineSet
EndChar

StartChar: lslash
Encoding: 322 322 226
Width: 812
GlyphClass: 2
Flags: W
LayerCount: 2
Fore
SplineSet
201 1175 m 2,0,1
 201 1222 201 1222 197 1252 c 1,2,-1
 28 1252 l 1,3,-1
 28 1366 l 1,4,5
 222 1412 222 1412 409 1412 c 0,6,7
 538 1412 538 1412 582 1381 c 0,8,9
 600 1368 600 1368 619 1347 c 1,10,-1
 619 1053 l 1,11,-1
 772 1151 l 1,12,-1
 772 906 l 1,13,-1
 619 809 l 1,14,-1
 619 227 l 2,15,16
 619 166 619 166 625 145 c 1,17,-1
 784 145 l 1,18,-1
 784 34 l 1,19,20
 602 -9 602 -9 431 -9 c 128,-1,21
 260 -9 260 -9 196 82 c 1,22,-1
 196 108 l 1,23,24
 201 208 201 208 201 283 c 2,25,-1
 201 544 l 1,26,-1
 38 441 l 1,27,-1
 38 683 l 1,28,-1
 201 787 l 1,29,-1
 201 1175 l 2,0,1
EndSplineSet
EndChar

StartChar: OE
Encoding: 338 338 229
Width: 2248
GlyphClass: 2
Flags: W
LayerCount: 2
Fore
SplineSet
543 676 m 0,0,1
 543 167 543 167 822 167 c 2,2,-1
 1101 167 l 1,3,-1
 1101 1187 l 1,4,-1
 822 1187 l 2,5,6
 690 1187 690 1187 616.5 1059 c 128,-1,7
 543 931 543 931 543 676 c 0,0,1
1216 -13 m 1,8,-1
 1101 -12 l 1,9,10
 931 -22 931 -22 792 -22 c 128,-1,11
 653 -22 653 -22 517.5 25.5 c 0,12,13
 382 74 382 74 288 164 c 0,14,15
 92 352 92 352 91 679 c 0,16,17
 91 1010 91 1010 289 1195 c 0,18,19
 482 1376 482 1376 822 1376 c 2,20,-1
 2168 1376 l 1,21,-1
 2223 1054 l 1,22,-1
 2000 1026 l 1,23,24
 1990 1108 1990 1108 1959 1173 c 1,25,26
 1833 1191 1833 1191 1747 1191 c 2,27,-1
 1530 1191 l 1,28,-1
 1530 765 l 1,29,-1
 1703 765 l 2,30,31
 1746 765 1746 765 1762 856 c 0,32,33
 1766 879 1766 879 1771 899 c 1,34,-1
 1922 899 l 1,35,-1
 1922 464 l 1,36,37
 1908 463 1908 463 1894 463 c 0,38,39
 1832 463 1832 463 1771 463 c 1,40,41
 1746 585 1746 585 1722 601 c 0,42,43
 1714 607 1714 607 1703 607 c 2,44,-1
 1530 607 l 1,45,-1
 1530 155 l 1,46,-1
 1810 155 l 2,47,48
 1892 155 1892 155 1931 168 c 1,49,50
 1942 200 1942 200 1963 349 c 1,51,52
 1998 348 1998 348 2030 348 c 2,53,-1
 2089 348 l 1,54,-1
 2230 347 l 1,55,56
 2225 145 2225 145 2217 2 c 1,57,58
 1980 -13 1980 -13 1832 -13 c 0,59,60
 1524 -13 1524 -13 1216 -13 c 1,8,-1
EndSplineSet
EndChar

StartChar: oe
Encoding: 339 339 230
Width: 1877
GlyphClass: 2
Flags: W
LayerCount: 2
Fore
SplineSet
1407 590 m 1,0,-1
 1407 608 l 2,1,2
 1406 772 1406 772 1338 827 c 0,3,4
 1316 845 1316 845 1288 845 c 0,5,6
 1177 845 1177 845 1153 590 c 1,7,-1
 1407 590 l 1,0,-1
548 751 m 128,-1,9
 511 666 511 666 511 490.5 c 128,-1,10
 511 315 511 315 549.5 231 c 128,-1,11
 588 147 588 147 672 147 c 128,-1,12
 756 147 756 147 792.5 234.5 c 128,-1,13
 829 322 829 322 829 494 c 0,14,15
 829 836 829 836 670 836 c 0,16,8
 585 836 585 836 548 751 c 128,-1,9
1250 242.5 m 128,-1,18
 1323 169 1323 169 1449 169 c 128,-1,19
 1575 169 1575 169 1730 245 c 1,20,-1
 1748 95 l 1,21,22
 1584 -22 1584 -22 1324 -22 c 0,23,24
 1120 -22 1120 -22 996 87 c 1,25,26
 857 -22 857 -22 651 -22 c 0,27,28
 394 -22 394 -22 237 116 c 0,29,30
 77 256 77 256 77 488 c 0,31,32
 77 738 77 738 253 879 c 0,33,34
 411 1005 411 1005 630 1005 c 128,-1,35
 849 1005 849 1005 989 888 c 1,36,37
 1127 1005 1127 1005 1328 1005 c 0,38,39
 1536 1005 1536 1005 1666 901 c 0,40,41
 1798 795 1798 795 1798 615 c 0,42,43
 1798 510 1798 510 1745 474 c 0,44,45
 1698 442 1698 442 1567 442 c 2,46,-1
 1154 442 l 1,47,17
 1177 316 1177 316 1250 242.5 c 128,-1,18
EndSplineSet
EndChar

StartChar: florin
Encoding: 402 402 241
Width: 1102
GlyphClass: 2
Flags: W
LayerCount: 2
Fore
SplineSet
1072 1227 m 1,0,1
 991 1248 991 1248 961 1248 c 128,-1,2
 931 1248 931 1248 908 1230 c 0,3,4
 886 1212 886 1212 870 1181 c 0,5,6
 846 1133 846 1133 824 1016 c 2,7,-1
 791 836 l 1,8,-1
 996 836 l 1,9,-1
 967 678 l 1,10,-1
 762 678 l 1,11,-1
 668 170 l 2,12,13
 631 -23 631 -23 538 -104 c 0,14,15
 439 -189 439 -189 235 -189 c 0,16,17
 140 -189 140 -189 30 -179 c 1,18,-1
 51 -22 l 1,19,20
 186 -22 186 -22 230 20 c 128,-1,21
 274 62 274 62 302 210 c 2,22,-1
 390 678 l 1,23,-1
 205 678 l 1,24,-1
 234 836 l 1,25,-1
 419 836 l 1,26,-1
 473 1117 l 2,27,28
 502 1271 502 1271 609.5 1341.5 c 128,-1,29
 717 1412 717 1412 906 1412 c 0,30,31
 984 1412 984 1412 1097 1373 c 1,32,-1
 1072 1227 l 1,0,1
EndSplineSet
EndChar

StartChar: uni0237
Encoding: 567 567 269
Width: 874
GlyphClass: 2
Flags: W
LayerCount: 2
Fore
SplineSet
827 -12 m 2,0,1
 827 -456 827 -456 354 -456 c 0,2,3
 100 -456 100 -456 -9 -377 c 1,4,-1
 48 -106 l 1,5,-1
 293 -135 l 1,6,-1
 312 -278 l 1,7,8
 348 -287 348 -287 373 -287 c 0,9,10
 468 -287 468 -287 468 -160 c 0,11,12
 468 -95 468 -95 450 -33 c 2,13,-1
 417 86 l 2,14,15
 408 120 408 120 408 147 c 2,16,-1
 408 824 l 1,17,-1
 235 824 l 1,18,-1
 235 950 l 1,19,20
 433 994 433 994 593 994 c 0,21,22
 760 994 760 994 810 940 c 0,23,24
 826 922 826 922 827 899 c 2,25,-1
 827 -12 l 2,0,1
EndSplineSet
EndChar

StartChar: circumflex
Encoding: 710 710 270
Width: 1089
GlyphClass: 2
Flags: W
LayerCount: 2
Fore
SplineSet
231 1146 m 2,0,1
 182 1146 182 1146 182 1170 c 0,2,3
 182 1194 182 1194 201 1224 c 2,4,-1
 373 1495 l 1,5,-1
 715 1495 l 1,6,-1
 869 1251 l 1,7,8
 906 1195 906 1195 906 1170.5 c 128,-1,9
 906 1146 906 1146 856 1146 c 2,10,-1
 649 1146 l 1,11,-1
 544 1320 l 1,12,-1
 449 1146 l 1,13,-1
 231 1146 l 2,0,1
EndSplineSet
EndChar

StartChar: caron
Encoding: 711 711 271
Width: 1091
GlyphClass: 2
Flags: W
LayerCount: 2
Fore
SplineSet
856 1494 m 2,0,1
 906 1494 906 1494 906 1470 c 1,2,3
 904 1442 904 1442 894 1427 c 2,4,-1
 715 1145 l 1,5,-1
 373 1145 l 1,6,-1
 219 1389 l 1,7,8
 182 1442 182 1442 182 1470 c 0,9,10
 182 1494 182 1494 231 1494 c 2,11,-1
 449 1494 l 1,12,-1
 544 1320 l 1,13,-1
 649 1494 l 1,14,-1
 856 1494 l 2,0,1
EndSplineSet
EndChar

StartChar: uni02C9
Encoding: 713 713 272
Width: 931
GlyphClass: 2
Flags: W
LayerCount: 2
Fore
SplineSet
87 1345 m 1,0,-1
 845 1345 l 1,1,-1
 845 1176 l 1,2,-1
 87 1176 l 1,3,-1
 87 1345 l 1,0,-1
EndSplineSet
EndChar

StartChar: breve
Encoding: 728 728 273
Width: 1242
GlyphClass: 2
Flags: W
LayerCount: 2
Fore
SplineSet
620 1309 m 128,-1,1
 711 1309 711 1309 711 1411 c 1,2,-1
 1030 1411 l 1,3,4
 1030 1266 1030 1266 906 1192 c 0,5,6
 798 1127 798 1127 620 1127 c 0,7,8
 333 1126 333 1126 241 1286 c 0,9,10
 210 1340 210 1340 210 1411 c 1,11,-1
 529 1411 l 1,12,0
 529 1309 529 1309 620 1309 c 128,-1,1
EndSplineSet
EndChar

StartChar: dotaccent
Encoding: 729 729 274
Width: 712
GlyphClass: 2
Flags: W
LayerCount: 2
Fore
SplineSet
551 1319 m 0,0,1
 551 1277 551 1277 537 1241.5 c 128,-1,2
 523 1206 523 1206 496.5 1181.5 c 128,-1,3
 470 1157 470 1157 433 1143.5 c 128,-1,4
 396 1130 396 1130 351 1130 c 128,-1,5
 306 1130 306 1130 269 1143.5 c 0,6,7
 232 1158 232 1158 206 1182 c 0,8,9
 152 1232 152 1232 151 1321 c 0,10,11
 151 1406 151 1406 208 1458 c 128,-1,12
 265 1510 265 1510 351 1509.5 c 0,13,14
 436 1509 436 1509 494 1455 c 0,15,16
 550 1402 550 1402 551 1319 c 0,0,1
EndSplineSet
EndChar

StartChar: ring
Encoding: 730 730 275
Width: 628
GlyphClass: 2
Flags: W
LayerCount: 2
Fore
SplineSet
280 1109 m 128,-1,1
 235 1109 235 1109 197.5 1122 c 0,2,3
 160 1136 160 1136 133 1160 c 0,4,5
 76 1212 76 1212 76 1298 c 0,6,7
 76 1381 76 1381 134 1433 c 0,8,9
 190 1483 190 1483 280 1483 c 0,10,11
 418 1483 418 1483 468 1375 c 0,12,13
 484 1341 484 1341 484 1298 c 128,-1,14
 484 1255 484 1255 469 1220 c 128,-1,15
 454 1185 454 1185 427 1160.5 c 128,-1,16
 400 1136 400 1136 362.5 1122.5 c 128,-1,0
 325 1109 325 1109 280 1109 c 128,-1,1
193.5 1380 m 128,-1,18
 161 1349 161 1349 161 1296.5 c 128,-1,19
 161 1244 161 1244 193.5 1213 c 128,-1,20
 226 1182 226 1182 280 1182 c 128,-1,21
 334 1182 334 1182 366.5 1213 c 128,-1,22
 399 1244 399 1244 399 1296.5 c 128,-1,23
 399 1349 399 1349 366.5 1380 c 128,-1,24
 334 1411 334 1411 280 1411 c 128,-1,17
 226 1411 226 1411 193.5 1380 c 128,-1,18
EndSplineSet
EndChar

StartChar: ogonek
Encoding: 731 731 276
Width: 1021
GlyphClass: 2
Flags: W
LayerCount: 2
Fore
SplineSet
661 -214 m 0,0,1
 678 -214 678 -214 753 -189 c 1,2,-1
 834 -302 l 1,3,4
 707 -396 707 -396 535 -396 c 0,5,6
 249 -396 249 -396 249 -227 c 0,7,8
 248 -119 248 -119 456 20 c 0,9,10
 518 62 518 62 592 100 c 1,11,-1
 753 32 l 1,12,13
 625 -75 625 -75 625 -181 c 0,14,15
 625 -214 625 -214 661 -214 c 0,0,1
EndSplineSet
EndChar

StartChar: tilde
Encoding: 732 732 277
Width: 1078
GlyphClass: 2
Flags: W
LayerCount: 2
Fore
SplineSet
128 1282 m 1,0,1
 226 1499 226 1499 384 1499 c 0,2,3
 468 1499 468 1499 595 1432 c 1,4,5
 659 1397 659 1397 682 1397 c 0,6,7
 747 1397 747 1397 797 1505 c 1,8,-1
 924 1446 l 1,9,10
 865 1337 865 1337 804 1281 c 128,-1,11
 743 1225 743 1225 678 1225 c 128,-1,12
 613 1225 613 1225 565 1243.5 c 128,-1,13
 517 1262 517 1262 478 1282 c 128,-1,14
 439 1302 439 1302 423 1309.5 c 128,-1,15
 407 1317 407 1317 396 1321 c 0,16,17
 377 1328 377 1328 353 1328 c 128,-1,18
 329 1328 329 1328 303 1299.5 c 128,-1,19
 277 1271 277 1271 243 1222 c 1,20,-1
 128 1282 l 1,0,1
EndSplineSet
EndChar

StartChar: hungarumlaut
Encoding: 733 733 278
Width: 1335
GlyphClass: 2
Flags: W
LayerCount: 2
Fore
SplineSet
653 1113 m 1,0,-1
 803 1482 l 1,1,-1
 1105 1482 l 2,2,3
 1193 1482 1193 1482 1198 1428 c 1,4,-1
 888 1113 l 1,5,-1
 653 1113 l 1,0,-1
151 1112 m 1,6,-1
 301 1482 l 1,7,-1
 603 1482 l 2,8,9
 691 1482 691 1482 696 1428 c 1,10,-1
 386 1113 l 1,11,-1
 151 1112 l 1,6,-1
EndSplineSet
EndChar

StartChar: uni0307
Encoding: 775 775 279
Width: 584
GlyphClass: 2
Flags: W
LayerCount: 2
Fore
SplineSet
496 1319 m 0,0,1
 496 1277 496 1277 482 1241.5 c 128,-1,2
 468 1206 468 1206 441.5 1181.5 c 128,-1,3
 415 1157 415 1157 378 1143.5 c 128,-1,4
 341 1130 341 1130 296 1130 c 128,-1,5
 251 1130 251 1130 214 1143.5 c 0,6,7
 176 1158 176 1158 150 1182 c 0,8,9
 96 1232 96 1232 96 1321 c 0,10,11
 96 1406 96 1406 153 1458 c 128,-1,12
 210 1510 210 1510 296 1509.5 c 128,-1,13
 382 1509 382 1509 440 1455 c 0,14,15
 496 1402 496 1402 496 1319 c 0,0,1
EndSplineSet
EndChar

StartChar: uni030F
Encoding: 783 783 280
Width: 1335
GlyphClass: 2
Flags: W
LayerCount: 2
Fore
SplineSet
639 1539 m 1,0,1
 639 1593 639 1593 732 1593 c 2,2,-1
 1034 1593 l 1,3,-1
 1184 1223 l 1,4,-1
 949 1223 l 1,5,-1
 639 1539 l 1,0,1
137 1539 m 1,6,7
 137 1593 137 1593 230 1593 c 2,8,-1
 532 1593 l 1,9,-1
 682 1223 l 1,10,-1
 447 1223 l 1,11,-1
 137 1539 l 1,6,7
EndSplineSet
EndChar

StartChar: uni0311
Encoding: 785 785 281
Width: 936
GlyphClass: 2
Flags: W
LayerCount: 2
Fore
SplineSet
469 1401 m 128,-1,1
 378 1401 378 1401 378 1299 c 1,2,-1
 59 1299 l 1,3,4
 58 1444 58 1444 182 1518 c 0,5,6
 290 1583 290 1583 469 1583 c 0,7,8
 651 1584 651 1584 762 1512 c 0,9,10
 879 1436 879 1436 879 1299 c 1,11,-1
 560 1299 l 1,12,0
 560 1401 560 1401 469 1401 c 128,-1,1
EndSplineSet
EndChar

StartChar: uni0326
Encoding: 806 806 282
Width: 546
GlyphClass: 2
Flags: W
LayerCount: 2
Fore
SplineSet
451.5 -173 m 128,-1,1
 508 -237 508 -237 508 -330 c 128,-1,2
 508 -423 508 -423 484 -488 c 128,-1,3
 460 -553 460 -553 412 -613 c 0,4,5
 324 -725 324 -725 133 -843 c 1,6,-1
 39 -750 l 1,7,8
 155 -639 155 -639 210 -482 c 1,9,10
 144 -468 144 -468 104.5 -420 c 128,-1,11
 65 -372 65 -372 65 -313 c 128,-1,12
 65 -254 65 -254 83 -219 c 0,13,14
 102 -184 102 -184 132 -160 c 0,15,16
 195 -110 195 -110 295 -109.5 c 128,-1,0
 395 -109 395 -109 451.5 -173 c 128,-1,1
EndSplineSet
EndChar

StartChar: Delta
Encoding: 916 916 283
AltUni2: 002206.ffffffff.0
Width: 1383
GlyphClass: 2
Flags: W
LayerCount: 2
Fore
SplineSet
613 1091 m 1,0,-1
 234 131 l 1,1,-1
 995 131 l 1,2,-1
 613 1091 l 1,0,-1
80 0 m 1,3,-1
 80 73 l 1,4,-1
 609 1382 l 1,5,-1
 714 1407 l 1,6,-1
 1257 73 l 1,7,-1
 1257 0 l 1,8,-1
 80 0 l 1,3,-1
EndSplineSet
EndChar

StartChar: Omega
Encoding: 937 937 284
AltUni2: 002126.ffffffff.0
Width: 1603
GlyphClass: 2
Flags: W
LayerCount: 2
Fore
SplineSet
460 173 m 1,0,1
 157 435 157 435 157 762 c 0,2,3
 157 1053 157 1053 330 1230 c 0,4,5
 501 1405 501 1405 772 1405 c 0,6,7
 1052 1405 1052 1405 1218 1229 c 0,8,9
 1380 1058 1380 1058 1380 780 c 0,10,11
 1380 550 1380 550 1207 334 c 0,12,13
 1146 258 1146 258 1061 173 c 1,14,-1
 1238 173 l 2,15,16
 1298 173 1298 173 1318 198 c 0,17,18
 1347 232 1347 232 1377 323 c 1,19,-1
 1465 323 l 1,20,-1
 1408 0 l 1,21,-1
 897 0 l 1,22,-1
 875 60 l 1,23,-1
 919 136 l 2,24,25
 1035 335 1035 335 1071 428 c 0,26,27
 1143 609 1143 609 1143 747.5 c 128,-1,28
 1143 886 1143 886 1117 988 c 0,29,30
 1091 1092 1091 1092 1042 1162 c 0,31,32
 942 1306 942 1306 764 1306 c 0,33,34
 494 1306 494 1306 418 994 c 0,35,36
 392 890 392 890 392.5 783.5 c 128,-1,37
 393 677 393 677 405 608 c 0,38,39
 416 539 416 539 444 464 c 0,40,41
 497 321 497 321 627 108 c 1,42,-1
 657 60 l 1,43,-1
 631 0 l 1,44,-1
 125 0 l 1,45,-1
 72 321 l 1,46,-1
 158 321 l 1,47,-1
 181 258 l 1,48,49
 215 173 215 173 299 173 c 2,50,-1
 460 173 l 1,0,1
EndSplineSet
EndChar

StartChar: mu.001
Encoding: 956 956 285
Width: 1355
GlyphClass: 2
Flags: W
LayerCount: 2
Fore
SplineSet
365 994 m 0,0,1
 579 994 579 994 579 899 c 2,2,-1
 579 278 l 1,3,4
 583 189 583 189 601 169.5 c 128,-1,5
 619 150 619 150 640 150 c 128,-1,6
 661 150 661 150 684.5 157 c 128,-1,7
 708 164 708 164 732 174 c 0,8,9
 779 195 779 195 809 226 c 1,10,11
 813 277 813 277 813 373 c 2,12,-1
 813 824 l 1,13,-1
 680 824 l 1,14,-1
 669 950 l 1,15,16
 862 994 862 994 1024 994 c 0,17,18
 1168 994 1168 994 1216 942 c 0,19,20
 1232 924 1232 924 1233 899 c 2,21,-1
 1233 272 l 2,22,23
 1233 181 1233 181 1241 147 c 1,24,-1
 1393 147 l 1,25,-1
 1393 35 l 1,26,27
 1191 -11 1191 -11 1020 -11 c 0,28,29
 914 -12 914 -12 881 4 c 0,30,31
 821 32 821 32 817 109 c 1,32,33
 670 -6 670 -6 518 -20 c 1,34,-1
 518 -72 l 2,35,36
 518 -167 518 -167 563 -217.5 c 128,-1,37
 608 -268 608 -268 694 -294 c 1,38,39
 696 -324 696 -324 697.5 -340 c 128,-1,40
 699 -356 699 -356 699 -358 c 2,41,-1
 699 -367 l 1,42,43
 576 -454 576 -454 436 -454 c 128,-1,44
 296 -454 296 -454 228 -409.5 c 128,-1,45
 160 -365 160 -365 160 -261 c 2,46,-1
 160 824 l 1,47,-1
 18 824 l 1,48,-1
 5 950 l 1,49,50
 204 994 204 994 365 994 c 0,0,1
EndSplineSet
EndChar

StartChar: pi
Encoding: 960 960 286
Width: 1364
GlyphClass: 2
Flags: W
LayerCount: 2
Fore
SplineSet
778 140 m 128,-1,1
 766 196 766 196 766 332.5 c 128,-1,2
 766 469 766 469 786 773 c 1,3,-1
 636 773 l 1,4,5
 636 480 636 480 571 250 c 0,6,7
 527 95 527 95 480 41 c 1,8,9
 332 -14 332 -14 142 -40 c 1,10,-1
 113 39 l 1,11,12
 287 247 287 247 305 737 c 1,13,14
 262 714 262 714 209 675 c 2,15,-1
 110 600 l 1,16,-1
 13 762 l 1,17,18
 108 878 108 878 172 915 c 0,19,20
 293 983 293 983 477 983 c 2,21,-1
 1357 983 l 1,22,-1
 1357 772 l 1,23,-1
 1138 772 l 1,24,25
 1128 642 1128 642 1128 490 c 128,-1,26
 1128 338 1128 338 1132.5 312 c 128,-1,27
 1137 286 1137 286 1153.5 286 c 128,-1,28
 1170 286 1170 286 1230 340 c 1,29,-1
 1349 150 l 1,30,31
 1247 -22 1247 -22 1033 -22 c 0,32,33
 880 -22 880 -22 820 48 c 0,34,0
 790 84 790 84 778 140 c 128,-1,1
EndSplineSet
EndChar

StartChar: endash
Encoding: 8211 8211 287
Width: 1001
GlyphClass: 2
Flags: W
LayerCount: 2
Fore
SplineSet
1129 563 m 2,0,1
 1129 520 1129 520 1102 495.5 c 128,-1,2
 1075 471 1075 471 1029 471 c 2,3,-1
 -12 471 l 1,4,-1
 -12 555 l 2,5,6
 -12 612 -12 612 34 630 c 0,7,8
 72 646 72 646 176 646 c 2,9,-1
 1129 646 l 1,10,-1
 1129 563 l 2,0,1
EndSplineSet
EndChar

StartChar: emdash
Encoding: 8212 8212 288
Width: 1812
GlyphClass: 2
Flags: W
LayerCount: 2
Fore
SplineSet
1824 563 m 2,0,1
 1824 517 1824 517 1788 494 c 128,-1,2
 1752 471 1752 471 1695 471 c 2,3,-1
 -12 471 l 1,4,-1
 -12 555 l 2,5,6
 -12 612 -12 612 34 630 c 0,7,8
 72 646 72 646 176 646 c 2,9,-1
 1824 646 l 1,10,-1
 1824 563 l 2,0,1
EndSplineSet
EndChar

StartChar: quoteleft
Encoding: 8216 8216 289
Width: 635
GlyphClass: 2
Flags: W
LayerCount: 2
Fore
SplineSet
148.5 742 m 128,-1,1
 92 806 92 806 92 898.5 c 128,-1,2
 92 991 92 991 116 1055.5 c 128,-1,3
 140 1120 140 1120 187 1180 c 0,4,5
 275 1292 275 1292 467 1412 c 1,6,-1
 561 1319 l 1,7,8
 445 1208 445 1208 390 1051 c 1,9,10
 456 1037 456 1037 495.5 989 c 128,-1,11
 535 941 535 941 535 881.5 c 128,-1,12
 535 822 535 822 517 787.5 c 0,13,14
 498 752 498 752 468 728 c 0,15,16
 405 678 405 678 305 678 c 128,-1,0
 205 678 205 678 148.5 742 c 128,-1,1
EndSplineSet
EndChar

StartChar: quoteright
Encoding: 8217 8217 290
Width: 635
GlyphClass: 2
Flags: W
LayerCount: 2
Fore
SplineSet
486.5 1348 m 128,-1,1
 543 1284 543 1284 543 1191.5 c 128,-1,2
 543 1099 543 1099 519 1034.5 c 128,-1,3
 495 970 495 970 448 910 c 0,4,5
 360 798 360 798 168 678 c 1,6,-1
 74 771 l 1,7,8
 190 882 190 882 245 1039 c 1,9,10
 179 1053 179 1053 139.5 1101 c 128,-1,11
 100 1149 100 1149 100 1208 c 128,-1,12
 100 1267 100 1267 118 1302 c 0,13,14
 136 1338 136 1338 166 1362 c 0,15,16
 229 1412 229 1412 329.5 1412 c 128,-1,0
 430 1412 430 1412 486.5 1348 c 128,-1,1
EndSplineSet
EndChar

StartChar: quotesinglbase
Encoding: 8218 8218 291
Width: 658
GlyphClass: 2
Flags: W
LayerCount: 2
Fore
SplineSet
486.5 294 m 128,-1,1
 543 230 543 230 543 137.5 c 128,-1,2
 543 45 543 45 519 -19.5 c 128,-1,3
 495 -84 495 -84 448 -144 c 0,4,5
 360 -256 360 -256 168 -376 c 1,6,-1
 74 -283 l 1,7,8
 190 -172 190 -172 245 -15 c 1,9,10
 179 -1 179 -1 139.5 47 c 128,-1,11
 100 95 100 95 100 154 c 128,-1,12
 100 213 100 213 118 248 c 0,13,14
 136 284 136 284 166 308 c 0,15,16
 229 358 229 358 329.5 358 c 128,-1,0
 430 358 430 358 486.5 294 c 128,-1,1
EndSplineSet
EndChar

StartChar: quotedblleft
Encoding: 8220 8220 292
Width: 1182
GlyphClass: 2
Flags: W
LayerCount: 2
Fore
SplineSet
148.5 742 m 128,-1,1
 92 806 92 806 92 898.5 c 128,-1,2
 92 991 92 991 116 1055.5 c 128,-1,3
 140 1120 140 1120 187 1180 c 0,4,5
 275 1292 275 1292 467 1412 c 1,6,-1
 561 1319 l 1,7,8
 445 1208 445 1208 390 1051 c 1,9,10
 456 1037 456 1037 495.5 989 c 128,-1,11
 535 941 535 941 535 881.5 c 128,-1,12
 535 822 535 822 517 787.5 c 0,13,14
 498 752 498 752 468 728 c 0,15,16
 405 678 405 678 305 678 c 128,-1,0
 205 678 205 678 148.5 742 c 128,-1,1
695.5 742 m 128,-1,18
 639 806 639 806 639 898.5 c 128,-1,19
 639 991 639 991 663 1055.5 c 128,-1,20
 687 1120 687 1120 734 1180 c 0,21,22
 822 1292 822 1292 1014 1412 c 1,23,-1
 1108 1319 l 1,24,25
 992 1208 992 1208 937 1051 c 1,26,27
 1003 1037 1003 1037 1042.5 989 c 128,-1,28
 1082 941 1082 941 1082 881.5 c 128,-1,29
 1082 822 1082 822 1064 787.5 c 0,30,31
 1046 752 1046 752 1016 728 c 0,32,33
 953 678 953 678 852.5 678 c 128,-1,17
 752 678 752 678 695.5 742 c 128,-1,18
EndSplineSet
EndChar

StartChar: quotedblright
Encoding: 8221 8221 293
Width: 1182
GlyphClass: 2
Flags: W
LayerCount: 2
Fore
SplineSet
1033.5 1348 m 128,-1,1
 1090 1284 1090 1284 1090 1191.5 c 128,-1,2
 1090 1099 1090 1099 1066 1034.5 c 128,-1,3
 1042 970 1042 970 995 910 c 0,4,5
 907 798 907 798 715 678 c 1,6,-1
 621 771 l 1,7,8
 737 882 737 882 792 1039 c 1,9,10
 726 1053 726 1053 686.5 1101 c 128,-1,11
 647 1149 647 1149 647 1208 c 128,-1,12
 647 1267 647 1267 665 1302 c 0,13,14
 684 1338 684 1338 714 1362 c 0,15,16
 777 1412 777 1412 877 1412 c 128,-1,0
 977 1412 977 1412 1033.5 1348 c 128,-1,1
486.5 1348 m 128,-1,18
 543 1284 543 1284 543 1191.5 c 128,-1,19
 543 1099 543 1099 519 1034.5 c 128,-1,20
 495 970 495 970 448 910 c 0,21,22
 360 798 360 798 168 678 c 1,23,-1
 74 771 l 1,24,25
 190 882 190 882 245 1039 c 1,26,27
 179 1053 179 1053 139.5 1101 c 128,-1,28
 100 1149 100 1149 100 1208 c 128,-1,29
 100 1267 100 1267 118 1302 c 0,30,31
 136 1338 136 1338 166 1362 c 0,32,33
 229 1412 229 1412 329.5 1412 c 128,-1,17
 430 1412 430 1412 486.5 1348 c 128,-1,18
EndSplineSet
EndChar

StartChar: quotedblbase
Encoding: 8222 8222 294
Width: 1179
GlyphClass: 2
Flags: W
LayerCount: 2
Fore
SplineSet
1007.5 294 m 128,-1,1
 1064 230 1064 230 1064 137.5 c 128,-1,2
 1064 45 1064 45 1040 -19.5 c 128,-1,3
 1016 -84 1016 -84 969 -144 c 0,4,5
 881 -256 881 -256 689 -376 c 1,6,-1
 595 -283 l 1,7,8
 711 -172 711 -172 766 -15 c 1,9,10
 700 -1 700 -1 660.5 47 c 128,-1,11
 621 95 621 95 621 154 c 128,-1,12
 621 213 621 213 639 248 c 0,13,14
 658 284 658 284 688 308 c 0,15,16
 751 359 751 359 851 358.5 c 128,-1,0
 951 358 951 358 1007.5 294 c 128,-1,1
486.5 294 m 128,-1,18
 543 230 543 230 543 137.5 c 128,-1,19
 543 45 543 45 519 -19.5 c 128,-1,20
 495 -84 495 -84 448 -144 c 0,21,22
 360 -256 360 -256 168 -376 c 1,23,-1
 74 -283 l 1,24,25
 190 -172 190 -172 245 -15 c 1,26,27
 179 -1 179 -1 139.5 47 c 128,-1,28
 100 95 100 95 100 154 c 128,-1,29
 100 213 100 213 118 248 c 0,30,31
 136 284 136 284 166 308 c 0,32,33
 229 358 229 358 329.5 358 c 128,-1,17
 430 358 430 358 486.5 294 c 128,-1,18
EndSplineSet
EndChar

StartChar: dagger
Encoding: 8224 8224 295
Width: 942
GlyphClass: 2
Flags: W
LayerCount: 2
Fore
SplineSet
58 1064 m 1,0,-1
 357 1064 l 1,1,-1
 357 1371 l 1,2,-1
 552 1371 l 1,3,-1
 552 1064 l 1,4,-1
 849 1064 l 1,5,-1
 849 919 l 1,6,-1
 552 919 l 1,7,-1
 552 0 l 1,8,-1
 357 0 l 1,9,-1
 357 919 l 1,10,-1
 58 919 l 1,11,-1
 58 1064 l 1,0,-1
EndSplineSet
EndChar

StartChar: daggerdbl
Encoding: 8225 8225 296
Width: 942
GlyphClass: 2
Flags: W
LayerCount: 2
Fore
SplineSet
58 1102 m 1,0,-1
 357 1102 l 1,1,-1
 357 1371 l 1,2,-1
 552 1371 l 1,3,-1
 552 1102 l 1,4,-1
 849 1102 l 1,5,-1
 849 956 l 1,6,-1
 552 956 l 1,7,-1
 552 416 l 1,8,-1
 849 416 l 1,9,-1
 849 269 l 1,10,-1
 552 269 l 1,11,-1
 552 0 l 1,12,-1
 357 0 l 1,13,-1
 357 269 l 1,14,-1
 58 269 l 1,15,-1
 58 416 l 1,16,-1
 357 416 l 1,17,-1
 357 956 l 1,18,-1
 58 956 l 1,19,-1
 58 1102 l 1,0,-1
EndSplineSet
EndChar

StartChar: bullet
Encoding: 8226 8226 297
Width: 889
GlyphClass: 2
Flags: W
LayerCount: 2
Fore
SplineSet
444 315 m 0,0,1
 368 315 368 315 303 336 c 128,-1,2
 238 357 238 357 191 395 c 0,3,4
 92 475 92 475 92 607 c 0,5,6
 92 740 92 740 194 822 c 0,7,8
 292 900 292 900 445 900 c 0,9,10
 600 900 600 900 698 820 c 0,11,12
 796 740 796 740 797 608 c 0,13,14
 798 474 798 474 696 393 c 0,15,16
 598 315 598 315 444 315 c 0,0,1
EndSplineSet
EndChar

StartChar: ellipsis
Encoding: 8230 8230 298
Width: 1827
GlyphClass: 2
Flags: W
LayerCount: 2
Fore
SplineSet
1775 166 m 0,0,1
 1775 125 1775 125 1761 89.5 c 128,-1,2
 1747 54 1747 54 1720.5 29.5 c 128,-1,3
 1694 5 1694 5 1657 -8.5 c 128,-1,4
 1620 -22 1620 -22 1575 -22 c 128,-1,5
 1530 -22 1530 -22 1493 -8.5 c 0,6,7
 1456 6 1456 6 1430 30 c 0,8,9
 1376 80 1376 80 1375 169 c 0,10,11
 1375 254 1375 254 1432 306 c 128,-1,12
 1489 358 1489 358 1575 357 c 0,13,14
 1668 357 1668 357 1722 301 c 0,15,16
 1776 246 1776 246 1775 166 c 0,0,1
1145 167 m 0,17,18
 1145 125 1145 125 1131 89.5 c 128,-1,19
 1117 54 1117 54 1090.5 29.5 c 128,-1,20
 1064 5 1064 5 1027 -8.5 c 128,-1,21
 990 -22 990 -22 945 -22 c 128,-1,22
 900 -22 900 -22 863 -8.5 c 0,23,24
 826 6 826 6 800 30 c 0,25,26
 746 80 746 80 745 169 c 0,27,28
 745 254 745 254 802 306 c 128,-1,29
 859 358 859 358 945 357.5 c 0,30,31
 1030 357 1030 357 1088 303 c 0,32,33
 1144 250 1144 250 1145 167 c 0,17,18
515 167 m 0,34,35
 515 125 515 125 501 89.5 c 128,-1,36
 487 54 487 54 460.5 29.5 c 128,-1,37
 434 5 434 5 397 -8.5 c 128,-1,38
 360 -22 360 -22 315 -22 c 128,-1,39
 270 -22 270 -22 233 -8.5 c 0,40,41
 196 6 196 6 170 30 c 0,42,43
 116 80 116 80 115 169 c 0,44,45
 115 254 115 254 172 306 c 128,-1,46
 229 358 229 358 315 357.5 c 0,47,48
 400 357 400 357 458 303 c 0,49,50
 514 250 514 250 515 167 c 0,34,35
EndSplineSet
EndChar

StartChar: guilsinglleft
Encoding: 8249 8249 299
Width: 671
GlyphClass: 2
Flags: W
LayerCount: 2
Fore
SplineSet
358 539 m 1,0,1
 506 224 506 224 549 129 c 1,2,3
 507 93 507 93 440 66 c 1,4,-1
 108 469 l 1,5,-1
 108 583 l 1,6,-1
 446 1017 l 1,7,8
 539 983 539 983 565 964 c 1,9,10
 532 871 532 871 358 539 c 1,0,1
EndSplineSet
EndChar

StartChar: guilsinglright
Encoding: 8250 8250 300
Width: 671
GlyphClass: 2
Flags: W
LayerCount: 2
Fore
SplineSet
314 539 m 1,0,1
 132 882 132 882 107 964 c 1,2,3
 133 983 133 983 226 1017 c 1,4,-1
 565 583 l 1,5,-1
 565 469 l 1,6,-1
 232 66 l 1,7,8
 168 90 168 90 123 129 c 1,9,10
 166 224 166 224 314 539 c 1,0,1
EndSplineSet
EndChar

StartChar: fraction
Encoding: 8260 8260 301
Width: 151
GlyphClass: 2
Flags: W
LayerCount: 2
Fore
SplineSet
435 1443 m 2,0,1
 576 1443 576 1443 608 1392 c 1,2,3
 605 1392 605 1392 561 1306.5 c 128,-1,4
 517 1221 517 1221 418.5 1024 c 128,-1,5
 320 827 320 827 191 572 c 2,6,-1
 -135 -73 l 1,7,-1
 -286 -73 l 2,8,9
 -430 -73 -430 -73 -457 -21 c 1,10,11
 -450 -4 -450 -4 -399 80 c 1,12,-1
 -403 78 l 1,13,-1
 287 1443 l 1,14,-1
 435 1443 l 2,0,1
EndSplineSet
EndChar

StartChar: uni2074
Encoding: 8308 8308 302
Width: 800
GlyphClass: 2
Flags: W
LayerCount: 2
Fore
SplineSet
834 408 m 1,0,1
 672 416 672 416 573 416 c 128,-1,2
 474 416 474 416 280 408 c 1,3,-1
 280 533 l 1,4,-1
 411 533 l 1,5,6
 415 553 415 553 415 597 c 2,7,-1
 415 660 l 1,8,-1
 90 660 l 1,9,-1
 57 716 l 1,10,11
 27 776 27 776 27 834 c 1,12,-1
 405 1388 l 1,13,-1
 580 1388 l 2,14,15
 639 1388 639 1388 658 1380 c 0,16,17
 699 1364 699 1364 699 1319 c 2,18,-1
 699 780 l 1,19,-1
 878 780 l 1,20,-1
 878 727 l 2,21,22
 878 664 878 664 811 661 c 0,23,24
 791 660 791 660 769 660 c 2,25,-1
 699 660 l 1,26,-1
 699 597 l 2,27,28
 699 553 699 553 703 533 c 1,29,-1
 834 533 l 1,30,-1
 834 408 l 1,0,1
415 780 m 1,31,-1
 415 1035 l 1,32,-1
 247 780 l 1,33,-1
 415 780 l 1,31,-1
EndSplineSet
EndChar

StartChar: Euro
Encoding: 8364 8364 303
Width: 1575
GlyphClass: 2
Flags: W
LayerCount: 2
Fore
SplineSet
726 458 m 1,0,1
 788 158 788 158 1005 158 c 0,2,3
 1205 158 1205 158 1405 251 c 0,4,5
 1463 278 1463 278 1522 308 c 1,6,-1
 1547 112 l 1,7,8
 1296 -35 1296 -35 979 -35 c 0,9,10
 697 -35 697 -35 511 95 c 0,11,12
 327 224 327 224 273 458 c 1,13,-1
 44 458 l 1,14,-1
 67 558 l 2,15,16
 80 618 80 618 158 622 c 0,17,18
 184 624 184 624 219 623 c 2,19,-1
 250 623 l 1,20,-1
 250 693 l 2,21,22
 250 699 250 699 251 704 c 1,23,-1
 66 704 l 1,24,-1
 88 802 l 2,25,26
 102 865 102 865 188 868 c 0,27,28
 212 869 212 869 239 869 c 2,29,-1
 270 869 l 1,30,31
 350 1267 350 1267 724 1376 c 0,32,33
 848 1412 848 1412 1001 1412 c 0,34,35
 1307 1412 1307 1412 1526 1279 c 1,36,-1
 1503 1002 l 1,37,-1
 1174 1002 l 1,38,-1
 1147 1071 l 2,39,40
 1101 1186 1101 1186 1049 1222 c 0,41,42
 1026 1238 1026 1238 976 1238 c 128,-1,43
 926 1238 926 1238 876 1206 c 128,-1,44
 826 1174 826 1174 793 1122 c 0,45,46
 735 1031 735 1031 714 869 c 1,47,-1
 1178 869 l 1,48,-1
 1153 771 l 2,49,50
 1135 704 1135 704 974 704 c 2,51,-1
 703 704 l 1,52,-1
 703 662 l 2,53,54
 703 643 703 643 705 623 c 1,55,-1
 1127 623 l 1,56,-1
 1108 557 l 2,57,58
 1089 494 1089 494 1066 480 c 0,59,60
 1027 458 1027 458 920 458 c 2,61,-1
 726 458 l 1,0,1
EndSplineSet
EndChar

StartChar: trademark
Encoding: 8482 8482 304
Width: 2009
GlyphClass: 2
Flags: W
LayerCount: 2
Fore
SplineSet
534 799 m 2,0,1
 534 766 534 766 536 750 c 1,2,-1
 636 750 l 1,3,-1
 636 655 l 1,4,5
 505 661 505 661 422.5 661 c 128,-1,6
 340 661 340 661 201 655 c 1,7,-1
 201 750 l 1,8,-1
 300 750 l 1,9,10
 304 763 304 763 304 799 c 2,11,-1
 304 1302 l 1,12,-1
 168 1302 l 1,13,14
 166 1296 166 1296 156 1199 c 1,15,-1
 49 1199 l 1,16,-1
 44 1390 l 1,17,18
 68 1400 68 1400 192 1400 c 2,19,-1
 645 1400 l 2,20,21
 769 1400 769 1400 793 1390 c 1,22,-1
 788 1199 l 1,23,-1
 681 1199 l 1,24,-1
 670 1303 l 1,25,26
 660 1302 660 1302 649 1302 c 0,27,28
 591 1302 591 1302 534 1302 c 1,29,-1
 534 799 l 2,0,1
928 751 m 1,30,31
 950 874 950 874 967 1081.5 c 128,-1,32
 984 1289 984 1289 984 1295 c 128,-1,33
 984 1301 984 1301 983 1303 c 1,34,-1
 876 1303 l 1,35,-1
 876 1391 l 1,36,37
 1011 1400 1011 1400 1100 1400 c 128,-1,38
 1189 1400 1189 1400 1234 1387 c 1,39,-1
 1377 967 l 1,40,41
 1391 1009 1391 1009 1410 1067 c 128,-1,42
 1429 1125 1429 1125 1449 1185 c 0,43,44
 1497 1327 1497 1327 1521 1387 c 1,45,46
 1566 1400 1566 1400 1655 1400 c 128,-1,47
 1744 1400 1744 1400 1879 1391 c 1,48,-1
 1879 1303 l 1,49,-1
 1778 1303 l 1,50,51
 1778 1284 1778 1284 1790 1172 c 2,52,-1
 1806 1010 l 2,53,54
 1817 893 1817 893 1833 751 c 1,55,-1
 1931 751 l 1,56,-1
 1940 655 l 1,57,58
 1844 663 1844 663 1737.5 663 c 128,-1,59
 1631 663 1631 663 1537 657 c 1,60,-1
 1543 751 l 1,61,-1
 1604 751 l 1,62,-1
 1576 1062 l 1,63,64
 1507 817 1507 817 1460 664 c 1,65,-1
 1266 664 l 1,66,-1
 1126 1063 l 1,67,68
 1093 756 1093 756 1093 753 c 1,69,70
 1094 752 1094 752 1104 751.5 c 128,-1,71
 1114 751 1114 751 1134 751 c 2,72,-1
 1192 751 l 1,73,-1
 1183 657 l 1,74,75
 1090 663 1090 663 1031 663 c 0,76,77
 929 663 929 663 821 655 c 1,78,-1
 831 751 l 1,79,-1
 928 751 l 1,30,31
EndSplineSet
EndChar

StartChar: estimated
Encoding: 8494 8494 305
Width: 1827
GlyphClass: 2
Flags: W
LayerCount: 2
Fore
SplineSet
1275 701 m 1,0,-1
 1275 1083 l 1,1,2
 1100 1246 1100 1246 925.5 1246 c 128,-1,3
 751 1246 751 1246 575 1076 c 1,4,-1
 575 701 l 1,5,-1
 1275 701 l 1,0,-1
927 64 m 0,6,7
 1132 64 1132 64 1319 283 c 1,8,-1
 1630 283 l 1,9,10
 1438 56 1438 56 1136 -8 c 0,11,12
 1035 -30 1035 -30 927 -29.5 c 128,-1,13
 819 -29 819 -29 715.5 -7 c 128,-1,14
 612 15 612 15 518 57 c 128,-1,15
 424 99 424 99 344 159 c 128,-1,16
 264 219 264 219 206 295 c 0,17,18
 82 457 82 457 82 655 c 0,19,20
 82 859 82 859 212 1022 c 0,21,22
 330 1171 330 1171 528 1258 c 0,23,24
 717 1341 717 1341 926 1341 c 0,25,26
 1161 1340 1161 1340 1360 1244 c 0,27,28
 1552 1152 1552 1152 1660 996 c 0,29,30
 1772 837 1772 837 1771 655 c 2,31,-1
 1771 609 l 1,32,-1
 575 609 l 1,33,-1
 575 234 l 1,34,35
 750 64 750 64 927 64 c 0,6,7
EndSplineSet
EndChar

StartChar: partialdiff
Encoding: 8706 8706 306
Width: 1190
GlyphClass: 2
Flags: W
LayerCount: 2
Fore
SplineSet
752 598 m 1,0,1
 691 720 691 720 650.5 720 c 128,-1,2
 610 720 610 720 581.5 700.5 c 128,-1,3
 553 681 553 681 532.5 648 c 128,-1,4
 512 615 512 615 499 572 c 0,5,6
 486 528 486 528 478 482 c 0,7,8
 464 398 464 398 464.5 327 c 128,-1,9
 465 256 465 256 470 217 c 0,10,11
 474 178 474 178 484 150 c 0,12,13
 504 88 504 88 540 88 c 0,14,15
 672 88 672 88 732 406 c 0,16,17
 752 510 752 510 752 598 c 1,0,1
769 828 m 1,18,19
 771 864 771 864 771 897 c 128,-1,20
 771 930 771 930 767 971 c 128,-1,21
 763 1012 763 1012 753 1056 c 128,-1,22
 743 1100 743 1100 727.5 1143.5 c 0,23,24
 712 1188 712 1188 689 1222 c 0,25,26
 637 1300 637 1300 564 1299 c 0,27,28
 453 1299 453 1299 222 1199 c 1,29,-1
 149 1355 l 1,30,31
 327 1470 327 1470 532 1470 c 0,32,33
 730 1470 730 1470 873 1363 c 0,34,35
 1066 1218 1066 1218 1118 928 c 0,36,37
 1134 840 1134 840 1133.5 746.5 c 128,-1,38
 1133 653 1133 653 1116.5 557 c 128,-1,39
 1100 461 1100 461 1067 374 c 128,-1,40
 1034 287 1034 287 984.5 214 c 128,-1,41
 935 141 935 141 869 87 c 0,42,43
 730 -27 730 -27 540 -27 c 0,44,45
 330 -27 330 -27 204 80 c 0,46,47
 77 188 77 188 77 376 c 0,48,49
 77 546 77 546 203 686 c 0,50,51
 351 850 351 850 607 850 c 0,52,53
 694 850 694 850 769 828 c 1,18,19
EndSplineSet
EndChar

StartChar: product
Encoding: 8719 8719 307
Width: 1406
GlyphClass: 2
Flags: W
LayerCount: 2
Fore
SplineSet
489 1261 m 2,0,1
 467 1261 467 1261 461 1257 c 128,-1,2
 455 1253 455 1253 455 1235 c 2,3,-1
 455 67 l 2,4,5
 456 -13 456 -13 474 -28 c 0,6,7
 499 -48 499 -48 604 -60 c 1,8,-1
 604 -165 l 1,9,-1
 52 -165 l 1,10,-1
 52 -60 l 1,11,-1
 84 -57 l 1,12,13
 171 -55 171 -55 193 -35 c 128,-1,14
 215 -15 215 -15 220.5 8.5 c 128,-1,15
 226 32 226 32 226 67 c 2,16,-1
 226 1170 l 2,17,18
 226 1239 226 1239 192 1256 c 0,19,20
 166 1270 166 1270 46 1278 c 1,21,-1
 46 1384 l 1,22,-1
 1350 1384 l 1,23,-1
 1350 1278 l 1,24,25
 1311 1271 1311 1271 1278 1270.5 c 128,-1,26
 1245 1270 1245 1270 1221 1263 c 0,27,28
 1171 1248 1171 1248 1171 1170 c 2,29,-1
 1171 69 l 2,30,31
 1170 -10 1170 -10 1204 -32 c 0,32,33
 1234 -52 1234 -52 1347 -60 c 1,34,-1
 1347 -165 l 1,35,-1
 781 -165 l 1,36,-1
 781 -60 l 1,37,-1
 812 -57 l 1,38,39
 898 -55 898 -55 918 -35 c 0,40,41
 948 -5 948 -5 948 67 c 2,42,-1
 948 1226 l 2,43,44
 948 1250 948 1250 940.5 1255.5 c 128,-1,45
 933 1261 933 1261 906 1261 c 2,46,-1
 489 1261 l 2,0,1
EndSplineSet
EndChar

StartChar: summation
Encoding: 8721 8721 308
Width: 1181
GlyphClass: 2
Flags: W
LayerCount: 2
Fore
SplineSet
365 1264 m 1,0,-1
 714 676 l 1,1,-1
 292 31 l 1,2,-1
 756 31 l 2,3,4
 819 31 819 31 856 38 c 128,-1,5
 893 45 893 45 918 70 c 128,-1,6
 943 95 943 95 963.5 143 c 128,-1,7
 984 191 984 191 1014 273 c 1,8,-1
 1119 245 l 1,9,-1
 1022 -169 l 1,10,-1
 61 -169 l 1,11,-1
 61 -87 l 1,12,-1
 498 566 l 1,13,-1
 73 1298 l 1,14,-1
 73 1384 l 1,15,-1
 1025 1384 l 1,16,-1
 1055 1017 l 1,17,-1
 947 993 l 1,18,19
 919 1146 919 1146 880 1215 c 1,20,21
 860 1246 860 1246 816.5 1255 c 128,-1,22
 773 1264 773 1264 701 1264 c 2,23,-1
 365 1264 l 1,0,-1
EndSplineSet
EndChar

StartChar: minus
Encoding: 8722 8722 309
Width: 1141
GlyphClass: 2
Flags: W
LayerCount: 2
Fore
SplineSet
8 445 m 1,0,-1
 8 534 l 2,1,2
 8 598 8 598 48 617 c 0,3,4
 80 632 80 632 192 632 c 2,5,-1
 1132 632 l 1,6,-1
 1132 542 l 2,7,8
 1132 510 1132 510 1103.5 487.5 c 128,-1,9
 1075 465 1075 465 1008 445 c 1,10,-1
 8 445 l 1,0,-1
EndSplineSet
EndChar

StartChar: uni2215
Encoding: 8725 8725 310
Width: 1071
GlyphClass: 2
Flags: W
LayerCount: 2
Fore
SplineSet
890 1449 m 1,0,-1
 1075 1449 l 1,1,-1
 143 -85 l 1,2,-1
 -43 -85 l 1,3,-1
 890 1449 l 1,0,-1
EndSplineSet
EndChar

StartChar: uni2219
Encoding: 8729 8729 311
Width: 550
GlyphClass: 2
Flags: W
LayerCount: 2
Fore
SplineSet
78.5 516 m 128,-1,1
 60 540 60 540 60 572 c 128,-1,2
 60 604 60 604 80.5 629 c 0,3,4
 100 654 100 654 132 670 c 0,5,6
 193 701 193 701 255.5 701 c 128,-1,7
 318 701 318 701 356.5 691 c 0,8,9
 394 681 394 681 424 664 c 0,10,11
 490 626 490 626 490 570 c 0,12,13
 490 508 490 508 418 471 c 0,14,15
 357 440 357 440 296 440 c 128,-1,16
 235 440 235 440 196 449 c 128,-1,17
 157 458 157 458 127 475 c 128,-1,0
 97 492 97 492 78.5 516 c 128,-1,1
EndSplineSet
EndChar

StartChar: radical
Encoding: 8730 8730 312
Width: 1296
GlyphClass: 2
Flags: W
LayerCount: 2
Fore
SplineSet
271 669 m 1,0,1
 251 660 251 660 100 584 c 1,2,-1
 51 731 l 1,3,-1
 532 957 l 1,4,-1
 731 450 l 1,5,-1
 937 1736 l 1,6,-1
 1226 1670 l 1,7,-1
 912 -235 l 1,8,-1
 688 -355 l 1,9,-1
 271 669 l 1,0,1
EndSplineSet
EndChar

StartChar: infinity
Encoding: 8734 8734 313
Width: 1429
GlyphClass: 2
Flags: W
LayerCount: 2
Fore
SplineSet
821 572 m 1,0,-1
 867 521 l 2,1,2
 980 396 980 396 1072 396 c 0,3,4
 1139 396 1139 396 1182 446 c 0,5,6
 1223 494 1223 494 1223 550 c 0,7,8
 1223 645 1223 645 1181 695.5 c 128,-1,9
 1139 746 1139 746 1077.5 746 c 128,-1,10
 1016 746 1016 746 937 688.5 c 128,-1,11
 858 631 858 631 821 572 c 1,0,-1
427.5 736 m 128,-1,13
 399 746 399 746 366 746 c 128,-1,14
 333 746 333 746 304 732.5 c 128,-1,15
 275 719 275 719 255 695 c 0,16,17
 214 646 214 646 214 565 c 0,18,19
 214 448 214 448 312 408 c 0,20,21
 342 396 342 396 375 396 c 128,-1,22
 408 396 408 396 434 405 c 128,-1,23
 460 414 460 414 488 434 c 0,24,25
 538 470 538 470 622 565 c 1,26,27
 606 581 606 581 594.5 597 c 128,-1,28
 583 613 583 613 569.5 630 c 128,-1,29
 556 647 556 647 532.5 669.5 c 128,-1,30
 509 692 509 692 482.5 709 c 128,-1,12
 456 726 456 726 427.5 736 c 128,-1,13
1367.5 705 m 128,-1,32
 1390 644 1390 644 1390 571 c 128,-1,33
 1390 498 1390 498 1364.5 436 c 0,34,35
 1340 374 1340 374 1296 329 c 0,36,37
 1204 234 1204 234 1066 234 c 0,38,39
 978 234 978 234 896 284 c 128,-1,40
 814 334 814 334 721 439 c 1,41,42
 638 342 638 342 587 307 c 0,43,44
 482 234 482 234 365 234 c 0,45,46
 227 234 227 234 134 332 c 0,47,48
 44 427 44 427 44 566 c 0,49,50
 44 715 44 715 141 812 c 0,51,52
 235 906 235 906 380 906 c 0,53,54
 526 906 526 906 649 783 c 0,55,56
 687 745 687 745 727 699 c 1,57,58
 815 800 815 800 871 837 c 0,59,60
 976 906 976 906 1062 906 c 128,-1,61
 1148 906 1148 906 1206 880.5 c 128,-1,62
 1264 855 1264 855 1304.5 810.5 c 128,-1,31
 1345 766 1345 766 1367.5 705 c 128,-1,32
EndSplineSet
EndChar

StartChar: integral
Encoding: 8747 8747 314
Width: 673
GlyphClass: 2
Flags: W
LayerCount: 2
Fore
SplineSet
431 245 m 0,0,1
 431 -382 431 -382 151 -382 c 0,2,3
 48 -382 48 -382 12 -308 c 0,4,5
 0 -284 0 -284 0 -250.5 c 128,-1,6
 0 -217 0 -217 23 -193.5 c 128,-1,7
 46 -170 46 -170 78 -170 c 128,-1,8
 110 -170 110 -170 122.5 -182.5 c 128,-1,9
 135 -195 135 -195 142 -210.5 c 128,-1,10
 149 -226 149 -226 155 -238.5 c 128,-1,11
 161 -251 161 -251 175 -251 c 0,12,13
 215 -251 215 -251 215 -64 c 0,14,15
 215 20 215 20 208 150 c 128,-1,16
 201 280 201 280 196.5 370.5 c 0,17,18
 192 460 192 460 188 544 c 0,19,20
 178 720 178 720 178 821 c 128,-1,21
 178 922 178 922 191 1028 c 128,-1,22
 204 1134 204 1134 237 1214 c 0,23,24
 309 1388 309 1388 472 1387 c 0,25,26
 532 1387 532 1387 566 1365 c 0,27,28
 627 1326 627 1326 627 1280 c 128,-1,29
 627 1234 627 1234 600 1207 c 128,-1,30
 573 1180 573 1180 536.5 1180 c 128,-1,31
 500 1180 500 1180 486 1192 c 128,-1,32
 472 1204 472 1204 463.5 1219 c 128,-1,33
 455 1234 455 1234 449 1246 c 128,-1,34
 443 1258 443 1258 436 1258 c 0,35,36
 393 1258 393 1258 393 1060 c 0,37,38
 393 944 393 944 406 744 c 0,39,40
 431 358 431 358 431 245 c 0,0,1
EndSplineSet
EndChar

StartChar: approxequal
Encoding: 8776 8776 315
Width: 1116
GlyphClass: 2
Flags: W
LayerCount: 2
Fore
SplineSet
91 259 m 1,0,1
 207 480 207 480 404 480 c 0,2,3
 461 480 461 480 511 458 c 128,-1,4
 561 436 561 436 606.5 410 c 128,-1,5
 652 384 652 384 695.5 362 c 128,-1,6
 739 340 739 340 785 340 c 128,-1,7
 831 340 831 340 870 380 c 128,-1,8
 909 420 909 420 954 498 c 1,9,-1
 1070 393 l 1,10,11
 951 174 951 174 781 174 c 0,12,13
 703 174 703 174 573 244 c 0,14,15
 524 270 524 270 477.5 292.5 c 128,-1,16
 431 315 431 315 399.5 315 c 128,-1,17
 368 315 368 315 348.5 308.5 c 128,-1,18
 329 302 329 302 308 284 c 0,19,20
 265 248 265 248 206 163 c 1,21,-1
 91 259 l 1,0,1
91 666 m 1,22,23
 207 887 207 887 404 887 c 0,24,25
 461 887 461 887 511 865 c 128,-1,26
 561 843 561 843 606.5 817 c 128,-1,27
 652 791 652 791 695.5 769 c 128,-1,28
 739 747 739 747 785 747 c 128,-1,29
 831 747 831 747 870 787 c 128,-1,30
 909 827 909 827 954 905 c 1,31,-1
 1070 800 l 1,32,33
 951 581 951 581 781 581 c 0,34,35
 703 582 703 582 573 652 c 0,36,37
 524 678 524 678 477.5 700 c 128,-1,38
 431 722 431 722 399.5 722 c 128,-1,39
 368 722 368 722 348.5 715.5 c 0,40,41
 329 710 329 710 308 692 c 0,42,43
 265 656 265 656 206 570 c 1,44,-1
 91 666 l 1,22,23
EndSplineSet
EndChar

StartChar: notequal
Encoding: 8800 8800 316
Width: 1114
GlyphClass: 2
Flags: W
LayerCount: 2
Fore
SplineSet
1058 372 m 2,0,1
 1058 293 1058 293 995 272 c 1,2,-1
 552 272 l 1,3,-1
 459 58 l 1,4,-1
 378 58 l 2,5,6
 298 58 298 58 273 109 c 1,7,-1
 338 272 l 1,8,-1
 72 272 l 1,9,-1
 72 363 l 2,10,11
 72 424 72 424 86 438 c 0,12,13
 108 461 108 461 173 461 c 2,14,-1
 418 461 l 1,15,-1
 494 638 l 1,16,-1
 72 638 l 1,17,-1
 72 728 l 2,18,19
 72 789 72 789 92 804 c 0,20,21
 119 825 119 825 188 825 c 2,22,-1
 574 825 l 1,23,-1
 665 1037 l 1,24,-1
 746 1037 l 2,25,26
 819 1037 819 1037 851 989 c 1,27,28
 838 959 838 959 825 921 c 0,29,30
 799 849 799 849 788 825 c 1,31,-1
 1058 825 l 1,32,-1
 1058 737 l 2,33,34
 1058 694 1058 694 1043.5 672 c 128,-1,35
 1029 650 1029 650 995 638 c 1,36,-1
 708 638 l 1,37,-1
 631 461 l 1,38,-1
 1058 461 l 1,39,-1
 1058 372 l 2,0,1
EndSplineSet
EndChar

StartChar: lessequal
Encoding: 8804 8804 317
Width: 1104
GlyphClass: 2
Flags: W
LayerCount: 2
Fore
SplineSet
107 0 m 1,0,-1
 107 167 l 1,1,-1
 1042 167 l 1,2,-1
 1042 0 l 1,3,-1
 107 0 l 1,0,-1
116 715 m 1,4,-1
 116 864 l 1,5,-1
 1035 1277 l 1,6,-1
 1035 1086 l 1,7,-1
 322 792 l 1,8,-1
 1035 493 l 1,9,-1
 1035 302 l 1,10,-1
 116 715 l 1,4,-1
EndSplineSet
EndChar

StartChar: greaterequal
Encoding: 8805 8805 318
Width: 1104
GlyphClass: 2
Flags: W
LayerCount: 2
Fore
SplineSet
107 0 m 1,0,-1
 107 167 l 1,1,-1
 1042 167 l 1,2,-1
 1042 0 l 1,3,-1
 107 0 l 1,0,-1
114 302 m 1,4,-1
 114 493 l 1,5,-1
 827 792 l 1,6,-1
 114 1086 l 1,7,-1
 114 1277 l 1,8,-1
 1033 864 l 1,9,-1
 1033 715 l 1,10,-1
 114 302 l 1,4,-1
EndSplineSet
EndChar

StartChar: lozenge
Encoding: 9674 9674 319
Width: 1092
GlyphClass: 2
Flags: W
LayerCount: 2
Fore
SplineSet
533 131 m 1,0,-1
 828 714 l 1,1,-1
 533 1268 l 1,2,-1
 230 718 l 1,3,-1
 533 131 l 1,0,-1
448 1399 m 1,4,-1
 611 1399 l 1,5,-1
 1016 714 l 1,6,-1
 611 0 l 1,7,-1
 448 0 l 1,8,-1
 44 714 l 1,9,-1
 448 1399 l 1,4,-1
EndSplineSet
EndChar

StartChar: fi
Encoding: 64257 64257 320
Width: 1656
GlyphClass: 2
Flags: W
LayerCount: 2
Fore
SplineSet
1066 1125 m 1,0,1
 1055 1219 1055 1219 1055 1252 c 1,2,-1
 973 1252 l 2,3,4
 875 1252 875 1252 813.5 1246 c 128,-1,5
 752 1240 752 1240 717 1217.5 c 128,-1,6
 682 1195 682 1195 669 1149.5 c 128,-1,7
 656 1104 656 1104 656 1026 c 2,8,-1
 656 983 l 1,9,10
 722 982 722 982 783 982 c 2,11,-1
 1283 982 l 2,12,13
 1473 982 1473 982 1473 899 c 2,14,-1
 1473 239 l 2,15,16
 1473 184 1473 184 1482 147 c 1,17,-1
 1615 147 l 1,18,-1
 1628 33 l 1,19,20
 1435 -11 1435 -11 1274 -11 c 0,21,22
 1048 -11 1048 -11 1048 95 c 1,23,-1
 1054 284 l 1,24,-1
 1054 824 l 1,25,-1
 656 824 l 1,26,-1
 656 259 l 2,27,28
 656 176 656 176 675 158.5 c 128,-1,29
 694 141 694 141 723 134 c 128,-1,30
 752 127 752 127 802 120 c 1,31,-1
 813 -11 l 1,32,-1
 650 -5 l 2,33,34
 578 -3 578 -3 526 -1.5 c 128,-1,35
 474 0 474 0 393.5 0 c 128,-1,36
 313 0 313 0 100 -11 c 1,37,-1
 106 121 l 1,38,-1
 130 124 l 2,39,40
 199 132 199 132 215 146 c 0,41,42
 237 166 237 166 237 224 c 2,43,-1
 237 824 l 1,44,-1
 32 824 l 1,45,-1
 32 898 l 2,46,47
 32 983 32 983 179 983 c 2,48,-1
 237 983 l 1,49,-1
 237 1047 l 2,50,51
 237 1412 237 1412 919 1412 c 0,52,53
 1171 1412 1171 1412 1390 1349 c 1,54,-1
 1390 1125 l 1,55,-1
 1066 1125 l 1,0,1
EndSplineSet
EndChar

StartChar: fl
Encoding: 64258 64258 321
Width: 1722
GlyphClass: 2
Flags: W
LayerCount: 2
Fore
SplineSet
914 910 m 2,0,1
 914 824 914 824 778 824 c 2,2,-1
 656 824 l 1,3,-1
 656 259 l 2,4,5
 656 176 656 176 675 158.5 c 128,-1,6
 694 141 694 141 723 134 c 128,-1,7
 752 127 752 127 802 120 c 1,8,-1
 813 -11 l 1,9,-1
 650 -5 l 2,10,11
 578 -3 578 -3 526 -2 c 128,-1,12
 474 -1 474 -1 393.5 -0.5 c 128,-1,13
 313 0 313 0 100 -11 c 1,14,-1
 106 121 l 1,15,-1
 130 124 l 2,16,17
 199 132 199 132 215 146 c 0,18,19
 237 166 237 166 237 224 c 2,20,-1
 237 824 l 1,21,-1
 32 824 l 1,22,-1
 32 898 l 2,23,24
 32 983 32 983 179 983 c 2,25,-1
 237 983 l 1,26,-1
 237 1047 l 2,27,28
 237 1412 237 1412 739 1412 c 2,29,-1
 1366 1412 l 2,30,31
 1449 1412 1449 1412 1478 1398 c 0,32,33
 1529 1372 1529 1372 1529 1307 c 2,34,-1
 1529 227 l 2,35,36
 1529 166 1529 166 1535 145 c 1,37,-1
 1694 145 l 1,38,-1
 1694 34 l 1,39,40
 1512 -9 1512 -9 1341 -9 c 128,-1,41
 1170 -9 1170 -9 1106 82 c 1,42,-1
 1106 108 l 1,43,44
 1111 208 1111 208 1111 283 c 2,45,-1
 1111 1175 l 2,46,47
 1111 1222 1111 1222 1107 1252 c 1,48,-1
 765 1252 l 2,49,50
 738 1252 738 1252 717.5 1248 c 0,51,52
 698 1244 698 1244 684 1222 c 0,53,54
 656 1177 656 1177 656 1026 c 2,55,-1
 656 983 l 1,56,-1
 914 983 l 1,57,-1
 914 910 l 2,0,1
EndSplineSet
EndChar

StartChar: _325
Encoding: 65544 -1 327
Width: 914
GlyphClass: 2
Flags: W
LayerCount: 2
Fore
SplineSet
672.5 -218 m 128,-1,1
 729 -282 729 -282 729 -374.5 c 128,-1,2
 729 -467 729 -467 705 -531.5 c 128,-1,3
 681 -596 681 -596 634 -656 c 0,4,5
 546 -768 546 -768 354 -888 c 1,6,-1
 260 -795 l 1,7,8
 376 -684 376 -684 431 -527 c 1,9,10
 365 -513 365 -513 325.5 -465 c 128,-1,11
 286 -417 286 -417 286 -358 c 128,-1,12
 286 -299 286 -299 304 -264 c 0,13,14
 322 -228 322 -228 352 -204 c 0,15,16
 415 -154 415 -154 515.5 -154 c 128,-1,0
 616 -154 616 -154 672.5 -218 c 128,-1,1
EndSplineSet
EndChar

StartChar: _326
Encoding: 65545 -1 328
Width: 652
GlyphClass: 2
Flags: W
LayerCount: 2
Fore
SplineSet
24 1428 m 1,0,1
 24 1482 24 1482 117 1482 c 2,2,-1
 419 1482 l 1,3,-1
 569 1112 l 1,4,-1
 334 1112 l 1,5,-1
 24 1428 l 1,0,1
EndSplineSet
EndChar

StartChar: _327
Encoding: 65546 -1 329
Width: 652
GlyphClass: 2
Flags: W
LayerCount: 2
Fore
SplineSet
73 1223 m 1,0,-1
 223 1592 l 1,1,-1
 525 1592 l 2,2,3
 613 1592 613 1592 618 1538 c 1,4,-1
 308 1223 l 1,5,-1
 73 1223 l 1,0,-1
EndSplineSet
EndChar

StartChar: _328
Encoding: 65547 -1 330
Width: 891
GlyphClass: 2
Flags: W
LayerCount: 2
Fore
SplineSet
133 1146 m 2,0,1
 84 1146 84 1146 84 1170 c 0,2,3
 84 1205 84 1205 103 1224 c 1,4,-1
 275 1495 l 1,5,-1
 617 1495 l 1,6,-1
 771 1251 l 1,7,8
 808 1195 808 1195 808 1170.5 c 128,-1,9
 808 1146 808 1146 758 1146 c 2,10,-1
 551 1146 l 1,11,-1
 446 1320 l 1,12,-1
 351 1146 l 1,13,-1
 133 1146 l 2,0,1
EndSplineSet
EndChar

StartChar: _329
Encoding: 65548 -1 331
Width: 618
GlyphClass: 2
Flags: W
LayerCount: 2
Fore
SplineSet
648 1142 m 128,-1,1
 603 1100 603 1100 528 1100 c 128,-1,2
 453 1100 453 1100 408 1142 c 128,-1,3
 363 1184 363 1184 363 1257 c 0,4,5
 362 1362 362 1362 462 1400 c 0,6,7
 492 1412 492 1412 528 1412 c 128,-1,8
 564 1412 564 1412 594.5 1400.5 c 0,9,10
 624 1389 624 1389 646 1369 c 0,11,12
 692 1326 692 1326 692.5 1255 c 128,-1,0
 693 1184 693 1184 648 1142 c 128,-1,1
153 1142.5 m 128,-1,14
 108 1100 108 1100 33 1100 c 128,-1,15
 -42 1100 -42 1100 -87 1142 c 128,-1,16
 -132 1184 -132 1184 -132 1257 c 0,17,18
 -132 1362 -132 1362 -32 1400 c 0,19,20
 -2 1412 -2 1412 33.5 1412 c 128,-1,21
 69 1412 69 1412 99.5 1400.5 c 128,-1,22
 130 1389 130 1389 152 1369 c 0,23,24
 198 1326 198 1326 198 1255.5 c 128,-1,13
 198 1185 198 1185 153 1142.5 c 128,-1,14
EndSplineSet
EndChar

StartChar: _330
Encoding: 65549 -1 332
Width: 891
GlyphClass: 2
Flags: W
LayerCount: 2
Fore
SplineSet
758 1494 m 2,0,1
 808 1494 808 1494 808 1470 c 1,2,3
 806 1442 806 1442 796 1427 c 2,4,-1
 617 1145 l 1,5,-1
 275 1145 l 1,6,-1
 121 1389 l 1,7,8
 84 1445 84 1445 84 1469.5 c 128,-1,9
 84 1494 84 1494 133 1494 c 2,10,-1
 351 1494 l 1,11,-1
 446 1320 l 1,12,-1
 551 1494 l 1,13,-1
 758 1494 l 2,0,1
EndSplineSet
EndChar

StartChar: _331
Encoding: 65550 -1 333
Width: 722
GlyphClass: 2
Flags: W
LayerCount: 2
Fore
SplineSet
317 1109 m 128,-1,1
 272 1109 272 1109 234.5 1122 c 0,2,3
 197 1136 197 1136 170 1160 c 0,4,5
 113 1212 113 1212 113 1298 c 0,6,7
 113 1381 113 1381 171 1433 c 0,8,9
 227 1483 227 1483 317 1483 c 0,10,11
 456 1483 456 1483 506 1375 c 0,12,13
 522 1341 522 1341 521.5 1298 c 128,-1,14
 521 1255 521 1255 506 1220 c 128,-1,15
 491 1185 491 1185 464 1160.5 c 128,-1,16
 437 1136 437 1136 399.5 1122.5 c 128,-1,0
 362 1109 362 1109 317 1109 c 128,-1,1
230.5 1380 m 128,-1,18
 198 1349 198 1349 198 1296.5 c 128,-1,19
 198 1244 198 1244 230.5 1213 c 128,-1,20
 263 1182 263 1182 317 1182 c 128,-1,21
 371 1182 371 1182 403.5 1213 c 128,-1,22
 436 1244 436 1244 436 1296.5 c 128,-1,23
 436 1349 436 1349 403.5 1380 c 128,-1,24
 371 1411 371 1411 317 1411 c 128,-1,17
 263 1411 263 1411 230.5 1380 c 128,-1,18
EndSplineSet
EndChar

StartChar: _332
Encoding: 65551 -1 334
Width: 1139
GlyphClass: 2
Flags: W
LayerCount: 2
Fore
SplineSet
956 1477 m 1,0,1
 850 1275 850 1275 722 1275 c 0,2,3
 649 1275 649 1275 600.5 1300.5 c 128,-1,4
 552 1326 552 1326 522.5 1341.5 c 128,-1,5
 493 1357 493 1357 473 1366 c 0,6,7
 435 1383 435 1383 405 1383 c 2,8,-1
 401 1383 l 2,9,10
 368 1383 368 1383 341.5 1361 c 128,-1,11
 315 1339 315 1339 278 1293 c 1,12,13
 223 1293 223 1293 180 1320 c 1,14,15
 272 1521 272 1521 431 1521 c 0,16,17
 488 1521 488 1521 532 1502 c 128,-1,18
 576 1483 576 1483 610.5 1464.5 c 128,-1,19
 645 1446 645 1446 664 1436.5 c 0,20,21
 684 1427 684 1427 696 1422 c 0,22,23
 716 1414 716 1414 732 1414 c 0,24,25
 797 1414 797 1414 854 1505 c 1,26,27
 907 1505 907 1505 956 1477 c 1,0,1
EndSplineSet
EndChar

StartChar: _333
Encoding: 65552 -1 335
Width: 584
GlyphClass: 2
Flags: W
LayerCount: 2
Fore
SplineSet
496 1319 m 0,0,1
 496 1277 496 1277 482 1241.5 c 128,-1,2
 468 1206 468 1206 441.5 1181.5 c 128,-1,3
 415 1157 415 1157 378 1143.5 c 128,-1,4
 341 1130 341 1130 296 1130 c 128,-1,5
 251 1130 251 1130 214 1143.5 c 0,6,7
 176 1158 176 1158 150 1182 c 0,8,9
 96 1232 96 1232 96 1321 c 0,10,11
 96 1406 96 1406 153 1458 c 128,-1,12
 210 1510 210 1510 296 1509.5 c 128,-1,13
 382 1509 382 1509 440 1455 c 0,14,15
 496 1402 496 1402 496 1319 c 0,0,1
EndSplineSet
EndChar

StartChar: dotaccentcmb
Encoding: 65555 -1 338
Width: 712
GlyphClass: 2
Flags: W
LayerCount: 2
Fore
SplineSet
551 1319 m 0,0,1
 551 1277 551 1277 537 1241.5 c 128,-1,2
 523 1206 523 1206 496.5 1181.5 c 128,-1,3
 470 1157 470 1157 433 1143.5 c 128,-1,4
 396 1130 396 1130 351 1130 c 128,-1,5
 306 1130 306 1130 269 1143.5 c 0,6,7
 232 1158 232 1158 206 1182 c 0,8,9
 152 1232 152 1232 151 1321 c 0,10,11
 151 1406 151 1406 208 1458 c 128,-1,12
 265 1510 265 1510 351 1509.5 c 0,13,14
 436 1509 436 1509 494 1455 c 0,15,16
 550 1402 550 1402 551 1319 c 0,0,1
EndSplineSet
EndChar
